<svg xmlns="http://www.w3.org/2000/svg" xmlns:xlink="http://www.w3.org/1999/xlink" width="500" zoomAndPan="magnify" viewBox="0 0 375 374.999991" height="500" preserveAspectRatio="xMidYMid meet" version="1.0"><defs><clipPath id="48bd8892d5"><path d="M 64.453125 0 L 310.453125 0 L 310.453125 329 L 64.453125 329 Z M 64.453125 0 " clip-rule="nonzero"/></clipPath><clipPath id="e2400190ea"><path d="M 164.574219 228 L 236 228 L 236 344.347656 L 164.574219 344.347656 Z M 164.574219 228 " clip-rule="nonzero"/></clipPath><clipPath id="30ab86a198"><path d="M 175 233 L 253.824219 233 L 253.824219 344.347656 L 175 344.347656 Z M 175 233 " clip-rule="nonzero"/></clipPath><clipPath id="9ae2f2335b"><path d="M 202.363281 241 L 266 241 L 266 343.988281 L 202.363281 343.988281 Z M 202.363281 241 " clip-rule="nonzero"/></clipPath><clipPath id="0312fe48b1"><path d="M 211 246 L 281.863281 246 L 281.863281 343.988281 L 211 343.988281 Z M 211 246 " clip-rule="nonzero"/></clipPath></defs><path stroke-linecap="round" transform="matrix(1.952381, 0, 0, 1.953125, 0.0245553, -0.000000000000127898)" fill-opacity="1" fill="#9eea5a" fill-rule="nonzero" stroke-linejoin="round" d="M 146.999429 161.999997 C 146.999429 162.441997 146.979421 162.883997 146.939406 163.323997 C 146.89739 163.765997 146.835366 164.205997 146.755336 164.645997 C 146.673304 165.085997 146.571266 165.523997 146.447218 165.961997 C 146.325172 166.397997 146.183118 166.833997 146.019055 167.267997 C 145.856994 167.699997 145.674924 168.131997 145.470846 168.559997 C 145.268769 168.989997 145.046685 169.413997 144.804593 169.837997 C 144.5625 170.259997 144.300401 170.679997 144.018293 171.095997 C 143.738186 171.511997 143.438072 171.923997 143.11795 172.331997 C 142.797828 172.739997 142.459699 173.143997 142.103564 173.543997 C 141.747428 173.943997 141.371285 174.337997 140.977134 174.727997 C 140.584985 175.117997 140.172828 175.501997 139.744665 175.879997 C 139.314501 176.259997 138.868331 176.631997 138.404154 176.999997 C 137.941978 177.367997 137.459795 177.727997 136.963605 178.083997 C 136.465416 178.437997 135.953221 178.787997 135.423019 179.127997 C 134.894817 179.469997 134.348609 179.803997 133.788396 180.131997 C 133.228182 180.459997 132.651963 180.779997 132.061738 181.091997 C 131.471513 181.403997 130.867283 181.707997 130.249047 182.005997 C 129.630812 182.301997 128.998571 182.589997 128.354326 182.871997 C 127.708079 183.151997 127.051829 183.423997 126.381574 183.685997 C 125.709318 183.949997 125.029059 184.203997 124.334794 184.449997 C 123.64053 184.695997 122.934261 184.931997 122.219989 185.157997 C 121.503716 185.385997 120.777439 185.603997 120.041159 185.811997 C 119.304878 186.019997 118.560595 186.217997 117.804307 186.407997 C 117.050019 186.595997 116.287729 186.775997 115.517435 186.943997 C 114.745141 187.113997 113.966845 187.271997 113.180545 187.421997 C 112.396246 187.569997 111.603944 187.709997 110.80364 187.837997 C 110.005335 187.965997 109.201029 188.083997 108.392721 188.189997 C 107.582412 188.297997 106.768102 188.393997 105.94979 188.481997 C 105.131479 188.567997 104.309165 188.641997 103.482851 188.707997 C 102.658537 188.771997 101.830221 188.825997 100.997904 188.869997 C 100.167588 188.913997 99.335271 188.945997 98.502953 188.967997 C 97.668636 188.989997 96.834318 188.999997 96 188.999997 C 95.165682 188.999997 94.331364 188.989997 93.497046 188.967997 C 92.664729 188.945997 91.832412 188.913997 91.002096 188.869997 C 90.169779 188.825997 89.341463 188.771997 88.517149 188.707997 C 87.690834 188.641997 86.868521 188.567997 86.050209 188.481997 C 85.231898 188.393997 84.417587 188.297997 83.607279 188.189997 C 82.798971 188.083997 81.994664 187.965997 81.19636 187.837997 C 80.396055 187.709997 79.603754 187.569997 78.819455 187.421997 C 78.033155 187.271997 77.254859 187.113997 76.482565 186.943997 C 75.712271 186.775997 74.949981 186.595997 74.195693 186.407997 C 73.439405 186.217997 72.695122 186.019997 71.958841 185.811997 C 71.222561 185.603997 70.496284 185.385997 69.780011 185.157997 C 69.065739 184.931997 68.35947 184.695997 67.665205 184.449997 C 66.970941 184.203997 66.290682 183.949997 65.618426 183.685997 C 64.94817 183.423997 64.29192 183.151997 63.645674 182.871997 C 63.001429 182.589997 62.369188 182.301997 61.750952 182.005997 C 61.132717 181.707997 60.528487 181.403997 59.938262 181.091997 C 59.348037 180.779997 58.771817 180.459997 58.211604 180.131997 C 57.651391 179.803997 57.105183 179.469997 56.576981 179.127997 C 56.046779 178.787997 55.534584 178.437997 55.036394 178.083997 C 54.540205 177.727997 54.058022 177.367997 53.595846 176.999997 C 53.131669 176.631997 52.685499 176.259997 52.255335 175.879997 C 51.827172 175.501997 51.415015 175.117997 51.022865 174.727997 C 50.628715 174.337997 50.252572 173.943997 49.896436 173.543997 C 49.540301 173.143997 49.202172 172.739997 48.88205 172.331997 C 48.561928 171.923997 48.261814 171.511997 47.981707 171.095997 C 47.699599 170.679997 47.4375 170.259997 47.195407 169.837997 C 46.953315 169.413997 46.73123 168.989997 46.529153 168.559997 C 46.325076 168.131997 46.143006 167.699997 45.980945 167.267997 C 45.816882 166.833997 45.674828 166.397997 45.552782 165.961997 C 45.428734 165.523997 45.326695 165.085997 45.244664 164.645997 C 45.164634 164.205997 45.10261 163.765997 45.060594 163.323997 C 45.020579 162.883997 45.000571 162.441997 45.000571 161.999997 C 45.000571 161.557997 45.020579 161.115997 45.060594 160.675997 C 45.10261 160.233997 45.164634 159.793997 45.244664 159.353997 C 45.326695 158.913997 45.428734 158.475997 45.552782 158.037997 C 45.674828 157.601997 45.816882 157.165997 45.980945 156.731997 C 46.143006 156.299997 46.325076 155.867997 46.529153 155.439997 C 46.73123 155.009997 46.953315 154.585997 47.195407 154.161997 C 47.4375 153.739998 47.699599 153.319998 47.981707 152.903998 C 48.261814 152.487998 48.561928 152.075998 48.88205 151.667998 C 49.202172 151.259998 49.540301 150.855998 49.896436 150.455998 C 50.252572 150.055998 50.628715 149.661998 51.022865 149.271998 C 51.415015 148.881998 51.827172 148.497998 52.255335 148.119998 C 52.685499 147.739998 53.131669 147.367998 53.595846 146.999998 C 54.058022 146.631998 54.540205 146.271998 55.036394 145.915998 C 55.534584 145.561998 56.046779 145.211998 56.576981 144.871998 C 57.105183 144.529998 57.651391 144.195998 58.211604 143.867998 C 58.771817 143.539998 59.348037 143.219998 59.938262 142.907998 C 60.528487 142.595998 61.132717 142.291998 61.750952 141.993998 C 62.369188 141.697998 63.001429 141.409998 63.645674 141.127998 C 64.29192 140.847998 64.94817 140.575998 65.618426 140.313998 C 66.290682 140.049998 66.970941 139.795998 67.665205 139.549998 C 68.35947 139.303998 69.065739 139.067998 69.780011 138.841998 C 70.496284 138.613998 71.222561 138.395998 71.958841 138.187998 C 72.695122 137.979998 73.439405 137.781998 74.195693 137.591998 C 74.949981 137.403998 75.712271 137.223998 76.482565 137.055998 C 77.254859 136.885998 78.033155 136.727998 78.819455 136.577998 C 79.603754 136.429998 80.396055 136.289998 81.19636 136.161998 C 81.994664 136.033998 82.798971 135.915998 83.607279 135.809998 C 84.417587 135.701998 85.231898 135.603998 86.050209 135.517998 C 86.868521 135.431998 87.690834 135.357998 88.517149 135.291998 C 89.341463 135.227998 90.169779 135.173998 91.002096 135.129998 C 91.832412 135.085998 92.664729 135.053998 93.497046 135.031998 C 94.331364 135.009998 95.165682 134.999998 96 134.999998 C 96.834318 134.999998 97.668636 135.009998 98.502953 135.031998 C 99.335271 135.053998 100.167588 135.085998 100.997904 135.129998 C 101.830221 135.173998 102.658537 135.227998 103.482851 135.291998 C 104.309165 135.357998 105.131479 135.431998 105.94979 135.517998 C 106.768102 135.603998 107.582412 135.701998 108.392721 135.809998 C 109.201029 135.915998 110.005335 136.033998 110.80364 136.161998 C 111.603944 136.289998 112.396246 136.429998 113.180545 136.577998 C 113.966845 136.727998 114.745141 136.885998 115.517435 137.055998 C 116.287729 137.223998 117.050019 137.403998 117.804307 137.591998 C 118.560595 137.781998 119.304878 137.979998 120.041159 138.187998 C 120.777439 138.395998 121.503716 138.613998 122.219989 138.841998 C 122.934261 139.067998 123.64053 139.303998 124.334794 139.549998 C 125.029059 139.795998 125.709318 140.049998 126.381574 140.313998 C 127.051829 140.575998 127.708079 140.847998 128.354326 141.127998 C 128.998571 141.409998 129.630812 141.697998 130.249047 141.993998 C 130.867283 142.291998 131.471513 142.595998 132.061738 142.907998 C 132.651963 143.219998 133.228182 143.539998 133.788396 143.867998 C 134.348609 144.195998 134.894817 144.529998 135.423019 144.871998 C 135.953221 145.211998 136.465416 145.561998 136.963605 145.915998 C 137.459795 146.271998 137.941978 146.631998 138.404154 146.999998 C 138.868331 147.367998 139.314501 147.739998 139.744665 148.119998 C 140.172828 148.497998 140.584985 148.881998 140.977134 149.271998 C 141.371285 149.661998 141.747428 150.055998 142.103564 150.455998 C 142.459699 150.855998 142.797828 151.259998 143.11795 151.667998 C 143.438072 152.075998 143.738186 152.487998 144.018293 152.903998 C 144.300401 153.319998 144.5625 153.739998 144.804593 154.161997 C 145.046685 154.585997 145.268769 155.009997 145.470846 155.439997 C 145.674924 155.867997 145.856994 156.299997 146.019055 156.731997 C 146.183118 157.165997 146.325172 157.601997 146.447218 158.037997 C 146.571266 158.475997 146.673304 158.913997 146.755336 159.353997 C 146.835366 159.793997 146.89739 160.233997 146.939406 160.675997 C 146.979421 161.115997 146.999429 161.557997 146.999429 161.999997 Z M 146.999429 161.999997 " stroke="#000000" stroke-width="6" stroke-opacity="1" stroke-miterlimit="4"/><path fill="#ed476c" d="M 187.453125 5.859375 C 122.75 5.859375 70.308594 58.320312 70.308594 123.046875 C 70.308594 222.65625 187.453125 322.265625 187.453125 322.265625 C 187.453125 322.265625 304.597656 222.65625 304.597656 123.046875 C 304.597656 58.320312 252.15625 5.859375 187.453125 5.859375 Z M 187.453125 5.859375 " fill-opacity="1" fill-rule="nonzero"/><g clip-path="url(#48bd8892d5)"><path stroke-linecap="round" transform="matrix(1.952381, 0, 0, 1.953125, 0.0245553, -0.000000000000127898)" fill="none" stroke-linejoin="round" d="M 96 3 C 62.859375 3 35.999142 29.86 35.999142 62.999999 C 35.999142 113.999998 96 164.999997 96 164.999997 C 96 164.999997 156.000858 113.999998 156.000858 62.999999 C 156.000858 29.86 129.140625 3 96 3 Z M 96 3 " stroke="#000000" stroke-width="6" stroke-opacity="1" stroke-miterlimit="4"/></g><path stroke-linecap="round" transform="matrix(1.952381, 0, 0, 1.953125, 0.0245553, -0.000000000000127898)" fill-opacity="1" fill="#ffffff" fill-rule="nonzero" stroke-linejoin="round" d="M 144.000286 62.999999 C 144.000286 63.785999 143.980279 64.569999 143.942264 65.355999 C 143.90425 66.139999 143.846227 66.923999 143.768198 67.703999 C 143.692169 68.485999 143.596132 69.265999 143.480088 70.043999 C 143.366045 70.819999 143.229993 71.593999 143.077935 72.363999 C 142.923876 73.133999 142.751811 73.901999 142.561738 74.663999 C 142.369665 75.425999 142.161586 76.181999 141.933499 76.933999 C 141.705412 77.685999 141.459318 78.431999 141.193217 79.169999 C 140.929116 79.909999 140.647009 80.643999 140.346894 81.367999 C 140.044779 82.093999 139.726658 82.811999 139.39053 83.521999 C 139.056403 84.231999 138.702268 84.933999 138.332127 85.627999 C 137.961986 86.319999 137.573838 87.003999 137.171685 87.675999 C 136.767531 88.349999 136.347371 89.013999 135.911205 89.667999 C 135.475038 90.319999 135.022866 90.961999 134.554688 91.593999 C 134.086509 92.223999 133.602325 92.843998 133.104135 93.449998 C 132.605945 94.057998 132.09375 94.651998 131.565549 95.233998 C 131.037348 95.815998 130.497142 96.385998 129.94093 96.941998 C 129.384718 97.495998 128.816502 98.037998 128.23428 98.565998 C 127.652058 99.093998 127.057832 99.605998 126.451601 100.103998 C 125.843369 100.601998 125.225134 101.085998 124.592893 101.553998 C 123.962653 102.021998 123.320408 102.473998 122.668159 102.909998 C 122.01391 103.345998 121.351658 103.767998 120.677401 104.169998 C 120.003144 104.573998 119.318884 104.961998 118.62662 105.331998 C 117.934356 105.701998 117.232089 106.055998 116.521818 106.391998 C 115.811547 106.727998 115.095274 107.045998 114.368998 107.345998 C 113.642721 107.645998 112.910442 107.929998 112.17016 108.193998 C 111.431879 108.457998 110.685595 108.705998 109.933308 108.933998 C 109.181021 109.161998 108.424733 109.369998 107.662443 109.561998 C 106.900152 109.751998 106.133861 109.923998 105.363567 110.077998 C 104.593274 110.229998 103.820979 110.365998 103.042683 110.479998 C 102.266387 110.595998 101.48609 110.691998 100.705793 110.767998 C 99.923495 110.845998 99.139196 110.903998 98.354897 110.941998 C 97.570598 110.979998 96.786299 110.999998 96 110.999998 C 95.2137 110.999998 94.429402 110.979998 93.645103 110.941998 C 92.860804 110.903998 92.076505 110.845998 91.294207 110.767998 C 90.51391 110.691998 89.733613 110.595998 88.957317 110.479998 C 88.17902 110.365998 87.406726 110.229998 86.636433 110.077998 C 85.866139 109.923998 85.099847 109.751998 84.337557 109.561998 C 83.575267 109.369998 82.818978 109.161998 82.066692 108.933998 C 81.314405 108.705998 80.568121 108.457998 79.82984 108.193998 C 79.089558 107.929998 78.357279 107.645998 77.631002 107.345998 C 76.904725 107.045998 76.188453 106.727998 75.478182 106.391998 C 74.767911 106.055998 74.065644 105.701998 73.37338 105.331998 C 72.681116 104.961998 71.996856 104.573998 71.322599 104.169998 C 70.648342 103.767998 69.98609 103.345998 69.33184 102.909998 C 68.679592 102.473998 68.037347 102.021998 67.407107 101.553998 C 66.774866 101.085998 66.156631 100.601998 65.548399 100.103998 C 64.942168 99.605998 64.347942 99.093998 63.76572 98.565998 C 63.183498 98.037998 62.615282 97.495998 62.05907 96.941998 C 61.502858 96.385998 60.962652 95.815998 60.434451 95.233998 C 59.90625 94.651998 59.394055 94.057998 58.895865 93.449998 C 58.397675 92.843998 57.91349 92.223999 57.445312 91.593999 C 56.977134 90.961999 56.524961 90.319999 56.088795 89.667999 C 55.652629 89.013999 55.232469 88.349999 54.828315 87.675999 C 54.426162 87.003999 54.038014 86.319999 53.667873 85.627999 C 53.297732 84.933999 52.943597 84.231999 52.60947 83.521999 C 52.273342 82.811999 51.955221 82.093999 51.653106 81.367999 C 51.352991 80.643999 51.070884 79.909999 50.806783 79.169999 C 50.540682 78.431999 50.294588 77.685999 50.066501 76.933999 C 49.838414 76.181999 49.630335 75.425999 49.438262 74.663999 C 49.248189 73.901999 49.076124 73.133999 48.922065 72.363999 C 48.770007 71.593999 48.633955 70.819999 48.519912 70.043999 C 48.403868 69.265999 48.307831 68.485999 48.231802 67.703999 C 48.153772 66.923999 48.09575 66.139999 48.057736 65.355999 C 48.019721 64.569999 47.999714 63.785999 47.999714 62.999999 C 47.999714 62.213999 48.019721 61.429999 48.057736 60.643999 C 48.09575 59.859999 48.153772 59.075999 48.231802 58.295999 C 48.307831 57.513999 48.403868 56.733999 48.519912 55.955999 C 48.633955 55.179999 48.770007 54.405999 48.922065 53.635999 C 49.076124 52.865999 49.248189 52.097999 49.438262 51.335999 C 49.630335 50.573999 49.838414 49.817999 50.066501 49.065999 C 50.294588 48.313999 50.540682 47.567999 50.806783 46.829999 C 51.070884 46.089999 51.352991 45.355999 51.653106 44.631999 C 51.955221 43.905999 52.273342 43.187999 52.60947 42.477999 C 52.943597 41.767999 53.297732 41.065999 53.667873 40.371999 C 54.038014 39.679999 54.426162 38.995999 54.828315 38.323999 C 55.232469 37.649999 55.652629 36.985999 56.088795 36.331999 C 56.524961 35.679999 56.977134 35.037999 57.445312 34.405999 C 57.91349 33.775999 58.397675 33.155999 58.895865 32.549999 C 59.394055 31.941999 59.90625 31.347999 60.434451 30.765999 C 60.962652 30.184 61.502858 29.614 62.05907 29.058 C 62.615282 28.504 63.183498 27.962 63.76572 27.434 C 64.347942 26.906 64.942168 26.394 65.548399 25.896 C 66.156631 25.398 66.774866 24.914 67.407107 24.446 C 68.037347 23.978 68.679592 23.526 69.33184 23.09 C 69.98609 22.654 70.648342 22.232 71.322599 21.83 C 71.996856 21.426 72.681116 21.038 73.37338 20.668 C 74.065644 20.298 74.767911 19.944 75.478182 19.608 C 76.188453 19.272 76.904725 18.954 77.631002 18.654 C 78.357279 18.354 79.089558 18.07 79.82984 17.806 C 80.568121 17.542 81.314405 17.294 82.066692 17.066 C 82.818978 16.838 83.575267 16.63 84.337557 16.438 C 85.099847 16.248 85.866139 16.076 86.636433 15.922 C 87.406726 15.77 88.17902 15.634 88.957317 15.52 C 89.733613 15.404 90.51391 15.308 91.294207 15.232 C 92.076505 15.154 92.860804 15.096 93.645103 15.058 C 94.429402 15.02 95.2137 15 96 15 C 96.786299 15 97.570598 15.02 98.354897 15.058 C 99.139196 15.096 99.923495 15.154 100.705793 15.232 C 101.48609 15.308 102.266387 15.404 103.042683 15.52 C 103.820979 15.634 104.593274 15.77 105.363567 15.922 C 106.133861 16.076 106.900152 16.248 107.662443 16.438 C 108.424733 16.63 109.181021 16.838 109.933308 17.066 C 110.685595 17.294 111.431879 17.542 112.17016 17.806 C 112.910442 18.07 113.642721 18.354 114.368998 18.654 C 115.095274 18.954 115.811547 19.272 116.521818 19.608 C 117.232089 19.944 117.934356 20.298 118.62662 20.668 C 119.318884 21.038 120.003144 21.426 120.677401 21.83 C 121.351658 22.232 122.01391 22.654 122.668159 23.09 C 123.320408 23.526 123.962653 23.978 124.592893 24.446 C 125.225134 24.914 125.843369 25.398 126.451601 25.896 C 127.057832 26.394 127.652058 26.906 128.23428 27.434 C 128.816502 27.962 129.384718 28.504 129.94093 29.058 C 130.497142 29.614 131.037348 30.184 131.565549 30.765999 C 132.09375 31.347999 132.605945 31.941999 133.104135 32.549999 C 133.602325 33.155999 134.086509 33.775999 134.554688 34.405999 C 135.022866 35.037999 135.475038 35.679999 135.911205 36.331999 C 136.347371 36.985999 136.767531 37.649999 137.171685 38.323999 C 137.573838 38.995999 137.961986 39.679999 138.332127 40.371999 C 138.702268 41.065999 139.056403 41.767999 139.39053 42.477999 C 139.726658 43.187999 140.044779 43.905999 140.346894 44.631999 C 140.647009 45.355999 140.929116 46.089999 141.193217 46.829999 C 141.459318 47.567999 141.705412 48.313999 141.933499 49.065999 C 142.161586 49.817999 142.369665 50.573999 142.561738 51.335999 C 142.751811 52.097999 142.923876 52.865999 143.077935 53.635999 C 143.229993 54.405999 143.366045 55.179999 143.480088 55.955999 C 143.596132 56.733999 143.692169 57.513999 143.768198 58.295999 C 143.846227 59.075999 143.90425 59.859999 143.942264 60.643999 C 143.980279 61.429999 144.000286 62.213999 144.000286 62.999999 Z M 144.000286 62.999999 " stroke="#000000" stroke-width="6" stroke-opacity="1" stroke-miterlimit="4"/><path stroke-linecap="round" transform="matrix(1.952381, 0, 0, 1.953125, 0.0245553, -0.000000000000127898)" fill-opacity="1" fill="#9fa6b1" fill-rule="nonzero" stroke-linejoin="round" d="M 75 62.999999 L 87.000572 62.999999 L 87.000572 91.759999 C 87.000572 94.099998 85.099847 95.999998 82.760956 95.999998 L 79.249619 95.999998 C 76.910728 95.999998 75.010004 94.099998 75.010004 91.759999 L 75.010004 62.999999 Z M 75 62.999999 " stroke="#000000" stroke-width="6" stroke-opacity="1" stroke-miterlimit="4"/><path stroke-linecap="round" transform="matrix(1.952381, 0, 0, 1.953125, 0.0245553, -0.000000000000127898)" fill-opacity="1" fill="#9fa6b1" fill-rule="nonzero" stroke-linejoin="round" d="M 108.000572 56.999999 L 119.999143 56.999999 L 119.999143 91.759999 C 119.999143 94.099998 118.100419 95.999998 115.759528 95.999998 L 112.250191 95.999998 C 109.909299 95.999998 108.010576 94.099998 108.010576 91.759999 L 108.010576 56.999999 Z M 108.000572 56.999999 " stroke="#000000" stroke-width="6" stroke-opacity="1" stroke-miterlimit="4"/><path stroke-linecap="round" transform="matrix(1.952381, 0, 0, 1.953125, 0.0245553, -0.000000000000127898)" fill-opacity="1" fill="#ffffff" fill-rule="nonzero" stroke-linejoin="round" d="M 119.999143 71.999999 L 102.000286 71.999999 L 102.000286 66.629999 C 102.000286 53.109999 108.750858 40.489999 119.999143 32.999999 Z M 119.999143 71.999999 " stroke="#000000" stroke-width="6" stroke-opacity="1" stroke-miterlimit="4"/><path stroke-linecap="round" transform="matrix(1.952381, 0, 0, 1.953125, 0.0245553, -0.000000000000127898)" fill="none" stroke-linejoin="round" d="M 89.999714 35.999999 L 92.260575 56.339999 C 92.650724 59.889999 89.869665 62.999999 86.300305 62.999999 L 75.71027 62.999999 C 72.130907 62.999999 69.349847 59.889999 69.75 56.339999 L 72.010861 35.999999 " stroke="#000000" stroke-width="6" stroke-opacity="1" stroke-miterlimit="4"/><path stroke-linecap="round" transform="matrix(1.952381, 0, 0, 1.953125, 0.0245553, -0.000000000000127898)" fill="none" stroke-linejoin="round" d="M 81.000286 35.999999 L 81.000286 62.999999 " stroke="#000000" stroke-width="6" stroke-opacity="1" stroke-miterlimit="4"/><path fill="#821921" d="M 225.554688 254.65625 C 222.035156 252.734375 218.515625 250.816406 214.992188 248.894531 C 220.769531 252.046875 224.597656 258.492188 224.582031 266.453125 C 224.558594 278.804688 215.285156 290.132812 203.867188 291.738281 C 199.804688 292.3125 196.019531 291.578125 192.828125 289.835938 C 196.347656 291.757812 199.867188 293.675781 203.390625 295.597656 C 206.582031 297.339844 210.367188 298.074219 214.429688 297.5 C 225.847656 295.890625 235.121094 284.566406 235.144531 272.214844 C 235.15625 264.253906 231.332031 257.808594 225.554688 254.65625 " fill-opacity="1" fill-rule="nonzero"/><g clip-path="url(#e2400190ea)"><path fill="#821921" d="M 224.96875 232.054688 C 218.902344 228.746094 211.707031 227.347656 203.980469 228.4375 C 182.289062 231.496094 164.667969 253.007812 164.625 276.488281 C 164.605469 285.34375 167.097656 293.207031 171.386719 299.449219 C 172.074219 300.449219 172.808594 301.410156 173.585938 302.320312 C 174.128906 302.953125 174.699219 303.570312 175.285156 304.15625 L 203.78125 338.589844 L 214.34375 344.351562 L 185.847656 309.921875 C 185.261719 309.332031 184.691406 308.71875 184.148438 308.082031 C 183.371094 307.171875 182.636719 306.210938 181.949219 305.210938 C 177.660156 298.96875 175.167969 291.105469 175.1875 282.25 C 175.230469 258.769531 192.851562 237.257812 214.542969 234.199219 C 222.265625 233.109375 229.464844 234.507812 235.53125 237.816406 L 224.96875 232.054688 " fill-opacity="1" fill-rule="nonzero"/></g><g clip-path="url(#30ab86a198)"><path fill="#d7303d" d="M 214.429688 297.5 C 225.847656 295.890625 235.121094 284.566406 235.144531 272.214844 C 235.164062 259.855469 225.929688 251.144531 214.515625 252.753906 C 203.09375 254.363281 193.824219 265.683594 193.800781 278.039062 C 193.777344 290.394531 203.011719 299.109375 214.429688 297.5 M 253.753906 271.175781 C 253.734375 280.273438 251.078125 289.074219 246.566406 296.625 C 245.945312 297.660156 245.328125 298.617188 244.6875 299.550781 C 244.257812 300.167969 243.816406 300.773438 243.363281 301.375 L 214.34375 344.351562 L 185.847656 309.921875 C 185.261719 309.332031 184.691406 308.71875 184.148438 308.082031 C 183.371094 307.171875 182.636719 306.210938 181.949219 305.210938 C 177.660156 298.96875 175.167969 291.105469 175.183594 282.25 C 175.230469 258.773438 192.851562 237.257812 214.542969 234.199219 C 236.238281 231.140625 253.796875 247.699219 253.753906 271.175781 " fill-opacity="1" fill-rule="nonzero"/></g><path fill="#821921" d="M 256.683594 264.648438 C 253.546875 262.949219 250.410156 261.25 247.273438 259.550781 C 252.417969 262.339844 255.828125 268.042969 255.816406 275.082031 C 255.792969 286.011719 247.535156 296.03125 237.363281 297.453125 C 233.742188 297.960938 230.371094 297.308594 227.527344 295.769531 C 230.664062 297.46875 233.800781 299.167969 236.9375 300.867188 C 239.777344 302.40625 243.152344 303.054688 246.773438 302.550781 C 256.941406 301.125 265.203125 291.109375 265.222656 280.179688 C 265.234375 273.140625 261.828125 267.4375 256.683594 264.648438 " fill-opacity="1" fill-rule="nonzero"/><g clip-path="url(#9ae2f2335b)"><path fill="#821921" d="M 256.160156 244.65625 C 250.757812 241.726562 244.34375 240.492188 237.464844 241.453125 C 218.140625 244.160156 202.441406 263.191406 202.402344 283.960938 C 202.386719 291.792969 204.605469 298.75 208.425781 304.273438 C 209.039062 305.160156 209.695312 306.007812 210.386719 306.8125 C 210.871094 307.375 211.378906 307.917969 211.902344 308.4375 L 237.285156 338.894531 L 246.695312 343.992188 L 221.308594 313.535156 C 220.789062 313.015625 220.28125 312.472656 219.796875 311.910156 C 219.101562 311.105469 218.449219 310.253906 217.835938 309.371094 C 214.015625 303.847656 211.796875 296.890625 211.8125 289.058594 C 211.851562 268.289062 227.546875 249.257812 246.871094 246.550781 C 253.753906 245.589844 260.164062 246.824219 265.570312 249.753906 L 256.160156 244.65625 " fill-opacity="1" fill-rule="nonzero"/></g><g clip-path="url(#0312fe48b1)"><path fill="#d7303d" d="M 246.773438 302.550781 C 256.941406 301.125 265.203125 291.109375 265.222656 280.179688 C 265.242188 269.246094 257.015625 261.542969 246.847656 262.964844 C 236.675781 264.390625 228.414062 274.402344 228.394531 285.335938 C 228.375 296.261719 236.601562 303.972656 246.773438 302.550781 M 281.800781 279.261719 C 281.785156 287.308594 279.417969 295.097656 275.398438 301.773438 C 274.84375 302.6875 274.296875 303.535156 273.722656 304.363281 C 273.34375 304.910156 272.949219 305.445312 272.542969 305.976562 L 246.695312 343.992188 L 221.308594 313.535156 C 220.789062 313.015625 220.28125 312.472656 219.796875 311.910156 C 219.101562 311.105469 218.449219 310.253906 217.835938 309.371094 C 214.015625 303.847656 211.796875 296.890625 211.8125 289.058594 C 211.851562 268.289062 227.546875 249.257812 246.871094 246.550781 C 266.199219 243.847656 281.839844 258.492188 281.800781 279.261719 " fill-opacity="1" fill-rule="nonzero"/></g></svg>