<svg xmlns="http://www.w3.org/2000/svg" xmlns:xlink="http://www.w3.org/1999/xlink" width="500" zoomAndPan="magnify" viewBox="0 0 375 374.999991" height="500" preserveAspectRatio="xMidYMid meet" version="1.0"><defs><clipPath id="3b90112bb7"><path d="M 31 0 L 291 0 L 291 364.5 L 31 364.5 Z M 31 0 " clip-rule="nonzero"/></clipPath></defs><g clip-path="url(#3b90112bb7)"><path fill="#d9d9d9" d="M 244.089844 0 L 77.832031 0 C 76.308594 0 74.785156 0.0742188 73.269531 0.222656 C 71.75 0.371094 70.246094 0.597656 68.75 0.894531 C 67.253906 1.191406 65.777344 1.558594 64.320312 2.003906 C 62.859375 2.445312 61.425781 2.957031 60.015625 3.539062 C 58.609375 4.125 57.230469 4.773438 55.886719 5.492188 C 54.542969 6.210938 53.238281 6.996094 51.96875 7.839844 C 50.703125 8.6875 49.476562 9.59375 48.300781 10.5625 C 47.121094 11.53125 45.992188 12.550781 44.914062 13.628906 C 43.835938 14.707031 42.8125 15.835938 41.847656 17.015625 C 40.878906 18.191406 39.972656 19.414062 39.125 20.683594 C 38.277344 21.949219 37.496094 23.257812 36.777344 24.601562 C 36.058594 25.945312 35.40625 27.324219 34.824219 28.730469 C 34.238281 30.140625 33.726562 31.574219 33.285156 33.03125 C 32.839844 34.492188 32.472656 35.96875 32.171875 37.464844 C 31.875 38.957031 31.652344 40.464844 31.503906 41.980469 C 31.355469 43.5 31.277344 45.019531 31.277344 46.542969 L 31.277344 318.09375 C 31.277344 319.621094 31.355469 321.140625 31.503906 322.65625 C 31.652344 324.175781 31.875 325.683594 32.171875 327.175781 C 32.472656 328.671875 32.839844 330.148438 33.285156 331.609375 C 33.726562 333.066406 34.238281 334.5 34.824219 335.910156 C 35.40625 337.320312 36.058594 338.695312 36.777344 340.039062 C 37.496094 341.382812 38.277344 342.691406 39.125 343.957031 C 39.972656 345.226562 40.878906 346.449219 41.847656 347.628906 C 42.8125 348.804688 43.835938 349.933594 44.914062 351.011719 C 45.992188 352.089844 47.121094 353.113281 48.300781 354.082031 C 49.476562 355.046875 50.699219 355.957031 51.96875 356.800781 C 53.234375 357.648438 54.542969 358.433594 55.886719 359.152344 C 57.230469 359.871094 58.609375 360.519531 60.015625 361.105469 C 61.425781 361.6875 62.859375 362.199219 64.316406 362.644531 C 65.777344 363.085938 67.253906 363.457031 68.75 363.753906 C 70.246094 364.050781 71.75 364.273438 73.269531 364.421875 C 74.785156 364.574219 76.308594 364.648438 77.832031 364.648438 L 244.089844 364.648438 C 245.613281 364.648438 247.132812 364.574219 248.652344 364.421875 C 250.167969 364.273438 251.675781 364.050781 253.171875 363.753906 C 254.664062 363.453125 256.144531 363.085938 257.601562 362.640625 C 259.058594 362.199219 260.492188 361.6875 261.902344 361.101562 C 263.3125 360.519531 264.6875 359.867188 266.03125 359.148438 C 267.375 358.429688 268.683594 357.648438 269.949219 356.800781 C 271.21875 355.953125 272.441406 355.046875 273.621094 354.078125 C 274.796875 353.109375 275.925781 352.089844 277.003906 351.011719 C 278.082031 349.933594 279.105469 348.804688 280.070312 347.625 C 281.039062 346.445312 281.945312 345.222656 282.792969 343.957031 C 283.640625 342.6875 284.421875 341.382812 285.140625 340.039062 C 285.859375 338.695312 286.511719 337.316406 287.097656 335.910156 C 287.679688 334.5 288.191406 333.066406 288.636719 331.609375 C 289.078125 330.148438 289.449219 328.671875 289.746094 327.175781 C 290.042969 325.679688 290.265625 324.175781 290.417969 322.65625 C 290.566406 321.140625 290.640625 319.621094 290.640625 318.09375 L 290.640625 46.542969 C 290.640625 45.019531 290.566406 43.5 290.417969 41.980469 C 290.265625 40.464844 290.042969 38.960938 289.746094 37.464844 C 289.449219 35.96875 289.078125 34.492188 288.636719 33.03125 C 288.191406 31.574219 287.679688 30.140625 287.09375 28.730469 C 286.511719 27.324219 285.859375 25.949219 285.140625 24.601562 C 284.421875 23.257812 283.640625 21.953125 282.792969 20.683594 C 281.945312 19.417969 281.039062 18.195312 280.070312 17.015625 C 279.105469 15.839844 278.082031 14.710938 277.003906 13.632812 C 275.925781 12.554688 274.796875 11.53125 273.617188 10.566406 C 272.441406 9.597656 271.21875 8.691406 269.949219 7.84375 C 268.683594 6.996094 267.375 6.214844 266.03125 5.496094 C 264.6875 4.777344 263.308594 4.125 261.902344 3.542969 C 260.492188 2.960938 259.058594 2.445312 257.601562 2.003906 C 256.140625 1.5625 254.664062 1.191406 253.167969 0.894531 C 251.675781 0.597656 250.167969 0.375 248.652344 0.222656 C 247.132812 0.0742188 245.613281 0 244.089844 0 Z M 127.003906 91.976562 C 127.488281 91.492188 128.050781 91.117188 128.683594 90.855469 C 129.316406 90.59375 129.980469 90.460938 130.664062 90.460938 L 259.144531 90.460938 C 259.464844 90.488281 259.78125 90.542969 260.09375 90.625 C 260.40625 90.710938 260.707031 90.824219 260.996094 90.964844 C 261.289062 91.105469 261.5625 91.269531 261.820312 91.464844 C 262.082031 91.65625 262.320312 91.871094 262.539062 92.109375 C 262.757812 92.34375 262.953125 92.601562 263.125 92.875 C 263.296875 93.148438 263.441406 93.433594 263.558594 93.734375 C 263.675781 94.035156 263.765625 94.34375 263.824219 94.660156 C 263.886719 94.980469 263.914062 95.300781 263.914062 95.621094 C 263.914062 95.945312 263.886719 96.265625 263.824219 96.582031 C 263.765625 96.898438 263.675781 97.207031 263.558594 97.507812 C 263.441406 97.808594 263.296875 98.097656 263.125 98.371094 C 262.953125 98.644531 262.757812 98.898438 262.539062 99.136719 C 262.320312 99.375 262.082031 99.589844 261.820312 99.78125 C 261.5625 99.972656 261.289062 100.140625 260.996094 100.28125 C 260.707031 100.421875 260.40625 100.535156 260.09375 100.617188 C 259.78125 100.703125 259.464844 100.757812 259.144531 100.785156 L 130.6875 100.785156 C 130.175781 100.785156 129.675781 100.710938 129.1875 100.5625 C 128.695312 100.414062 128.238281 100.199219 127.8125 99.914062 C 127.386719 99.632812 127.011719 99.292969 126.683594 98.898438 C 126.359375 98.5 126.097656 98.066406 125.902344 97.59375 C 125.707031 97.121094 125.585938 96.628906 125.535156 96.121094 C 125.484375 95.609375 125.507812 95.105469 125.609375 94.601562 C 125.710938 94.101562 125.878906 93.625 126.121094 93.171875 C 126.363281 92.722656 126.664062 92.316406 127.027344 91.953125 Z M 63.484375 61.804688 C 67.175781 56.175781 75.300781 55.992188 75.75 55.984375 C 83.40625 55.914062 88.003906 61.425781 88.84375 62.425781 C 90.035156 63.875 90.980469 65.46875 91.691406 67.203125 C 92.398438 68.941406 92.832031 70.742188 92.996094 72.613281 C 93.101562 70.464844 93.582031 68.40625 94.441406 66.4375 C 95.300781 64.46875 96.480469 62.714844 97.984375 61.179688 C 98.378906 60.789062 105.128906 54.40625 112.949219 56.820312 C 114.515625 57.292969 115.941406 58.03125 117.230469 59.035156 C 118.519531 60.039062 119.585938 61.238281 120.429688 62.640625 C 124.957031 70.753906 117.578125 82.09375 114.816406 86.324219 C 108.242188 96.425781 99.03125 101.632812 93.203125 104.199219 C 87.351562 102.195312 77.039062 97.574219 69.726562 87.15625 C 67.382812 83.863281 57.886719 70.363281 63.46875 61.835938 Z M 63.484375 135.386719 C 67.175781 129.757812 75.300781 129.574219 75.742188 129.566406 C 83.40625 129.496094 88.003906 135.003906 88.84375 136.011719 C 90.035156 137.460938 90.984375 139.054688 91.691406 140.789062 C 92.398438 142.523438 92.832031 144.324219 92.996094 146.191406 C 93.097656 144.046875 93.578125 141.988281 94.4375 140.019531 C 95.296875 138.050781 96.480469 136.300781 97.984375 134.765625 C 98.378906 134.371094 105.082031 127.984375 112.941406 130.398438 C 114.5 130.886719 115.917969 131.636719 117.195312 132.648438 C 118.476562 133.660156 119.53125 134.867188 120.367188 136.265625 C 124.890625 144.390625 117.515625 155.730469 114.753906 159.960938 C 108.179688 170.050781 98.96875 175.269531 93.140625 177.832031 C 87.289062 175.824219 76.972656 171.210938 69.660156 160.792969 C 67.34375 157.46875 57.847656 143.945312 63.4375 135.417969 Z M 116.230469 262 C 109.65625 272.097656 100.445312 277.308594 94.617188 279.871094 C 88.765625 277.863281 78.449219 273.25 71.136719 262.824219 C 68.757812 259.554688 59.226562 246.03125 64.851562 237.503906 C 68.542969 231.882812 76.664062 231.691406 77.117188 231.683594 C 84.769531 231.621094 89.367188 237.121094 90.210938 238.128906 C 91.398438 239.578125 92.347656 241.171875 93.054688 242.90625 C 93.765625 244.640625 94.199219 246.441406 94.363281 248.308594 C 94.464844 246.164062 94.945312 244.105469 95.804688 242.136719 C 96.664062 240.167969 97.84375 238.417969 99.347656 236.882812 C 99.746094 236.496094 106.449219 230.101562 114.316406 232.515625 C 115.109375 232.769531 119.492188 234.199219 121.796875 238.335938 C 126.328125 246.460938 118.945312 257.796875 116.183594 262.03125 Z M 127.027344 165.535156 C 127.511719 165.046875 128.070312 164.671875 128.703125 164.40625 C 129.335938 164.140625 129.996094 164.007812 130.679688 164.011719 L 259.113281 164.011719 C 259.449219 164.011719 259.785156 164.042969 260.121094 164.109375 C 260.453125 164.175781 260.777344 164.277344 261.089844 164.40625 C 261.402344 164.535156 261.699219 164.695312 261.984375 164.882812 C 262.265625 165.070312 262.527344 165.285156 262.765625 165.527344 C 263.007812 165.765625 263.222656 166.027344 263.410156 166.308594 C 263.601562 166.589844 263.757812 166.886719 263.890625 167.203125 C 264.019531 167.515625 264.121094 167.839844 264.1875 168.171875 C 264.253906 168.503906 264.289062 168.839844 264.289062 169.179688 C 264.289062 169.519531 264.253906 169.855469 264.1875 170.1875 C 264.121094 170.519531 264.019531 170.84375 263.890625 171.15625 C 263.757812 171.472656 263.601562 171.769531 263.410156 172.050781 C 263.222656 172.332031 263.007812 172.59375 262.765625 172.835938 C 262.527344 173.074219 262.265625 173.289062 261.984375 173.480469 C 261.703125 173.667969 261.402344 173.828125 261.089844 173.957031 C 260.777344 174.089844 260.453125 174.1875 260.121094 174.253906 C 259.789062 174.320312 259.449219 174.355469 259.113281 174.355469 L 130.632812 174.355469 C 130.292969 174.355469 129.957031 174.320312 129.625 174.253906 C 129.292969 174.1875 128.96875 174.089844 128.65625 173.957031 C 128.339844 173.828125 128.042969 173.667969 127.761719 173.480469 C 127.476562 173.289062 127.21875 173.074219 126.976562 172.835938 C 126.738281 172.59375 126.523438 172.332031 126.332031 172.050781 C 126.144531 171.769531 125.984375 171.472656 125.855469 171.15625 C 125.722656 170.84375 125.625 170.519531 125.558594 170.1875 C 125.492188 169.855469 125.457031 169.519531 125.457031 169.179688 C 125.460938 168.5 125.59375 167.847656 125.859375 167.222656 C 126.125 166.59375 126.496094 166.042969 126.980469 165.566406 Z M 264.234375 274.925781 C 263.746094 275.410156 263.1875 275.785156 262.554688 276.046875 C 261.917969 276.308594 261.257812 276.441406 260.574219 276.441406 L 132.046875 276.441406 C 131.71875 276.421875 131.398438 276.375 131.078125 276.296875 C 130.761719 276.214844 130.453125 276.105469 130.15625 275.96875 C 129.859375 275.832031 129.578125 275.667969 129.3125 275.476562 C 129.046875 275.285156 128.804688 275.070312 128.578125 274.832031 C 128.351562 274.59375 128.152344 274.339844 127.976562 274.0625 C 127.800781 273.785156 127.652344 273.496094 127.53125 273.191406 C 127.410156 272.886719 127.316406 272.574219 127.257812 272.253906 C 127.195312 271.933594 127.164062 271.609375 127.164062 271.28125 C 127.164062 270.953125 127.195312 270.628906 127.257812 270.308594 C 127.316406 269.984375 127.410156 269.671875 127.53125 269.367188 C 127.652344 269.066406 127.800781 268.773438 127.976562 268.5 C 128.152344 268.222656 128.351562 267.964844 128.578125 267.726562 C 128.804688 267.492188 129.046875 267.277344 129.3125 267.085938 C 129.578125 266.894531 129.859375 266.730469 130.15625 266.589844 C 130.453125 266.453125 130.761719 266.34375 131.078125 266.265625 C 131.398438 266.1875 131.71875 266.136719 132.046875 266.121094 L 260.523438 266.121094 C 261.035156 266.121094 261.535156 266.191406 262.023438 266.339844 C 262.515625 266.488281 262.972656 266.707031 263.398438 266.988281 C 263.820312 267.273438 264.195312 267.613281 264.519531 268.007812 C 264.847656 268.402344 265.105469 268.835938 265.300781 269.308594 C 265.496094 269.78125 265.621094 270.269531 265.671875 270.777344 C 265.722656 271.289062 265.695312 271.792969 265.597656 272.292969 C 265.5 272.792969 265.328125 273.269531 265.085938 273.722656 C 264.847656 274.171875 264.546875 274.578125 264.183594 274.941406 Z M 264.234375 274.925781 " fill-opacity="1" fill-rule="nonzero"/></g><path fill="#d9d9d9" d="M 346.03125 68.394531 L 304.578125 225.992188 C 303.828125 234.652344 303.78125 243.316406 304.433594 251.984375 C 305.316406 263.339844 305.878906 270.683594 308.648438 271.589844 C 310.632812 272.242188 316.296875 270.421875 332.976562 233.476562 L 374.449219 75.875 C 374.6875 65.847656 370.398438 58.082031 363.871094 56.652344 C 357.640625 55.277344 350.542969 59.957031 346.03125 68.394531 Z M 346.03125 68.394531 " fill-opacity="1" fill-rule="nonzero"/><path fill="#d9d9d9" d="M 4.949219 74.683594 C 10.054688 71.0625 15.742188 78.597656 29.476562 79.035156 C 43.664062 79.496094 50.121094 71.890625 55.242188 75.929688 C 59.410156 79.25 59.15625 87.578125 56.488281 92.96875 C 51.289062 103.570312 36.074219 104.046875 31.277344 104.191406 C 27.5 104.308594 9.246094 104.871094 3.289062 92.96875 C 0.28125 86.960938 0.472656 77.867188 4.949219 74.683594 Z M 4.949219 74.683594 " fill-opacity="1" fill-rule="nonzero"/><path fill="#d9d9d9" d="M 4.949219 151.496094 C 10.054688 147.875 15.742188 155.410156 29.476562 155.847656 C 43.664062 156.308594 50.121094 148.703125 55.242188 152.742188 C 59.410156 156.0625 59.15625 164.390625 56.488281 169.78125 C 51.289062 180.382812 36.074219 180.859375 31.277344 181 C 27.5 181.121094 9.246094 181.683594 3.289062 169.78125 C 0.28125 163.773438 0.472656 154.679688 4.949219 151.496094 Z M 4.949219 151.496094 " fill-opacity="1" fill-rule="nonzero"/><path fill="#d9d9d9" d="M 6.371094 241.503906 C 11.476562 237.902344 17.144531 245.417969 30.898438 245.839844 C 45.085938 246.300781 51.542969 238.695312 56.664062 242.726562 C 60.832031 246.054688 60.578125 254.382812 57.910156 259.773438 C 52.667969 270.375 37.496094 270.84375 32.699219 270.996094 C 28.921875 271.113281 10.667969 271.675781 4.710938 259.773438 C 1.703125 253.78125 1.878906 244.695312 6.371094 241.503906 Z M 6.371094 241.503906 " fill-opacity="1" fill-rule="nonzero"/></svg>