<svg xmlns="http://www.w3.org/2000/svg" xmlns:xlink="http://www.w3.org/1999/xlink" width="500" zoomAndPan="magnify" viewBox="0 0 375 374.999991" height="500" preserveAspectRatio="xMidYMid meet" version="1.0"><defs><clipPath id="412e442201"><path d="M 0 201 L 173 201 L 173 374.15625 L 0 374.15625 Z M 0 201 " clip-rule="nonzero"/></clipPath><clipPath id="c670ab7c1a"><path d="M 200 201 L 374 201 L 374 374.15625 L 200 374.15625 Z M 200 201 " clip-rule="nonzero"/></clipPath><clipPath id="98dfb1c61e"><path d="M 287 37.5 L 335 37.5 L 335 92 L 287 92 Z M 287 37.5 " clip-rule="nonzero"/></clipPath></defs><g clip-path="url(#412e442201)"><path fill="#d9d9d9" d="M 151.644531 329.644531 C 151.644531 335.800781 149.214844 341.695312 144.851562 346.054688 C 140.492188 350.417969 134.566406 352.878906 128.40625 352.878906 L 44.046875 352.878906 C 37.886719 352.878906 31.960938 350.417969 27.597656 346.054688 C 23.269531 341.695312 20.808594 335.800781 20.808594 329.644531 L 20.808594 246.3125 C 20.808594 240.15625 23.269531 234.226562 27.597656 229.867188 C 31.960938 225.507812 37.886719 223.074219 44.046875 223.074219 L 128.40625 223.074219 C 134.566406 223.074219 140.492188 225.507812 144.851562 229.867188 C 149.214844 234.226562 151.644531 240.15625 151.644531 246.3125 Z M 128.40625 201.800781 L 44.046875 201.800781 C 32.292969 201.769531 20.972656 206.464844 12.71875 214.820312 C 4.429688 223.207031 -0.132812 234.527344 0 246.3125 L 0 330.675781 C 0.167969 342.261719 4.859375 353.3125 13.117188 361.4375 C 21.339844 369.59375 32.460938 374.15625 44.046875 374.15625 L 128.40625 374.15625 C 140.058594 374.15625 151.246094 369.527344 159.5 361.269531 C 167.757812 353.046875 172.417969 341.859375 172.453125 330.210938 L 172.453125 246.3125 C 172.585938 234.5625 167.992188 223.242188 159.734375 214.851562 C 151.445312 206.496094 140.191406 201.800781 128.40625 201.800781 " fill-opacity="1" fill-rule="nonzero"/></g><g clip-path="url(#c670ab7c1a)"><path fill="#d9d9d9" d="M 352.460938 329.644531 C 352.460938 335.800781 350.03125 341.695312 345.636719 346.054688 C 341.273438 350.417969 335.382812 352.878906 329.222656 352.878906 L 244.828125 352.878906 C 238.703125 352.878906 232.777344 350.417969 228.414062 346.054688 C 224.054688 341.695312 221.625 335.800781 221.625 329.644531 L 221.625 246.3125 C 221.625 240.15625 224.054688 234.226562 228.414062 229.867188 C 232.777344 225.507812 238.703125 223.074219 244.828125 223.074219 L 329.222656 223.074219 C 335.382812 223.074219 341.273438 225.507812 345.636719 229.867188 C 350.03125 234.226562 352.460938 240.15625 352.460938 246.3125 Z M 329.222656 201.800781 L 244.828125 201.800781 C 233.078125 201.800781 221.855469 206.53125 213.566406 214.886719 C 205.34375 223.242188 200.75 234.5625 200.917969 246.3125 L 200.917969 330.675781 C 201.082031 342.226562 205.777344 353.28125 213.96875 361.402344 C 222.222656 369.527344 233.277344 374.121094 244.828125 374.15625 L 329.222656 374.15625 C 340.875 374.15625 352.0625 369.527344 360.316406 361.269531 C 368.574219 353.046875 373.234375 341.859375 373.234375 330.210938 L 373.234375 246.3125 C 373.367188 234.5625 368.808594 223.242188 360.519531 214.851562 C 352.261719 206.496094 340.976562 201.800781 329.222656 201.800781 " fill-opacity="1" fill-rule="nonzero"/></g><path fill="#d9d9d9" d="M 151.644531 129.292969 C 151.644531 135.453125 149.214844 141.378906 144.851562 145.738281 C 140.492188 150.101562 134.566406 152.53125 128.40625 152.53125 L 44.046875 152.53125 C 37.886719 152.53125 31.960938 150.101562 27.597656 145.738281 C 23.269531 141.378906 20.808594 135.453125 20.808594 129.292969 L 20.808594 44.929688 C 20.808594 38.773438 23.269531 32.847656 27.597656 28.484375 C 31.960938 24.125 37.886719 21.691406 44.046875 21.691406 L 128.40625 21.691406 C 134.566406 21.691406 140.492188 24.125 144.851562 28.484375 C 149.214844 32.847656 151.644531 38.773438 151.644531 44.929688 Z M 128.40625 0.886719 L 44.046875 0.886719 C 32.359375 0.886719 21.171875 5.511719 12.917969 13.769531 C 4.660156 22.027344 0 33.246094 0 44.929688 L 0 129.292969 C 0.0351562 140.945312 4.660156 152.097656 12.917969 160.320312 C 21.140625 168.542969 32.292969 173.171875 43.945312 173.203125 L 128.308594 173.203125 C 139.960938 173.203125 151.144531 168.578125 159.402344 160.355469 C 167.65625 152.128906 172.320312 140.945312 172.351562 129.292969 L 172.351562 44.929688 C 172.351562 33.246094 167.722656 22.09375 159.46875 13.835938 C 151.246094 5.578125 140.058594 0.917969 128.40625 0.886719 " fill-opacity="1" fill-rule="nonzero"/><path fill="#d9d9d9" d="M 285.644531 163.117188 C 267.433594 163.148438 249.921875 155.925781 237.003906 143.042969 C 224.121094 130.15625 216.863281 112.679688 216.863281 94.46875 C 216.832031 76.226562 224.054688 58.746094 236.9375 45.863281 C 249.855469 32.980469 267.332031 25.753906 285.578125 25.753906 C 303.789062 25.753906 321.265625 33.011719 334.152344 45.929688 C 347.035156 58.8125 354.226562 76.324219 354.191406 94.535156 C 354.160156 112.714844 346.933594 130.125 334.085938 142.976562 C 321.234375 155.824219 303.820312 163.082031 285.644531 163.117188 Z M 285.644531 5.082031 C 261.90625 5.046875 239.101562 14.433594 222.324219 31.214844 C 205.511719 47.960938 196.054688 70.730469 196.054688 94.46875 C 196.023438 118.207031 205.445312 140.976562 222.222656 157.757812 C 238.96875 174.570312 261.742188 184.023438 285.476562 184.023438 C 309.214844 184.023438 331.988281 174.601562 348.765625 157.824219 C 365.578125 141.042969 375 118.273438 375 94.535156 C 375 70.832031 365.578125 48.09375 348.832031 31.3125 C 332.085938 14.535156 309.347656 5.082031 285.644531 5.082031 " fill-opacity="1" fill-rule="nonzero"/><g clip-path="url(#98dfb1c61e)"><path fill="#d9d9d9" d="M 334.28125 49.945312 L 333.75 50.304688 C 331.582031 51.773438 329.644531 53.519531 327.976562 55.503906 L 319.859375 65.179688 L 313.449219 72.820312 C 312.859375 73.523438 311.863281 73.65625 311.21875 73.117188 C 310.578125 72.582031 310.535156 71.574219 311.125 70.871094 L 317.539062 63.230469 L 325.65625 53.558594 C 327.324219 51.570312 328.707031 49.359375 329.777344 46.96875 L 330.039062 46.382812 C 330.207031 46.003906 329.773438 45.640625 329.429688 45.871094 L 328.898438 46.234375 C 326.730469 47.699219 324.792969 49.449219 323.125 51.433594 L 315.007812 61.105469 L 307.882812 69.597656 C 307.292969 70.300781 306.296875 70.433594 305.65625 69.894531 C 305.011719 69.359375 304.972656 68.351562 305.558594 67.648438 L 312.6875 59.160156 L 320.800781 49.484375 C 322.46875 47.5 323.851562 45.285156 324.921875 42.898438 L 325.183594 42.3125 C 325.355469 41.933594 324.921875 41.566406 324.574219 41.800781 L 324.042969 42.160156 C 321.878906 43.628906 319.9375 45.375 318.273438 47.363281 L 310.15625 57.035156 L 303.742188 64.675781 C 303.152344 65.378906 302.15625 65.511719 301.515625 64.972656 C 300.875 64.4375 300.832031 63.429688 301.421875 62.726562 L 307.832031 55.085938 L 315.949219 45.414062 C 317.617188 43.425781 319 41.214844 320.070312 38.824219 L 320.332031 38.238281 C 320.503906 37.859375 320.066406 37.496094 319.722656 37.730469 L 319.191406 38.089844 C 317.023438 39.558594 315.085938 41.304688 313.417969 43.289062 L 305.304688 52.964844 L 295.507812 64.664062 C 292.992188 67.667969 291.703125 71.515625 291.902344 75.429688 C 292.113281 79.585938 290.648438 83.640625 287.855469 86.695312 L 292.246094 91.0625 C 294.679688 87.570312 298.441406 85.234375 302.652344 84.59375 L 302.871094 84.558594 C 306.613281 83.992188 310.023438 82.074219 312.453125 79.171875 L 322.390625 67.300781 L 330.507812 57.628906 C 332.175781 55.640625 333.558594 53.429688 334.628906 51.042969 L 334.890625 50.457031 C 335.0625 50.074219 334.625 49.710938 334.28125 49.945312 " fill-opacity="1" fill-rule="nonzero"/></g><path fill="#d9d9d9" d="M 241.824219 131.886719 C 238.972656 134.808594 238.425781 139.273438 240.484375 142.796875 C 241.546875 144.605469 243.199219 145.996094 245.167969 146.722656 L 245.207031 146.738281 C 249.015625 148.148438 253.296875 146.851562 255.683594 143.570312 L 284.828125 101.714844 L 279.859375 94.578125 L 241.824219 131.886719 " fill-opacity="1" fill-rule="nonzero"/><path fill="#d9d9d9" d="M 285.105469 87.121094 C 282.09375 84.128906 280.445312 80.027344 280.546875 75.78125 C 280.546875 75.78125 281.136719 61.910156 275.796875 55.546875 C 267.640625 45.828125 251.601562 38.089844 244.667969 43.867188 C 237.769531 49.695312 242.605469 66.835938 250.761719 76.554688 C 256.101562 82.917969 269.863281 84.746094 269.863281 84.746094 C 274.0625 85.382812 277.816406 87.71875 280.242188 91.203125 L 316.644531 143.488281 C 319.023438 146.757812 323.289062 148.046875 327.082031 146.644531 L 327.121094 146.628906 C 328.054688 146.285156 328.914062 145.792969 329.675781 145.175781 C 330.414062 144.535156 331.046875 143.773438 331.550781 142.914062 L 331.570312 142.878906 C 333.613281 139.386719 333.082031 134.964844 330.273438 132.050781 L 285.105469 87.121094 " fill-opacity="1" fill-rule="nonzero"/></svg>