<svg xmlns="http://www.w3.org/2000/svg" xmlns:xlink="http://www.w3.org/1999/xlink" width="500" zoomAndPan="magnify" viewBox="0 0 375 374.999991" height="500" preserveAspectRatio="xMidYMid meet" version="1.0"><defs><clipPath id="5b4ffbfb17"><path d="M 47.578125 0 L 327.328125 0 L 327.328125 324 L 47.578125 324 Z M 47.578125 0 " clip-rule="nonzero"/></clipPath></defs><g clip-path="url(#5b4ffbfb17)"><path fill="#d9d9d9" d="M 296.5 38.832031 C 296.5 17.46875 279.136719 0.105469 257.773438 0.105469 L 86.367188 0.105469 C 65.007812 0.105469 47.640625 17.46875 47.640625 38.832031 L 47.640625 189.6875 C 47.640625 211.050781 65.007812 228.414062 86.367188 228.414062 L 197.246094 228.414062 C 193.558594 236.785156 191.558594 245.90625 191.558594 255.585938 C 191.558594 293.066406 221.980469 323.488281 259.460938 323.488281 C 296.9375 323.488281 327.359375 293.066406 327.359375 255.585938 C 327.359375 231.414062 314.617188 210.175781 295.503906 198.117188 C 296.125 195.371094 296.5 192.621094 296.5 189.6875 Z M 166.949219 66.878906 L 238.910156 66.878906 C 242.34375 66.878906 245.15625 69.691406 245.15625 73.125 C 245.15625 76.625 242.34375 79.371094 238.910156 79.371094 L 166.949219 79.371094 C 163.511719 79.371094 160.703125 76.625 160.703125 73.125 C 160.703125 69.691406 163.511719 66.878906 166.949219 66.878906 Z M 166.949219 108.042969 L 238.910156 108.042969 C 242.34375 108.042969 245.15625 110.792969 245.15625 114.289062 C 245.15625 117.726562 242.34375 120.539062 238.910156 120.539062 L 166.949219 120.539062 C 163.511719 120.539062 160.703125 117.726562 160.703125 114.289062 C 160.703125 110.792969 163.511719 108.042969 166.949219 108.042969 Z M 134.65625 161.640625 L 105.296875 161.640625 C 101.796875 161.640625 99.050781 158.828125 99.050781 155.394531 C 99.050781 151.957031 101.796875 149.144531 105.296875 149.144531 L 134.65625 149.144531 C 138.089844 149.144531 140.902344 151.957031 140.902344 155.394531 C 140.902344 158.828125 138.089844 161.640625 134.65625 161.640625 Z M 134.65625 120.539062 L 105.296875 120.539062 C 101.796875 120.539062 99.050781 117.726562 99.050781 114.289062 C 99.050781 110.792969 101.796875 108.042969 105.296875 108.042969 L 134.65625 108.042969 C 138.089844 108.042969 140.902344 110.792969 140.902344 114.289062 C 140.902344 117.726562 138.089844 120.539062 134.65625 120.539062 Z M 134.65625 79.371094 L 105.296875 79.371094 C 101.796875 79.371094 99.050781 76.625 99.050781 73.125 C 99.050781 69.691406 101.796875 66.878906 105.296875 66.878906 L 134.65625 66.878906 C 138.089844 66.878906 140.902344 69.691406 140.902344 73.125 C 140.902344 76.625 138.089844 79.371094 134.65625 79.371094 Z M 166.949219 161.640625 C 163.511719 161.640625 160.703125 158.828125 160.703125 155.394531 C 160.703125 151.957031 163.511719 149.144531 166.949219 149.144531 L 238.910156 149.144531 C 242.34375 149.144531 245.15625 151.957031 245.15625 155.394531 C 245.15625 158.828125 242.34375 161.640625 238.910156 161.640625 Z M 314.867188 255.585938 C 314.867188 286.132812 290.003906 310.992188 259.460938 310.992188 C 228.914062 310.992188 204.054688 286.132812 204.054688 255.585938 C 204.054688 225.042969 228.914062 200.179688 259.460938 200.179688 C 290.003906 200.179688 314.867188 225.042969 314.867188 255.585938 Z M 314.867188 255.585938 " fill-opacity="1" fill-rule="nonzero"/></g><path fill="#d9d9d9" d="M 253.199219 232.101562 L 253.199219 254.488281 L 242.5625 254.488281 C 239.113281 254.488281 236.316406 257.285156 236.316406 260.734375 C 236.316406 264.183594 239.113281 266.980469 242.5625 266.980469 L 259.449219 266.980469 C 262.894531 266.980469 265.695312 264.183594 265.695312 260.734375 L 265.695312 232.101562 C 265.695312 228.652344 262.894531 225.855469 259.449219 225.855469 C 256 225.855469 253.199219 228.652344 253.199219 232.101562 Z M 253.199219 232.101562 " fill-opacity="1" fill-rule="nonzero"/><path fill="#d9d9d9" d="M 105.277344 374.894531 L 136.109375 374.894531 C 139.558594 374.894531 142.355469 372.097656 142.355469 368.648438 L 142.355469 333.78125 L 177.222656 333.78125 C 180.671875 333.78125 183.472656 330.980469 183.472656 327.535156 L 183.472656 296.703125 C 183.472656 293.253906 180.671875 290.453125 177.222656 290.453125 L 142.355469 290.453125 L 142.355469 255.585938 C 142.355469 252.140625 139.558594 249.339844 136.109375 249.339844 L 105.277344 249.339844 C 101.828125 249.339844 99.03125 252.140625 99.03125 255.585938 L 99.03125 290.453125 L 64.164062 290.453125 C 60.714844 290.453125 57.917969 293.253906 57.917969 296.703125 L 57.917969 327.535156 C 57.917969 330.980469 60.714844 333.78125 64.164062 333.78125 L 99.03125 333.78125 L 99.03125 368.648438 C 99.03125 372.097656 101.828125 374.894531 105.277344 374.894531 Z M 70.410156 321.289062 L 70.410156 302.949219 L 105.277344 302.949219 C 108.726562 302.949219 111.523438 300.148438 111.523438 296.703125 L 111.523438 261.832031 L 129.863281 261.832031 L 129.863281 296.703125 C 129.863281 300.148438 132.660156 302.949219 136.109375 302.949219 L 170.976562 302.949219 L 170.976562 321.289062 L 136.109375 321.289062 C 132.660156 321.289062 129.863281 324.085938 129.863281 327.535156 L 129.863281 362.402344 L 111.523438 362.402344 L 111.523438 327.535156 C 111.523438 324.085938 108.726562 321.289062 105.277344 321.289062 Z M 70.410156 321.289062 " fill-opacity="1" fill-rule="nonzero"/></svg>