<svg xmlns="http://www.w3.org/2000/svg" xmlns:xlink="http://www.w3.org/1999/xlink" width="500" zoomAndPan="magnify" viewBox="0 0 375 374.999991" height="500" preserveAspectRatio="xMidYMid meet" version="1.0"><path fill="#d9d9d9" d="M 85.472656 102.734375 C 85.472656 101.054688 85.515625 99.378906 85.601562 97.703125 C 85.683594 96.027344 85.808594 94.351562 85.976562 92.683594 C 86.140625 91.015625 86.347656 89.347656 86.59375 87.691406 C 86.84375 86.03125 87.132812 84.378906 87.460938 82.730469 C 87.789062 81.085938 88.15625 79.449219 88.566406 77.824219 C 88.976562 76.195312 89.421875 74.578125 89.910156 72.972656 C 90.398438 71.367188 90.925781 69.773438 91.492188 68.195312 C 92.058594 66.617188 92.664062 65.050781 93.304688 63.5 C 93.949219 61.949219 94.628906 60.417969 95.347656 58.902344 C 96.066406 57.382812 96.820312 55.886719 97.613281 54.40625 C 98.402344 52.925781 99.230469 51.46875 100.09375 50.027344 C 100.957031 48.589844 101.855469 47.171875 102.789062 45.777344 C 103.71875 44.382812 104.6875 43.011719 105.6875 41.664062 C 106.683594 40.316406 107.71875 38.992188 108.78125 37.695312 C 109.847656 36.398438 110.941406 35.128906 112.070312 33.886719 C 113.195312 32.644531 114.351562 31.429688 115.539062 30.242188 C 116.726562 29.054688 117.941406 27.898438 119.183594 26.769531 C 120.425781 25.644531 121.695312 24.546875 122.992188 23.484375 C 124.289062 22.417969 125.613281 21.386719 126.960938 20.386719 C 128.308594 19.386719 129.679688 18.417969 131.074219 17.488281 C 132.46875 16.554688 133.886719 15.65625 135.324219 14.792969 C 136.761719 13.929688 138.222656 13.101562 139.703125 12.308594 C 141.179688 11.519531 142.679688 10.765625 144.195312 10.046875 C 145.710938 9.328125 147.246094 8.648438 148.796875 8.003906 C 150.34375 7.359375 151.910156 6.753906 153.488281 6.1875 C 155.070312 5.621094 156.660156 5.09375 158.265625 4.605469 C 159.871094 4.117188 161.488281 3.671875 163.117188 3.261719 C 164.742188 2.851562 166.378906 2.484375 168.023438 2.152344 C 169.671875 1.824219 171.324219 1.535156 172.984375 1.289062 C 174.640625 1.042969 176.308594 0.835938 177.976562 0.667969 C 179.648438 0.5 181.320312 0.375 182.996094 0.292969 C 184.671875 0.207031 186.347656 0.164062 188.027344 0.164062 C 323.578125 4.957031 323.84375 200.078125 188.375 205.285156 C 186.691406 205.289062 185.011719 205.253906 183.332031 205.171875 C 181.652344 205.09375 179.976562 204.976562 178.300781 204.8125 C 176.628906 204.652344 174.957031 204.453125 173.296875 204.207031 C 171.632812 203.964844 169.972656 203.683594 168.324219 203.359375 C 166.675781 203.03125 165.035156 202.667969 163.402344 202.261719 C 161.769531 201.859375 160.148438 201.414062 158.539062 200.929688 C 156.929688 200.445312 155.332031 199.921875 153.746094 199.355469 C 152.160156 198.792969 150.59375 198.191406 149.039062 197.550781 C 147.484375 196.910156 145.945312 196.234375 144.421875 195.515625 C 142.902344 194.800781 141.398438 194.046875 139.914062 193.257812 C 138.429688 192.46875 136.964844 191.644531 135.519531 190.78125 C 134.078125 189.921875 132.65625 189.023438 131.253906 188.089844 C 129.855469 187.160156 128.480469 186.195312 127.125 185.195312 C 125.773438 184.195312 124.449219 183.164062 123.144531 182.101562 C 121.84375 181.035156 120.570312 179.941406 119.320312 178.8125 C 118.074219 177.6875 116.855469 176.527344 115.664062 175.339844 C 114.472656 174.15625 113.308594 172.9375 112.179688 171.695312 C 111.046875 170.449219 109.949219 169.179688 108.878906 167.882812 C 107.808594 166.582031 106.773438 165.261719 105.769531 163.910156 C 104.765625 162.5625 103.796875 161.1875 102.859375 159.792969 C 101.921875 158.394531 101.023438 156.976562 100.15625 155.535156 C 99.289062 154.09375 98.457031 152.632812 97.664062 151.152344 C 96.867188 149.667969 96.109375 148.167969 95.390625 146.648438 C 94.667969 145.132812 93.984375 143.59375 93.339844 142.042969 C 92.695312 140.488281 92.085938 138.921875 91.519531 137.339844 C 90.949219 135.757812 90.421875 134.160156 89.929688 132.554688 C 89.441406 130.945312 88.988281 129.324219 88.578125 127.695312 C 88.167969 126.0625 87.796875 124.425781 87.46875 122.777344 C 87.136719 121.125 86.847656 119.472656 86.601562 117.808594 C 86.351562 116.144531 86.144531 114.476562 85.976562 112.804688 C 85.808594 111.128906 85.683594 109.453125 85.601562 107.773438 C 85.515625 106.09375 85.472656 104.414062 85.472656 102.734375 Z M 291.828125 205.332031 C 291.148438 204.917969 290.441406 204.550781 289.710938 204.234375 C 288.976562 203.921875 288.226562 203.660156 287.457031 203.453125 C 286.6875 203.246094 285.90625 203.09375 285.117188 203 C 284.324219 202.90625 283.53125 202.867188 282.734375 202.886719 C 281.9375 202.90625 281.148438 202.984375 280.363281 203.117188 C 279.574219 203.25 278.804688 203.441406 278.046875 203.6875 C 277.285156 203.929688 276.550781 204.226562 275.835938 204.578125 C 275.117188 204.929688 274.433594 205.328125 273.773438 205.777344 C 272.246094 207.019531 270.695312 208.226562 269.117188 209.398438 C 267.539062 210.570312 265.933594 211.710938 264.308594 212.8125 C 262.679688 213.917969 261.027344 214.984375 259.355469 216.019531 C 257.679688 217.050781 255.988281 218.046875 254.269531 219.007812 C 252.554688 219.964844 250.816406 220.886719 249.0625 221.773438 C 247.304688 222.65625 245.53125 223.503906 243.738281 224.3125 C 241.945312 225.121094 240.136719 225.890625 238.308594 226.621094 C 236.484375 227.351562 234.640625 228.042969 232.785156 228.695312 C 230.929688 229.34375 229.0625 229.957031 227.179688 230.527344 C 225.296875 231.097656 223.40625 231.628906 221.5 232.117188 C 219.59375 232.605469 217.679688 233.054688 215.757812 233.460938 C 213.832031 233.867188 211.902344 234.234375 209.960938 234.554688 C 208.019531 234.878906 206.074219 235.160156 204.125 235.402344 C 202.171875 235.640625 200.214844 235.839844 198.253906 235.992188 C 196.292969 236.148438 194.332031 236.261719 192.367188 236.332031 C 190.402344 236.402344 188.433594 236.433594 186.46875 236.417969 C 184.5 236.40625 182.535156 236.347656 180.570312 236.25 C 178.609375 236.152344 176.648438 236.011719 174.6875 235.828125 C 172.730469 235.644531 170.777344 235.421875 168.828125 235.152344 C 166.878906 234.886719 164.9375 234.578125 163.003906 234.226562 C 161.070312 233.875 159.140625 233.484375 157.222656 233.050781 C 155.304688 232.617188 153.398438 232.140625 151.5 231.625 C 149.601562 231.109375 147.714844 230.554688 145.84375 229.957031 C 143.96875 229.359375 142.109375 228.722656 140.261719 228.042969 C 138.417969 227.367188 136.585938 226.652344 134.769531 225.894531 C 132.953125 225.136719 131.15625 224.34375 129.375 223.511719 C 127.59375 222.675781 125.832031 221.804688 124.085938 220.894531 C 122.34375 219.984375 120.621094 219.039062 118.917969 218.054688 C 117.214844 217.074219 115.535156 216.050781 113.875 214.996094 C 112.214844 213.941406 110.582031 212.847656 108.96875 211.722656 C 107.355469 210.597656 105.769531 209.433594 104.207031 208.242188 C 102.644531 207.046875 101.109375 205.816406 99.601562 204.554688 C 98.460938 204.03125 97.277344 203.652344 96.046875 203.417969 C 94.816406 203.183594 93.574219 203.097656 92.320312 203.164062 C 91.070312 203.226562 89.84375 203.441406 88.644531 203.804688 C 87.445312 204.167969 86.308594 204.671875 85.230469 205.3125 C 82.078125 207.40625 78.992188 209.597656 75.976562 211.886719 C 72.960938 214.171875 70.015625 216.550781 67.144531 219.015625 C 64.277344 221.484375 61.484375 224.039062 58.769531 226.679688 C 56.058594 229.316406 53.429688 232.039062 50.882812 234.839844 C 48.339844 237.644531 45.882812 240.519531 43.515625 243.472656 C 41.144531 246.425781 38.871094 249.449219 36.6875 252.542969 C 34.507812 255.636719 32.421875 258.792969 30.4375 262.015625 C 28.449219 265.238281 26.5625 268.515625 24.777344 271.855469 C 22.992188 275.195312 21.3125 278.582031 19.734375 282.023438 C 18.160156 285.464844 16.691406 288.953125 15.328125 292.484375 C 13.96875 296.015625 12.714844 299.589844 11.574219 303.195312 C 10.433594 306.804688 9.40625 310.445312 8.488281 314.121094 C 7.570312 317.792969 6.765625 321.488281 6.078125 325.210938 C 5.390625 328.933594 4.816406 332.671875 4.355469 336.429688 C 3.898438 340.1875 3.554688 343.957031 3.328125 347.734375 C 3.101562 351.511719 2.992188 355.296875 2.996094 359.082031 C 2.996094 360.113281 3.097656 361.140625 3.296875 362.15625 C 3.5 363.167969 3.796875 364.15625 4.195312 365.113281 C 4.589844 366.066406 5.074219 366.976562 5.648438 367.835938 C 6.226562 368.695312 6.878906 369.492188 7.609375 370.222656 C 8.339844 370.957031 9.136719 371.609375 9.996094 372.183594 C 10.859375 372.757812 11.765625 373.242188 12.722656 373.640625 C 13.679688 374.035156 14.664062 374.335938 15.679688 374.535156 C 16.695312 374.738281 17.71875 374.835938 18.753906 374.835938 L 357.820312 374.835938 C 358.855469 374.835938 359.882812 374.738281 360.894531 374.535156 C 361.910156 374.335938 362.898438 374.035156 363.851562 373.640625 C 364.808594 373.242188 365.71875 372.757812 366.578125 372.183594 C 367.4375 371.609375 368.234375 370.957031 368.964844 370.222656 C 369.699219 369.492188 370.351562 368.695312 370.925781 367.835938 C 371.5 366.976562 371.984375 366.066406 372.382812 365.113281 C 372.777344 364.15625 373.074219 363.167969 373.277344 362.15625 C 373.476562 361.140625 373.578125 360.113281 373.578125 359.082031 C 373.574219 355.304688 373.457031 351.53125 373.222656 347.761719 C 372.992188 343.992188 372.644531 340.230469 372.179688 336.484375 C 371.71875 332.734375 371.144531 329.003906 370.453125 325.289062 C 369.761719 321.578125 368.960938 317.886719 368.046875 314.222656 C 367.128906 310.558594 366.105469 306.925781 364.96875 303.324219 C 363.832031 299.722656 362.585938 296.15625 361.230469 292.632812 C 359.875 289.105469 358.417969 285.625 356.851562 282.1875 C 355.28125 278.75 353.613281 275.367188 351.839844 272.03125 C 350.066406 268.695312 348.195312 265.417969 346.21875 262.199219 C 344.246094 258.976562 342.175781 255.820312 340.011719 252.726562 C 337.847656 249.632812 335.585938 246.605469 333.238281 243.648438 C 330.886719 240.691406 328.449219 237.8125 325.921875 235.003906 C 323.394531 232.195312 320.785156 229.46875 318.09375 226.820312 C 315.402344 224.171875 312.628906 221.605469 309.78125 219.128906 C 306.929688 216.648438 304.007812 214.257812 301.015625 211.957031 C 298.019531 209.65625 294.957031 207.449219 291.828125 205.332031 Z M 291.828125 205.332031 " fill-opacity="1" fill-rule="nonzero"/></svg>