<svg xmlns="http://www.w3.org/2000/svg" xmlns:xlink="http://www.w3.org/1999/xlink" width="500" zoomAndPan="magnify" viewBox="0 0 375 374.999991" height="500" preserveAspectRatio="xMidYMid meet" version="1.0"><defs><clipPath id="29283e9016"><path d="M 184 15.9375 L 350 15.9375 L 350 182 L 184 182 Z M 184 15.9375 " clip-rule="nonzero"/></clipPath><clipPath id="bf722bde7c"><path d="M 37.5 84.234375 L 128.25 84.234375 L 128.25 174.984375 L 37.5 174.984375 Z M 37.5 84.234375 " clip-rule="nonzero"/></clipPath></defs><path fill="#fccf1e" d="M 85.382812 242.054688 L 84.746094 235.0625 C 84.957031 235.0625 201.90625 226.164062 218.855469 271.082031 L 219.066406 271.082031 C 219.066406 271.082031 228.8125 297.5625 188.136719 305.613281 C 171.820312 308.792969 158.261719 314.089844 150.636719 320.019531 C 147.882812 322.351562 146.1875 324.46875 145.550781 326.589844 C 144.914062 328.285156 145.339844 330.191406 146.820312 332.097656 C 149.363281 335.488281 154.871094 338.664062 163.984375 342.054688 C 174.578125 345.867188 191.949219 349.257812 219.703125 350.742188 C 242.160156 351.800781 271.398438 348.199219 309.535156 346.082031 L 309.957031 353.070312 C 271.609375 355.402344 242.160156 359.003906 219.28125 357.945312 C 190.679688 356.25 172.667969 352.648438 161.441406 348.835938 C 151.058594 345.019531 144.492188 340.785156 141.101562 336.546875 C 138.136719 332.519531 137.5 328.496094 138.558594 324.683594 C 139.617188 321.082031 142.371094 317.480469 146.1875 314.511719 C 154.660156 307.734375 169.492188 302.011719 186.652344 298.621094 C 218.433594 292.265625 212.5 274.257812 212.289062 273.410156 C 197.246094 233.792969 85.59375 242.054688 85.382812 242.054688 Z M 85.382812 242.054688 " fill-opacity="1" fill-rule="evenodd"/><path fill="#d73d3f" d="M 140.464844 81.671875 C 170.761719 111.121094 170.761719 159.214844 140.464844 188.664062 L 85.382812 242.054688 L 30.296875 188.664062 C 0 159.214844 0 111.121094 30.296875 81.671875 C 60.59375 52.222656 110.167969 52.222656 140.464844 81.671875 Z M 140.464844 81.671875 " fill-opacity="1" fill-rule="evenodd"/><path fill="#ffffff" d="M 126.90625 131.039062 C 126.90625 132.355469 126.839844 133.671875 126.707031 134.984375 C 126.574219 136.296875 126.375 137.597656 126.109375 138.890625 C 125.84375 140.183594 125.511719 141.460938 125.117188 142.722656 C 124.722656 143.984375 124.265625 145.226562 123.746094 146.441406 C 123.226562 147.660156 122.644531 148.851562 122.003906 150.015625 C 121.363281 151.175781 120.664062 152.304688 119.910156 153.402344 C 119.152344 154.5 118.34375 155.554688 117.480469 156.574219 C 116.617188 157.59375 115.707031 158.570312 114.746094 159.503906 C 113.78125 160.433594 112.777344 161.320312 111.726562 162.15625 C 110.671875 162.992188 109.582031 163.777344 108.453125 164.507812 C 107.320312 165.242188 106.15625 165.917969 104.957031 166.539062 C 103.757812 167.160156 102.527344 167.722656 101.273438 168.226562 C 100.015625 168.734375 98.738281 169.175781 97.433594 169.558594 C 96.132812 169.941406 94.816406 170.261719 93.484375 170.519531 C 92.148438 170.777344 90.804688 170.96875 89.453125 171.097656 C 88.097656 171.226562 86.742188 171.292969 85.382812 171.292969 C 84.019531 171.292969 82.664062 171.226562 81.3125 171.097656 C 79.957031 170.96875 78.613281 170.777344 77.28125 170.519531 C 75.945312 170.261719 74.628906 169.941406 73.328125 169.558594 C 72.027344 169.175781 70.746094 168.734375 69.492188 168.226562 C 68.234375 167.722656 67.003906 167.160156 65.804688 166.539062 C 64.605469 165.917969 63.441406 165.242188 62.3125 164.507812 C 61.179688 163.777344 60.089844 162.992188 59.039062 162.15625 C 57.988281 161.320312 56.980469 160.433594 56.019531 159.503906 C 55.058594 158.570312 54.144531 157.59375 53.28125 156.574219 C 52.417969 155.554688 51.609375 154.5 50.855469 153.402344 C 50.097656 152.304688 49.398438 151.175781 48.757812 150.015625 C 48.117188 148.851562 47.539062 147.660156 47.015625 146.441406 C 46.496094 145.226562 46.039062 143.984375 45.644531 142.722656 C 45.25 141.460938 44.917969 140.183594 44.652344 138.890625 C 44.386719 137.597656 44.1875 136.296875 44.054688 134.984375 C 43.921875 133.671875 43.855469 132.355469 43.855469 131.039062 C 43.855469 129.71875 43.921875 128.40625 44.054688 127.09375 C 44.1875 125.78125 44.386719 124.476562 44.652344 123.183594 C 44.917969 121.890625 45.25 120.613281 45.644531 119.351562 C 46.039062 118.089844 46.496094 116.851562 47.015625 115.632812 C 47.539062 114.414062 48.117188 113.226562 48.757812 112.0625 C 49.398438 110.898438 50.097656 109.769531 50.855469 108.675781 C 51.609375 107.578125 52.417969 106.519531 53.28125 105.5 C 54.144531 104.480469 55.058594 103.507812 56.019531 102.574219 C 56.980469 101.640625 57.988281 100.757812 59.039062 99.921875 C 60.089844 99.085938 61.179688 98.300781 62.3125 97.566406 C 63.441406 96.835938 64.605469 96.160156 65.804688 95.535156 C 67.003906 94.914062 68.234375 94.351562 69.492188 93.847656 C 70.746094 93.34375 72.027344 92.898438 73.328125 92.515625 C 74.628906 92.132812 75.945312 91.816406 77.28125 91.558594 C 78.613281 91.300781 79.957031 91.105469 81.3125 90.976562 C 82.664062 90.847656 84.019531 90.785156 85.382812 90.785156 C 86.742188 90.785156 88.097656 90.847656 89.453125 90.976562 C 90.804688 91.105469 92.148438 91.300781 93.484375 91.558594 C 94.816406 91.816406 96.132812 92.132812 97.433594 92.515625 C 98.738281 92.898438 100.015625 93.34375 101.273438 93.847656 C 102.527344 94.351562 103.757812 94.914062 104.957031 95.535156 C 106.15625 96.160156 107.320312 96.835938 108.453125 97.566406 C 109.582031 98.300781 110.671875 99.085938 111.726562 99.921875 C 112.777344 100.757812 113.78125 101.640625 114.746094 102.574219 C 115.707031 103.507812 116.617188 104.480469 117.480469 105.5 C 118.34375 106.519531 119.152344 107.578125 119.910156 108.675781 C 120.664062 109.769531 121.363281 110.898438 122.003906 112.0625 C 122.644531 113.226562 123.226562 114.414062 123.746094 115.632812 C 124.265625 116.851562 124.722656 118.089844 125.117188 119.351562 C 125.511719 120.613281 125.84375 121.890625 126.109375 123.183594 C 126.375 124.476562 126.574219 125.78125 126.707031 127.09375 C 126.839844 128.40625 126.90625 129.71875 126.90625 131.039062 Z M 126.90625 131.039062 " fill-opacity="1" fill-rule="nonzero"/><path fill="#d73d3f" d="M 351.90625 231.039062 C 375 253.285156 375 289.9375 351.90625 312.394531 L 309.957031 353.070312 L 268.007812 312.394531 C 245.128906 289.9375 245.128906 253.285156 268.007812 231.039062 C 291.101562 208.582031 328.8125 208.582031 351.90625 231.039062 Z M 351.90625 231.039062 " fill-opacity="1" fill-rule="evenodd"/><path fill="#ffffff" d="M 341.527344 268.539062 C 341.527344 269.542969 341.476562 270.546875 341.375 271.550781 C 341.273438 272.550781 341.121094 273.542969 340.917969 274.53125 C 340.71875 275.519531 340.464844 276.492188 340.167969 277.457031 C 339.867188 278.417969 339.519531 279.363281 339.121094 280.292969 C 338.726562 281.222656 338.285156 282.132812 337.796875 283.019531 C 337.308594 283.90625 336.78125 284.769531 336.207031 285.605469 C 335.628906 286.441406 335.015625 287.25 334.359375 288.027344 C 333.703125 288.804688 333.011719 289.550781 332.28125 290.261719 C 331.546875 290.972656 330.785156 291.648438 329.984375 292.285156 C 329.183594 292.921875 328.355469 293.523438 327.496094 294.082031 C 326.636719 294.640625 325.75 295.15625 324.839844 295.632812 C 323.925781 296.105469 322.992188 296.535156 322.039062 296.921875 C 321.082031 297.304688 320.109375 297.644531 319.121094 297.9375 C 318.132812 298.226562 317.128906 298.472656 316.117188 298.667969 C 315.101562 298.863281 314.082031 299.011719 313.050781 299.109375 C 312.023438 299.210938 310.992188 299.257812 309.957031 299.257812 C 308.921875 299.257812 307.890625 299.210938 306.863281 299.109375 C 305.835938 299.011719 304.8125 298.863281 303.800781 298.667969 C 302.785156 298.472656 301.785156 298.226562 300.792969 297.9375 C 299.804688 297.644531 298.832031 297.304688 297.878906 296.921875 C 296.921875 296.535156 295.988281 296.105469 295.078125 295.632812 C 294.164062 295.15625 293.277344 294.640625 292.417969 294.082031 C 291.558594 293.523438 290.730469 292.921875 289.929688 292.285156 C 289.132812 291.648438 288.367188 290.972656 287.636719 290.261719 C 286.90625 289.550781 286.210938 288.804688 285.554688 288.027344 C 284.898438 287.25 284.285156 286.441406 283.710938 285.605469 C 283.136719 284.769531 282.605469 283.90625 282.117188 283.019531 C 281.628906 282.132812 281.1875 281.222656 280.792969 280.292969 C 280.398438 279.363281 280.050781 278.417969 279.75 277.457031 C 279.449219 276.492188 279.199219 275.519531 278.996094 274.53125 C 278.792969 273.542969 278.644531 272.550781 278.542969 271.550781 C 278.441406 270.546875 278.390625 269.542969 278.390625 268.539062 C 278.390625 267.53125 278.441406 266.527344 278.542969 265.527344 C 278.644531 264.527344 278.792969 263.53125 278.996094 262.542969 C 279.199219 261.558594 279.449219 260.582031 279.75 259.621094 C 280.050781 258.65625 280.398438 257.710938 280.792969 256.78125 C 281.1875 255.851562 281.628906 254.945312 282.117188 254.054688 C 282.605469 253.167969 283.136719 252.308594 283.710938 251.472656 C 284.285156 250.632812 284.898438 249.828125 285.554688 249.050781 C 286.210938 248.273438 286.90625 247.527344 287.636719 246.816406 C 288.367188 246.105469 289.132812 245.429688 289.929688 244.789062 C 290.730469 244.152344 291.558594 243.554688 292.417969 242.996094 C 293.277344 242.4375 294.164062 241.917969 295.078125 241.445312 C 295.988281 240.972656 296.921875 240.542969 297.878906 240.15625 C 298.832031 239.769531 299.804688 239.433594 300.792969 239.140625 C 301.785156 238.847656 302.785156 238.605469 303.800781 238.40625 C 304.8125 238.210938 305.835938 238.0625 306.863281 237.964844 C 307.890625 237.867188 308.921875 237.816406 309.957031 237.816406 C 310.992188 237.816406 312.023438 237.867188 313.050781 237.964844 C 314.082031 238.0625 315.101562 238.210938 316.117188 238.40625 C 317.128906 238.605469 318.132812 238.847656 319.121094 239.140625 C 320.109375 239.433594 321.082031 239.769531 322.039062 240.15625 C 322.992188 240.542969 323.925781 240.972656 324.839844 241.445312 C 325.75 241.917969 326.636719 242.4375 327.496094 242.996094 C 328.355469 243.554688 329.183594 244.152344 329.984375 244.789062 C 330.785156 245.429688 331.546875 246.105469 332.28125 246.816406 C 333.011719 247.527344 333.703125 248.273438 334.359375 249.050781 C 335.015625 249.828125 335.628906 250.632812 336.207031 251.472656 C 336.78125 252.308594 337.3125 253.167969 337.796875 254.054688 C 338.285156 254.945312 338.726562 255.851562 339.121094 256.78125 C 339.519531 257.710938 339.867188 258.65625 340.167969 259.621094 C 340.464844 260.582031 340.71875 261.558594 340.917969 262.542969 C 341.121094 263.53125 341.273438 264.527344 341.375 265.527344 C 341.476562 266.527344 341.527344 267.53125 341.527344 268.539062 Z M 341.527344 268.539062 " fill-opacity="1" fill-rule="nonzero"/><g clip-path="url(#29283e9016)"><path fill="#7ed957" d="M 349.789062 98.621094 C 349.789062 99.976562 349.753906 101.328125 349.6875 102.675781 C 349.621094 104.027344 349.523438 105.375 349.390625 106.722656 C 349.257812 108.066406 349.09375 109.410156 348.894531 110.746094 C 348.695312 112.085938 348.464844 113.417969 348.199219 114.742188 C 347.9375 116.070312 347.640625 117.386719 347.3125 118.699219 C 346.984375 120.011719 346.621094 121.3125 346.230469 122.609375 C 345.835938 123.902344 345.414062 125.1875 344.957031 126.460938 C 344.503906 127.730469 344.015625 128.992188 343.5 130.242188 C 342.980469 131.492188 342.433594 132.726562 341.855469 133.949219 C 341.277344 135.171875 340.667969 136.378906 340.03125 137.574219 C 339.394531 138.765625 338.726562 139.941406 338.03125 141.101562 C 337.335938 142.261719 336.613281 143.402344 335.863281 144.527344 C 335.113281 145.652344 334.332031 146.757812 333.527344 147.84375 C 332.722656 148.929688 331.890625 149.996094 331.03125 151.039062 C 330.175781 152.085938 329.292969 153.109375 328.382812 154.113281 C 327.476562 155.113281 326.542969 156.09375 325.585938 157.050781 C 324.632812 158.003906 323.652344 158.9375 322.648438 159.84375 C 321.648438 160.753906 320.625 161.636719 319.578125 162.496094 C 318.535156 163.351562 317.46875 164.183594 316.382812 164.988281 C 315.296875 165.796875 314.191406 166.574219 313.066406 167.324219 C 311.941406 168.074219 310.800781 168.800781 309.640625 169.496094 C 308.480469 170.191406 307.304688 170.855469 306.109375 171.492188 C 304.917969 172.132812 303.710938 172.738281 302.488281 173.316406 C 301.265625 173.894531 300.03125 174.441406 298.78125 174.960938 C 297.53125 175.476562 296.269531 175.964844 294.996094 176.417969 C 293.722656 176.875 292.441406 177.300781 291.144531 177.691406 C 289.851562 178.085938 288.550781 178.445312 287.238281 178.773438 C 285.925781 179.101562 284.605469 179.398438 283.28125 179.664062 C 281.953125 179.925781 280.621094 180.15625 279.285156 180.355469 C 277.949219 180.554688 276.605469 180.71875 275.261719 180.851562 C 273.914062 180.984375 272.566406 181.085938 271.214844 181.152344 C 269.863281 181.21875 268.511719 181.25 267.160156 181.25 C 265.808594 181.25 264.457031 181.21875 263.105469 181.152344 C 261.757812 181.085938 260.40625 180.984375 259.0625 180.851562 C 257.714844 180.71875 256.375 180.554688 255.035156 180.355469 C 253.699219 180.15625 252.367188 179.925781 251.042969 179.664062 C 249.714844 179.398438 248.394531 179.101562 247.085938 178.773438 C 245.773438 178.445312 244.46875 178.085938 243.175781 177.691406 C 241.882812 177.300781 240.597656 176.875 239.324219 176.421875 C 238.050781 175.964844 236.789062 175.476562 235.539062 174.960938 C 234.292969 174.441406 233.054688 173.894531 231.832031 173.316406 C 230.609375 172.738281 229.402344 172.132812 228.210938 171.492188 C 227.019531 170.855469 225.84375 170.191406 224.683594 169.496094 C 223.523438 168.800781 222.378906 168.074219 221.253906 167.324219 C 220.132812 166.574219 219.027344 165.796875 217.941406 164.988281 C 216.855469 164.183594 215.789062 163.351562 214.742188 162.496094 C 213.699219 161.636719 212.675781 160.753906 211.671875 159.84375 C 210.671875 158.9375 209.691406 158.003906 208.734375 157.050781 C 207.777344 156.09375 206.847656 155.113281 205.9375 154.113281 C 205.03125 153.109375 204.148438 152.085938 203.289062 151.039062 C 202.429688 149.996094 201.601562 148.929688 200.792969 147.84375 C 199.988281 146.757812 199.210938 145.652344 198.460938 144.527344 C 197.707031 143.402344 196.984375 142.261719 196.289062 141.101562 C 195.59375 139.941406 194.929688 138.765625 194.289062 137.574219 C 193.652344 136.378906 193.046875 135.171875 192.46875 133.949219 C 191.890625 132.726562 191.339844 131.492188 190.824219 130.242188 C 190.304688 128.992188 189.820312 127.730469 189.363281 126.460938 C 188.910156 125.1875 188.484375 123.902344 188.089844 122.609375 C 187.699219 121.3125 187.339844 120.011719 187.011719 118.699219 C 186.679688 117.386719 186.386719 116.070312 186.121094 114.742188 C 185.859375 113.417969 185.625 112.085938 185.429688 110.746094 C 185.230469 109.410156 185.0625 108.066406 184.933594 106.722656 C 184.800781 105.375 184.699219 104.027344 184.632812 102.675781 C 184.566406 101.328125 184.535156 99.976562 184.535156 98.621094 C 184.535156 97.269531 184.566406 95.917969 184.632812 94.570312 C 184.699219 93.21875 184.800781 91.871094 184.933594 90.523438 C 185.0625 89.179688 185.230469 87.835938 185.429688 86.5 C 185.625 85.160156 185.859375 83.828125 186.121094 82.503906 C 186.386719 81.175781 186.679688 79.859375 187.011719 78.546875 C 187.339844 77.234375 187.699219 75.929688 188.089844 74.636719 C 188.484375 73.34375 188.910156 72.058594 189.363281 70.785156 C 189.820312 69.511719 190.304688 68.253906 190.824219 67.003906 C 191.339844 65.753906 191.890625 64.519531 192.46875 63.296875 C 193.046875 62.074219 193.652344 60.867188 194.289062 59.671875 C 194.929688 58.480469 195.59375 57.304688 196.289062 56.144531 C 196.984375 54.984375 197.707031 53.84375 198.460938 52.71875 C 199.210938 51.59375 199.988281 50.488281 200.792969 49.402344 C 201.601562 48.316406 202.429688 47.25 203.289062 46.203125 C 204.148438 45.160156 205.03125 44.136719 205.9375 43.132812 C 206.847656 42.132812 207.777344 41.152344 208.734375 40.195312 C 209.691406 39.242188 210.671875 38.308594 211.671875 37.398438 C 212.675781 36.492188 213.699219 35.609375 214.742188 34.75 C 215.789062 33.894531 216.855469 33.0625 217.941406 32.257812 C 219.027344 31.449219 220.132812 30.671875 221.253906 29.921875 C 222.378906 29.167969 223.523438 28.445312 224.683594 27.75 C 225.84375 27.054688 227.019531 26.390625 228.210938 25.753906 C 229.402344 25.113281 230.609375 24.507812 231.832031 23.929688 C 233.054688 23.351562 234.292969 22.804688 235.539062 22.285156 C 236.789062 21.769531 238.050781 21.28125 239.324219 20.824219 C 240.597656 20.371094 241.882812 19.945312 243.175781 19.554688 C 244.46875 19.160156 245.773438 18.800781 247.085938 18.472656 C 248.394531 18.144531 249.714844 17.847656 251.042969 17.582031 C 252.367188 17.320312 253.699219 17.089844 255.035156 16.890625 C 256.375 16.691406 257.714844 16.527344 259.0625 16.394531 C 260.40625 16.261719 261.757812 16.160156 263.105469 16.09375 C 264.457031 16.027344 265.808594 15.996094 267.160156 15.996094 C 268.511719 15.996094 269.863281 16.027344 271.214844 16.09375 C 272.566406 16.160156 273.914062 16.261719 275.261719 16.394531 C 276.605469 16.527344 277.949219 16.691406 279.285156 16.890625 C 280.621094 17.089844 281.953125 17.320312 283.28125 17.582031 C 284.605469 17.847656 285.925781 18.144531 287.238281 18.472656 C 288.550781 18.800781 289.851562 19.160156 291.144531 19.554688 C 292.441406 19.945312 293.722656 20.371094 294.996094 20.824219 C 296.269531 21.28125 297.53125 21.769531 298.78125 22.285156 C 300.03125 22.804688 301.265625 23.351562 302.488281 23.929688 C 303.710938 24.507812 304.917969 25.113281 306.109375 25.753906 C 307.304688 26.390625 308.480469 27.054688 309.640625 27.75 C 310.800781 28.445312 311.941406 29.167969 313.066406 29.921875 C 314.191406 30.671875 315.296875 31.449219 316.382812 32.257812 C 317.46875 33.0625 318.535156 33.894531 319.578125 34.75 C 320.625 35.609375 321.648438 36.492188 322.648438 37.398438 C 323.652344 38.308594 324.632812 39.242188 325.585938 40.195312 C 326.542969 41.152344 327.476562 42.132812 328.382812 43.132812 C 329.292969 44.136719 330.175781 45.160156 331.03125 46.203125 C 331.890625 47.25 332.722656 48.316406 333.527344 49.402344 C 334.332031 50.488281 335.113281 51.59375 335.863281 52.71875 C 336.613281 53.84375 337.335938 54.984375 338.03125 56.144531 C 338.726562 57.304688 339.394531 58.480469 340.03125 59.671875 C 340.667969 60.867188 341.277344 62.074219 341.855469 63.296875 C 342.433594 64.519531 342.980469 65.753906 343.5 67.003906 C 344.015625 68.253906 344.503906 69.511719 344.957031 70.785156 C 345.414062 72.058594 345.835938 73.34375 346.230469 74.636719 C 346.621094 75.929688 346.984375 77.234375 347.3125 78.546875 C 347.640625 79.859375 347.9375 81.175781 348.199219 82.503906 C 348.464844 83.828125 348.695312 85.160156 348.894531 86.5 C 349.09375 87.835938 349.257812 89.179688 349.390625 90.523438 C 349.523438 91.871094 349.621094 93.21875 349.6875 94.570312 C 349.753906 95.917969 349.789062 97.269531 349.789062 98.621094 Z M 349.789062 98.621094 " fill-opacity="1" fill-rule="nonzero"/></g><path fill="#ffffff" d="M 267.160156 56.25 L 306.992188 140.785156 L 267.160156 122.5625 L 227.542969 140.785156 Z M 267.160156 56.25 " fill-opacity="1" fill-rule="evenodd"/><path fill="#c1ff72" d="M 298.09375 45.019531 C 296.398438 43.960938 295.972656 41.84375 296.820312 39.9375 C 297.882812 38.242188 300 37.816406 301.695312 38.664062 C 309.746094 43.328125 316.527344 49.257812 322.035156 56.460938 C 327.542969 63.664062 331.566406 71.714844 333.898438 80.613281 C 334.535156 82.519531 333.261719 84.640625 331.355469 85.0625 C 329.449219 85.488281 327.542969 84.429688 326.90625 82.519531 C 324.789062 74.683594 321.1875 67.265625 316.3125 60.910156 C 311.441406 54.554688 305.296875 49.046875 298.09375 45.019531 Z M 298.09375 45.019531 " fill-opacity="1" fill-rule="evenodd"/><g clip-path="url(#bf722bde7c)"><path fill="#000000" d="M 82.875 84.234375 C 107.933594 84.234375 128.25 104.546875 128.25 129.609375 C 128.25 154.667969 107.933594 174.984375 82.875 174.984375 C 57.816406 174.984375 37.5 154.667969 37.5 129.609375 C 37.5 104.546875 57.816406 84.234375 82.875 84.234375 Z M 82.875 84.234375 " fill-opacity="1" fill-rule="evenodd"/></g></svg>