<svg xmlns="http://www.w3.org/2000/svg" xmlns:xlink="http://www.w3.org/1999/xlink" width="500" zoomAndPan="magnify" viewBox="0 0 375 374.999991" height="500" preserveAspectRatio="xMidYMid meet" version="1.0"><defs><clipPath id="43a1895b81"><path d="M 50 64.957031 L 325 64.957031 L 325 310 L 50 310 Z M 50 64.957031 " clip-rule="nonzero"/></clipPath></defs><g clip-path="url(#43a1895b81)"><path fill="#2f9e44" d="M 324.042969 140.03125 C 324.042969 98.421875 290.3125 64.691406 248.710938 64.691406 C 223.453125 64.691406 201.167969 77.160156 187.496094 96.214844 C 173.820312 77.160156 151.535156 64.691406 126.289062 64.691406 C 84.679688 64.691406 50.949219 98.414062 50.949219 140.03125 C 50.949219 145.925781 51.695312 151.636719 52.980469 157.140625 C 63.4375 222.132812 135.703125 290.703125 187.496094 309.527344 C 239.28125 290.703125 311.550781 222.132812 321.996094 157.148438 C 323.292969 151.644531 324.042969 145.933594 324.042969 140.03125 Z M 324.042969 140.03125 " fill-opacity="1" fill-rule="nonzero"/></g></svg>