<svg xmlns="http://www.w3.org/2000/svg" xmlns:xlink="http://www.w3.org/1999/xlink" width="398" zoomAndPan="magnify" viewBox="0 0 298.5 103.5" height="138" preserveAspectRatio="xMidYMid meet" version="1.0"><defs><g/><clipPath id="54b0d1fcec"><path d="M 0.46875 27.265625 L 93.769531 27.265625 L 93.769531 86 L 0.46875 86 Z M 0.46875 27.265625 " clip-rule="nonzero"/></clipPath><clipPath id="fc5e7ec9e0"><path d="M 1 28 L 93.769531 28 L 93.769531 81 L 1 81 Z M 1 28 " clip-rule="nonzero"/></clipPath><clipPath id="9f2b0021ad"><path d="M 43 4 L 96 4 L 96 48 L 43 48 Z M 43 4 " clip-rule="nonzero"/></clipPath><clipPath id="c4678356fe"><path d="M 49.027344 50.300781 L 42.253906 42.339844 L 91.707031 0.257812 L 98.480469 8.214844 Z M 49.027344 50.300781 " clip-rule="nonzero"/></clipPath><clipPath id="08e5f328cd"><path d="M 49.027344 50.300781 L 42.253906 42.339844 L 91.707031 0.257812 L 98.480469 8.214844 Z M 49.027344 50.300781 " clip-rule="nonzero"/></clipPath><clipPath id="d0f49d3d26"><path d="M 45 24 L 95 24 L 95 48 L 45 48 Z M 45 24 " clip-rule="nonzero"/></clipPath><clipPath id="65e1db028d"><path d="M 48.445312 50.304688 L 45.023438 42.84375 L 92.507812 21.050781 L 95.933594 28.511719 Z M 48.445312 50.304688 " clip-rule="nonzero"/></clipPath><clipPath id="d424b5a040"><path d="M 48.445312 50.304688 L 45.023438 42.84375 L 92.507812 21.050781 L 95.933594 28.511719 Z M 48.445312 50.304688 " clip-rule="nonzero"/></clipPath><clipPath id="8243e7d8ff"><path d="M 46.648438 47.476562 L 46.871094 47.476562 L 46.871094 47.683594 L 46.648438 47.683594 Z M 46.648438 47.476562 " clip-rule="nonzero"/></clipPath><clipPath id="01f22e6a34"><path d="M 46.859375 47.628906 C 46.4375 47.769531 46.8125 47.488281 46.8125 47.488281 " clip-rule="nonzero"/></clipPath><clipPath id="32cca67722"><path d="M 43.738281 44.945312 L 51.5 44.945312 L 51.5 46.644531 L 43.738281 46.644531 Z M 43.738281 44.945312 " clip-rule="nonzero"/></clipPath><clipPath id="d69ddc1b70"><path d="M 43.816406 45.804688 C 50.789062 45.898438 50.742188 46.222656 50.695312 46.222656 C 50.648438 46.269531 50.414062 46.082031 50.414062 45.992188 C 50.414062 45.757812 51.445312 44.914062 51.492188 44.960938 C 51.539062 45.007812 51.210938 45.945312 50.695312 46.222656 C 49.574219 46.832031 44.238281 46.691406 43.816406 46.222656 C 43.675781 46.128906 43.816406 45.804688 43.816406 45.804688 " clip-rule="nonzero"/></clipPath><clipPath id="9921c2a4bc"><path d="M 43.484375 44.746094 L 53.445312 44.746094 L 53.445312 46.832031 L 43.484375 46.832031 Z M 43.484375 44.746094 " clip-rule="nonzero"/></clipPath><clipPath id="a3e364575b"><path d="M 43.582031 45.289062 C 53.503906 44.960938 53.457031 45.242188 53.363281 45.289062 C 53.222656 45.429688 52.101562 44.914062 52.054688 45.054688 C 52.007812 45.148438 52.757812 45.570312 52.757812 45.757812 C 52.757812 45.945312 52.570312 46.082031 52.289062 46.175781 C 51.304688 46.597656 45.3125 47.113281 44.75 46.644531 C 44.65625 46.550781 44.609375 46.363281 44.703125 46.269531 C 45.078125 45.804688 51.164062 45.476562 51.679688 45.898438 C 51.773438 45.992188 51.726562 46.316406 51.726562 46.316406 C 51.726562 46.316406 51.726562 45.898438 51.726562 45.898438 C 51.726562 45.898438 51.867188 46.175781 51.773438 46.269531 C 51.632812 46.503906 50.507812 46.597656 49.808594 46.644531 C 49.152344 46.738281 48.496094 46.691406 47.746094 46.691406 C 46.8125 46.691406 44.984375 46.925781 44.703125 46.644531 C 44.609375 46.550781 44.609375 46.363281 44.703125 46.269531 C 45.171875 45.757812 51.960938 46.410156 52.382812 45.757812 C 52.523438 45.570312 52.007812 45.148438 52.101562 45.007812 C 52.242188 44.820312 53.222656 44.679688 53.363281 44.820312 C 53.457031 44.914062 53.457031 45.195312 53.316406 45.289062 C 52.710938 45.851562 46.953125 45.617188 45.265625 45.664062 C 44.46875 45.710938 43.722656 45.898438 43.535156 45.710938 C 43.441406 45.617188 43.582031 45.289062 43.582031 45.289062 " clip-rule="nonzero"/></clipPath><clipPath id="1c9e54b30a"><path d="M 45.351562 44.660156 L 51.769531 44.660156 L 51.769531 45.621094 L 45.351562 45.621094 Z M 45.351562 44.660156 " clip-rule="nonzero"/></clipPath><clipPath id="3b7effa473"><path d="M 51.679688 45.617188 C 46.390625 45.570312 45.546875 45.476562 45.40625 45.289062 C 45.3125 45.148438 45.5 44.867188 45.5 44.867188 C 45.5 44.867188 45.359375 45.242188 45.359375 45.242188 C 45.359375 45.242188 45.3125 44.960938 45.453125 44.867188 C 46.015625 44.445312 51.351562 44.773438 51.726562 45.195312 C 51.820312 45.335938 51.679688 45.617188 51.679688 45.617188 " clip-rule="nonzero"/></clipPath><clipPath id="9836acacc8"><path d="M 43.691406 44.199219 L 54.601562 44.199219 L 54.601562 45.519531 L 43.691406 45.519531 Z M 43.691406 44.199219 " clip-rule="nonzero"/></clipPath><clipPath id="68b843050a"><path d="M 43.816406 44.914062 C 54.675781 44.304688 54.582031 44.679688 54.582031 44.679688 C 54.582031 44.679688 54.535156 44.210938 54.488281 44.210938 C 54.488281 44.210938 54.675781 44.539062 54.535156 44.679688 C 54.066406 45.242188 49.339844 45.289062 47.324219 45.382812 C 45.921875 45.429688 44.003906 45.664062 43.722656 45.382812 C 43.628906 45.242188 43.816406 44.914062 43.816406 44.914062 " clip-rule="nonzero"/></clipPath><clipPath id="863667f609"><path d="M 42.910156 45.191406 L 51.441406 45.191406 L 51.441406 46.613281 L 42.910156 46.613281 Z M 42.910156 45.191406 " clip-rule="nonzero"/></clipPath><clipPath id="a95da80fe2"><path d="M 43.160156 46.035156 C 46.578125 46.128906 48.636719 45.429688 49.761719 45.289062 C 50.460938 45.242188 51.210938 45.101562 51.398438 45.289062 C 51.492188 45.382812 51.398438 45.710938 51.351562 45.710938 C 51.351562 45.710938 51.351562 45.289062 51.351562 45.289062 C 51.398438 45.289062 51.492188 45.570312 51.398438 45.710938 C 51.070312 46.082031 48.308594 46.316406 46.90625 46.457031 C 45.6875 46.597656 44.144531 46.644531 43.488281 46.550781 C 43.207031 46.503906 42.972656 46.457031 42.925781 46.363281 C 42.925781 46.269531 43.160156 46.035156 43.160156 46.035156 " clip-rule="nonzero"/></clipPath><clipPath id="8bb894dbfb"><path d="M 44.398438 44.972656 L 48.726562 44.972656 L 48.726562 46.183594 L 44.398438 46.183594 Z M 44.398438 44.972656 " clip-rule="nonzero"/></clipPath><clipPath id="990b14a020"><path d="M 44.425781 45.617188 C 47.652344 45.007812 48.449219 44.867188 48.636719 45.054688 C 48.730469 45.148438 48.730469 45.382812 48.636719 45.476562 C 48.261719 45.898438 44.890625 46.363281 44.515625 46.082031 C 44.378906 45.945312 44.425781 45.617188 44.425781 45.617188 " clip-rule="nonzero"/></clipPath><clipPath id="6d868fb1a9"><path d="M 44.753906 46.496094 L 50.332031 46.496094 L 50.332031 47.429688 L 44.753906 47.429688 Z M 44.753906 46.496094 " clip-rule="nonzero"/></clipPath><clipPath id="0146633d64"><path d="M 44.890625 46.785156 C 50.414062 46.597656 50.320312 46.972656 50.273438 46.972656 C 50.273438 46.972656 50.179688 46.503906 50.179688 46.503906 C 50.179688 46.503906 50.367188 46.832031 50.320312 46.972656 C 50.089844 47.300781 47.792969 47.394531 46.8125 47.394531 C 46.015625 47.441406 44.9375 47.441406 44.796875 47.253906 C 44.703125 47.113281 44.890625 46.785156 44.890625 46.785156 " clip-rule="nonzero"/></clipPath><clipPath id="07af4942d7"><path d="M 45.925781 46.355469 L 50.25 46.355469 L 50.25 47.195312 L 45.925781 47.195312 Z M 45.925781 46.355469 " clip-rule="nonzero"/></clipPath><clipPath id="9b7d43d5b0"><path d="M 46.015625 46.644531 C 50.273438 46.175781 50.320312 46.410156 50.226562 46.550781 C 50.042969 46.832031 48.777344 46.925781 48.074219 47.019531 C 47.371094 47.113281 46.15625 47.300781 45.96875 47.113281 C 45.875 47.019531 46.015625 46.644531 46.015625 46.644531 " clip-rule="nonzero"/></clipPath><clipPath id="c90d8023f0"><path d="M 50.777344 45.144531 L 52.289062 45.144531 L 52.289062 45.648438 L 50.777344 45.648438 Z M 50.777344 45.144531 " clip-rule="nonzero"/></clipPath><clipPath id="4b68abe32f"><path d="M 52.242188 45.617188 C 49.105469 45.804688 51.960938 44.960938 52.242188 45.195312 C 52.335938 45.289062 52.242188 45.617188 52.242188 45.617188 " clip-rule="nonzero"/></clipPath><clipPath id="1c7bffb340"><path d="M 50.007812 45.367188 L 51.308594 45.367188 L 51.308594 45.910156 L 50.007812 45.910156 Z M 50.007812 45.367188 " clip-rule="nonzero"/></clipPath><clipPath id="bf135bd3e2"><path d="M 50.089844 45.382812 C 52.710938 45.570312 50.320312 46.082031 50.089844 45.851562 C 49.949219 45.757812 50.089844 45.382812 50.089844 45.382812 " clip-rule="nonzero"/></clipPath><clipPath id="5d79633104"><path d="M 47.890625 45.355469 L 53.191406 45.355469 L 53.191406 46.519531 L 47.890625 46.519531 Z M 47.890625 45.355469 " clip-rule="nonzero"/></clipPath><clipPath id="e78f8cb260"><path d="M 47.980469 45.898438 C 52.242188 45.757812 52.757812 45.289062 52.988281 45.382812 C 53.082031 45.429688 53.128906 45.804688 53.128906 45.804688 C 53.128906 45.804688 52.945312 45.382812 52.945312 45.382812 C 52.945312 45.382812 53.222656 45.664062 53.175781 45.804688 C 53.082031 46.035156 52.335938 46.222656 51.726562 46.363281 C 50.742188 46.503906 48.214844 46.644531 47.933594 46.316406 C 47.839844 46.222656 47.980469 45.898438 47.980469 45.898438 " clip-rule="nonzero"/></clipPath><clipPath id="2ca676322a"><path d="M 43.449219 44.234375 L 54.988281 44.234375 L 54.988281 45.667969 L 43.449219 45.667969 Z M 43.449219 44.234375 " clip-rule="nonzero"/></clipPath><clipPath id="efc02f8369"><path d="M 54.863281 44.820312 C 43.441406 45.523438 43.535156 45.148438 43.535156 45.148438 C 43.535156 45.148438 43.628906 45.664062 43.628906 45.664062 C 43.628906 45.664062 43.394531 45.335938 43.488281 45.195312 C 43.957031 44.539062 50.695312 44.445312 52.710938 44.351562 C 53.691406 44.304688 54.722656 44.117188 54.957031 44.351562 C 55.050781 44.445312 54.863281 44.820312 54.863281 44.820312 " clip-rule="nonzero"/></clipPath><clipPath id="1d43b81b78"><path d="M 48 48.082031 L 49.179688 48.082031 L 49.179688 48.644531 L 48 48.644531 Z M 48 48.082031 " clip-rule="nonzero"/></clipPath><clipPath id="62609082ec"><path d="M 48.074219 48.097656 C 50.414062 48.425781 48.308594 48.800781 48.074219 48.566406 C 47.933594 48.472656 48.074219 48.097656 48.074219 48.097656 " clip-rule="nonzero"/></clipPath><clipPath id="fc6c6e4be1"><path d="M 47.851562 47.8125 L 49.296875 47.8125 L 49.296875 48.460938 L 47.851562 48.460938 Z M 47.851562 47.8125 " clip-rule="nonzero"/></clipPath><clipPath id="7eacec1e07"><path d="M 47.933594 47.816406 C 50.882812 48.519531 48.121094 48.566406 47.886719 48.285156 C 47.792969 48.191406 47.933594 47.816406 47.933594 47.816406 " clip-rule="nonzero"/></clipPath><clipPath id="a645b4d1b6"><path d="M 19.730469 58.195312 L 19.953125 58.195312 L 19.953125 58.355469 L 19.730469 58.355469 Z M 19.730469 58.195312 " clip-rule="nonzero"/></clipPath><clipPath id="109bc9f3d5"><path d="M 19.941406 58.300781 C 19.519531 58.441406 19.894531 58.207031 19.894531 58.207031 " clip-rule="nonzero"/></clipPath><clipPath id="923ba83b34"><path d="M 20 3 L 44 3 L 44 39.632812 L 20 39.632812 Z M 20 3 " clip-rule="nonzero"/></clipPath><clipPath id="d7db97f837"><path d="M 20 2.3125 L 44 2.3125 L 44 39.632812 L 20 39.632812 Z M 20 2.3125 " clip-rule="nonzero"/></clipPath></defs><g clip-path="url(#54b0d1fcec)"><path fill="#000000" d="M 93.429688 38.378906 C 93 38.832031 92.957031 39.320312 92.910156 39.894531 C 92.738281 41.84375 92.550781 43.792969 92.25 45.726562 C 91.40625 51.078125 89.878906 56.230469 87.726562 61.199219 C 84.972656 67.550781 80.816406 72.714844 74.972656 76.472656 C 74.710938 76.640625 74.5625 76.832031 74.480469 77.152344 C 74.140625 78.503906 73.34375 79.570312 72.230469 80.390625 C 70.4375 81.710938 68.394531 82.519531 66.289062 83.1875 C 62.933594 84.253906 59.5 84.964844 56 85.335938 C 54.214844 85.53125 52.421875 85.699219 50.632812 85.808594 C 47.0625 86.023438 43.503906 85.875 39.941406 85.511719 C 36.386719 85.148438 32.878906 84.550781 29.449219 83.535156 C 28.195312 83.167969 26.976562 82.660156 25.738281 82.222656 C 24.023438 81.617188 23.097656 80.273438 22.484375 78.675781 C 22.347656 78.316406 22.179688 78.09375 21.859375 77.914062 C 15.988281 74.546875 11.597656 69.78125 8.53125 63.765625 C 5.535156 57.898438 3.464844 51.722656 2.398438 45.214844 C 2.214844 44.078125 2.097656 42.929688 1.929688 41.792969 C 1.898438 41.605469 1.777344 41.390625 1.636719 41.265625 C 0.667969 40.398438 0.484375 39.15625 1.339844 37.839844 C 1.648438 37.375 2.03125 36.945312 2.4375 36.5625 C 3.488281 35.582031 4.710938 34.871094 6.019531 34.289062 C 8.058594 33.375 10.191406 32.765625 12.34375 32.207031 C 17.328125 30.917969 22.363281 29.859375 27.46875 29.183594 C 31.027344 28.714844 34.605469 28.335938 38.179688 27.996094 C 42.960938 27.535156 47.761719 27.332031 52.71875 27.355469 C 57.054688 27.285156 61.53125 27.519531 66 27.886719 C 72.660156 28.433594 79.261719 29.394531 85.703125 31.242188 C 87.367188 31.71875 89.105469 32.042969 90.589844 33.015625 C 91.347656 33.515625 92.105469 34.046875 92.757812 34.664062 C 93.191406 35.074219 93.519531 35.640625 93.757812 36.191406 C 94.085938 36.949219 94.007812 37.757812 93.429688 38.378906 Z M 93.429688 38.378906 " fill-opacity="1" fill-rule="nonzero"/></g><g clip-path="url(#fc5e7ec9e0)"><path fill="#65b741" d="M 92.066406 39.460938 C 92.140625 38.910156 92.269531 38.433594 92.640625 38.003906 C 93.113281 37.457031 93.117188 36.820312 92.78125 36.203125 C 92.617188 35.898438 92.414062 35.605469 92.175781 35.355469 C 91.097656 34.230469 89.785156 33.386719 88.320312 32.945312 C 85.910156 32.21875 83.460938 31.613281 81.003906 31.066406 C 76.234375 30.003906 71.410156 29.285156 66.535156 28.933594 C 62.898438 28.675781 59.253906 28.4375 55.605469 28.335938 C 50.503906 28.195312 45.40625 28.394531 40.316406 28.757812 C 36.171875 29.054688 32.042969 29.496094 27.914062 30.042969 C 22.328125 30.789062 16.824219 31.925781 11.359375 33.300781 C 8.867188 33.929688 6.492188 34.777344 4.351562 36.222656 C 3.457031 36.828125 2.601562 37.476562 2.046875 38.429688 C 1.546875 39.289062 1.589844 39.894531 2.230469 40.636719 C 2.523438 40.976562 2.6875 41.332031 2.761719 41.777344 C 3.257812 44.738281 3.71875 47.707031 4.496094 50.613281 C 5.996094 56.246094 8.082031 61.636719 11.214844 66.566406 C 12.464844 68.53125 13.871094 70.308594 15.425781 71.902344 C 26.113281 79.863281 40.644531 81.316406 53.917969 80.191406 C 60.371094 79.652344 66.730469 78.578125 72.46875 75.082031 C 78.355469 71.476562 83.015625 66.683594 86.695312 61.214844 C 88.726562 56.804688 90.121094 52.167969 90.984375 47.355469 C 91.457031 44.742188 91.734375 42.09375 92.066406 39.460938 Z M 4.511719 38.003906 C 5.382812 36.621094 6.679688 35.746094 8.171875 35.253906 C 9.949219 34.671875 11.777344 34.226562 13.605469 33.832031 C 17.21875 33.046875 20.832031 32.265625 24.472656 31.632812 C 27.21875 31.15625 30 30.875 32.765625 30.574219 C 39.582031 29.84375 46.421875 29.707031 54.929688 29.585938 C 57.582031 29.675781 61.90625 29.710938 66.214844 29.988281 C 71.648438 30.335938 77.070312 30.863281 82.394531 32.054688 C 84.164062 32.449219 85.894531 33.046875 87.605469 33.664062 C 88.292969 33.910156 88.941406 34.371094 89.484375 34.863281 C 90.632812 35.902344 90.558594 36.882812 89.300781 37.773438 C 88.738281 38.171875 88.109375 38.496094 87.472656 38.777344 C 85.425781 39.675781 83.261719 40.210938 81.09375 40.699219 C 76.726562 41.679688 72.316406 42.460938 67.871094 42.980469 C 63.984375 43.433594 60.089844 43.871094 56.191406 44.210938 C 53.121094 44.476562 50.035156 44.636719 46.953125 44.753906 C 43.359375 44.898438 39.765625 45.007812 36.171875 45.023438 C 31.742188 45.039062 27.320312 44.800781 22.902344 44.457031 C 19.746094 44.210938 16.605469 43.882812 13.488281 43.289062 C 11.433594 42.898438 9.398438 42.410156 7.488281 41.523438 C 6.785156 41.195312 6.105469 40.808594 5.449219 40.398438 C 5.113281 40.191406 4.804688 39.90625 4.554688 39.601562 C 4.070312 38.992188 4.085938 38.675781 4.511719 38.003906 Z M 90.421875 40.410156 C 89.816406 40.746094 89.21875 41.121094 88.574219 41.367188 C 84.832031 42.785156 80.980469 43.839844 77.046875 44.566406 C 73.625 45.199219 70.1875 45.792969 66.738281 46.285156 C 64.058594 46.671875 61.359375 46.933594 58.664062 47.160156 C 55.136719 47.460938 51.605469 47.753906 48.066406 47.890625 C 44.367188 48.039062 40.664062 48.042969 36.960938 48.03125 C 34.628906 48.023438 32.289062 47.933594 29.960938 47.78125 C 27.101562 47.59375 24.238281 47.359375 21.386719 47.03125 C 18.648438 46.71875 15.914062 46.316406 13.191406 45.859375 C 10.332031 45.378906 7.535156 44.636719 4.871094 43.449219 C 4.636719 43.347656 4.40625 43.238281 4.171875 43.136719 C 4.195312 43.070312 4.21875 43.003906 4.242188 42.941406 C 4.644531 42.800781 5.011719 42.996094 5.367188 43.140625 C 7.898438 44.121094 10.503906 44.84375 13.175781 45.308594 C 15.523438 45.714844 17.882812 46.097656 20.25 46.363281 C 23.527344 46.730469 26.8125 47.019531 30.101562 47.265625 C 32.160156 47.417969 34.230469 47.5 36.292969 47.492188 C 40.777344 47.476562 45.257812 47.457031 49.734375 47.292969 C 53.003906 47.171875 56.265625 46.875 59.519531 46.558594 C 62.855469 46.234375 66.1875 45.875 69.5 45.386719 C 75.816406 44.460938 82.074219 43.238281 88.097656 41.046875 C 88.847656 40.773438 89.558594 40.382812 90.289062 40.054688 C 90.398438 40.003906 90.515625 39.96875 90.707031 40.023438 C 90.625 40.152344 90.550781 40.335938 90.421875 40.410156 Z M 90.421875 40.410156 " fill-opacity="1" fill-rule="nonzero"/></g><path fill="#ededed" d="M 72.472656 75.078125 C 66.738281 78.574219 60.375 79.648438 53.921875 80.1875 C 40.648438 81.3125 26.117188 79.863281 15.429688 71.898438 C 18.691406 75.242188 22.621094 77.773438 27.191406 79.5 C 27.640625 79.671875 28.097656 79.820312 28.550781 79.996094 C 28.796875 80.089844 29.070312 80.195312 28.953125 80.59375 C 28.863281 80.613281 28.753906 80.675781 28.664062 80.648438 C 26.875 80.1875 25.128906 79.617188 23.304688 78.730469 C 23.867188 79.929688 24.511719 80.773438 25.644531 81.140625 C 26.074219 81.28125 26.480469 81.5 26.90625 81.664062 C 32.113281 83.6875 37.570312 84.457031 43.09375 84.851562 C 47.039062 85.132812 50.976562 85.003906 54.90625 84.570312 C 58.429688 84.175781 61.914062 83.589844 65.320312 82.589844 C 67.535156 81.9375 69.695312 81.140625 71.652344 79.878906 C 72.546875 79.296875 73.101562 78.445312 73.542969 77.492188 C 73.355469 77.5 73.21875 77.558594 73.078125 77.621094 C 71.648438 78.226562 70.21875 78.835938 68.789062 79.4375 C 68.527344 79.546875 68.242188 79.667969 68.015625 79.359375 C 68.136719 78.929688 68.511719 78.867188 68.820312 78.722656 C 69.96875 78.199219 71.160156 77.757812 72.253906 77.144531 C 77.652344 74.101562 82.015625 69.980469 85.023438 64.523438 C 85.625 63.433594 86.179688 62.324219 86.695312 61.207031 C 83.015625 66.679688 78.355469 71.476562 72.472656 75.078125 Z M 66.210938 80.605469 C 62.652344 81.847656 59.003906 82.628906 55.242188 82.945312 C 51.140625 83.289062 47.042969 83.296875 42.945312 83.046875 C 39.277344 82.824219 35.621094 82.503906 32.011719 81.78125 C 31.433594 81.664062 30.816406 81.582031 30.367188 81.007812 C 30.613281 81.023438 30.867188 81.011719 31.105469 81.054688 C 34.347656 81.65625 37.613281 82.0625 40.902344 82.328125 C 44.464844 82.617188 48.023438 82.675781 51.589844 82.609375 C 56.441406 82.523438 61.1875 81.761719 65.808594 80.257812 C 66.128906 80.15625 66.460938 80.085938 66.785156 80 C 66.8125 80.089844 66.847656 80.179688 66.875 80.273438 C 66.652344 80.386719 66.445312 80.523438 66.210938 80.605469 Z M 66.210938 80.605469 " fill-opacity="1" fill-rule="nonzero"/><path fill="#a8a8a8" d="M 89.171875 36.855469 C 88.660156 37.238281 88.097656 37.570312 87.519531 37.835938 C 85.738281 38.667969 83.835938 39.140625 81.933594 39.589844 C 77.734375 40.585938 73.488281 41.351562 69.203125 41.867188 C 67.90625 42.027344 66.605469 42.183594 65.3125 42.335938 C 69.753906 39.550781 73.460938 35.953125 76.699219 31.96875 C 78.792969 32.277344 80.878906 32.65625 82.945312 33.148438 C 84.347656 33.484375 85.722656 33.957031 87.089844 34.417969 C 87.90625 34.691406 88.652344 35.132812 89.234375 35.792969 C 89.652344 36.269531 89.667969 36.488281 89.171875 36.855469 Z M 15.828125 34.140625 C 13.832031 34.582031 11.84375 35.0625 9.863281 35.574219 C 8.488281 35.933594 7.253906 36.558594 6.148438 37.425781 C 5.699219 37.78125 5.339844 38.253906 4.882812 38.726562 C 5.214844 39 5.4375 39.234375 5.703125 39.394531 C 6.488281 39.859375 7.265625 40.34375 8.089844 40.71875 C 9.878906 41.535156 11.789062 41.976562 13.714844 42.339844 C 16.851562 42.933594 20.023438 43.257812 23.207031 43.507812 C 24.558594 43.613281 25.914062 43.703125 27.273438 43.78125 C 23.023438 41.226562 19.328125 37.722656 15.828125 34.140625 Z M 15.828125 34.140625 " fill-opacity="1" fill-rule="nonzero"/><path fill="#b3b3b3" d="M 65.3125 42.339844 C 62.320312 42.691406 59.328125 43.015625 56.332031 43.261719 C 49.726562 43.800781 43.105469 44.117188 36.472656 44.082031 C 33.402344 44.066406 30.335938 43.960938 27.273438 43.785156 C 23.023438 41.226562 19.328125 37.722656 15.828125 34.140625 C 18.355469 33.578125 20.894531 33.078125 23.449219 32.644531 C 27.894531 31.886719 32.367188 31.351562 36.863281 31.097656 C 41.660156 30.828125 46.460938 30.683594 51.261719 30.578125 C 56.335938 30.464844 61.410156 30.539062 66.46875 30.921875 C 69.890625 31.179688 73.308594 31.480469 76.699219 31.976562 C 73.460938 35.957031 69.75 39.554688 65.3125 42.339844 Z M 65.3125 42.339844 " fill-opacity="1" fill-rule="nonzero"/><g clip-path="url(#9f2b0021ad)"><g clip-path="url(#c4678356fe)"><g clip-path="url(#08e5f328cd)"><path fill="#ffb631" d="M 89.664062 15.695312 L 95.308594 4.003906 L 82.867188 7.703125 L 83.21875 13.667969 L 43.691406 44.03125 L 46.832031 47.71875 L 83.792969 14.382812 Z M 89.664062 15.695312 " fill-opacity="1" fill-rule="nonzero"/></g></g></g><g clip-path="url(#d0f49d3d26)"><g clip-path="url(#65e1db028d)"><g clip-path="url(#d424b5a040)"><path fill="#ffb631" d="M 87.339844 32.441406 L 94.238281 24.648438 L 83.832031 24.796875 L 82.804688 29.476562 L 45.695312 44.308594 L 47.316406 47.835938 L 83.089844 30.152344 Z M 87.339844 32.441406 " fill-opacity="1" fill-rule="nonzero"/></g></g></g><g clip-path="url(#8243e7d8ff)"><g clip-path="url(#01f22e6a34)"><path fill="#65b741" d="M 44.5625 45.617188 L 48.78125 45.617188 L 48.78125 49.6875 L 44.5625 49.6875 Z M 44.5625 45.617188 " fill-opacity="1" fill-rule="nonzero"/></g></g><path stroke-linecap="butt" transform="matrix(-0.746394, 0.0000000013027, -0.0000000013027, -0.746394, 48.428506, 48.025239)" fill="none" stroke-linejoin="miter" d="M -0.00158248 0.499596 L 3.107113 0.499596 " stroke="#000000" stroke-width="1" stroke-opacity="1" stroke-miterlimit="4"/><path stroke-linecap="butt" transform="matrix(0.745245, -0.0414039, 0.0414039, 0.745245, 43.422074, 44.025853)" fill="none" stroke-linejoin="miter" d="M -0.00182914 0.499847 L 18.092117 0.498719 " stroke="#000000" stroke-width="1" stroke-opacity="1" stroke-miterlimit="4"/><g clip-path="url(#32cca67722)"><g clip-path="url(#d69ddc1b70)"><path fill="#65b741" d="M 41.941406 43.089844 L 53.417969 43.089844 L 53.417969 48.144531 L 41.941406 48.144531 Z M 41.941406 43.089844 " fill-opacity="1" fill-rule="nonzero"/></g></g><g clip-path="url(#9921c2a4bc)"><g clip-path="url(#a3e364575b)"><path fill="#65b741" d="M 41.660156 42.949219 L 55.289062 42.949219 L 55.289062 48.566406 L 41.660156 48.566406 Z M 41.660156 42.949219 " fill-opacity="1" fill-rule="nonzero"/></g></g><g clip-path="url(#1c9e54b30a)"><g clip-path="url(#3b7effa473)"><path fill="#65b741" d="M 43.488281 42.996094 L 53.597656 42.996094 L 53.597656 47.535156 L 43.488281 47.535156 Z M 43.488281 42.996094 " fill-opacity="1" fill-rule="nonzero"/></g></g><g clip-path="url(#9836acacc8)"><g clip-path="url(#68b843050a)"><path fill="#65b741" d="M 41.847656 42.339844 L 56.464844 42.339844 L 56.464844 47.300781 L 41.847656 47.300781 Z M 41.847656 42.339844 " fill-opacity="1" fill-rule="nonzero"/></g></g><g clip-path="url(#863667f609)"><g clip-path="url(#a95da80fe2)"><path fill="#65b741" d="M 41.054688 43.414062 L 53.277344 43.414062 L 53.277344 48.472656 L 41.054688 48.472656 Z M 41.054688 43.414062 " fill-opacity="1" fill-rule="nonzero"/></g></g><g clip-path="url(#8bb894dbfb)"><g clip-path="url(#990b14a020)"><path fill="#65b741" d="M 42.550781 43.179688 L 50.515625 43.179688 L 50.515625 47.957031 L 42.550781 47.957031 Z M 42.550781 43.179688 " fill-opacity="1" fill-rule="nonzero"/></g></g><g clip-path="url(#6d868fb1a9)"><g clip-path="url(#0146633d64)"><path fill="#65b741" d="M 42.925781 44.632812 L 52.195312 44.632812 L 52.195312 49.3125 L 42.925781 49.3125 Z M 42.925781 44.632812 " fill-opacity="1" fill-rule="nonzero"/></g></g><g clip-path="url(#07af4942d7)"><g clip-path="url(#9b7d43d5b0)"><path fill="#65b741" d="M 44.097656 44.210938 L 52.097656 44.210938 L 52.097656 48.984375 L 44.097656 48.984375 Z M 44.097656 44.210938 " fill-opacity="1" fill-rule="nonzero"/></g></g><g clip-path="url(#c90d8023f0)"><g clip-path="url(#4b68abe32f)"><path fill="#65b741" d="M 47.234375 43.320312 L 54.164062 43.320312 L 54.164062 47.769531 L 47.234375 47.769531 Z M 47.234375 43.320312 " fill-opacity="1" fill-rule="nonzero"/></g></g><g clip-path="url(#1c7bffb340)"><g clip-path="url(#bf135bd3e2)"><path fill="#65b741" d="M 48.214844 43.507812 L 54.632812 43.507812 L 54.632812 47.722656 L 48.214844 47.722656 Z M 48.214844 43.507812 " fill-opacity="1" fill-rule="nonzero"/></g></g><g clip-path="url(#5d79633104)"><g clip-path="url(#e78f8cb260)"><path fill="#65b741" d="M 46.0625 43.507812 L 55.054688 43.507812 L 55.054688 48.238281 L 46.0625 48.238281 Z M 46.0625 43.507812 " fill-opacity="1" fill-rule="nonzero"/></g></g><g clip-path="url(#2ca676322a)"><g clip-path="url(#efc02f8369)"><path fill="#65b741" d="M 41.613281 42.480469 L 56.824219 42.480469 L 56.824219 47.582031 L 41.613281 47.582031 Z M 41.613281 42.480469 " fill-opacity="1" fill-rule="nonzero"/></g></g><g clip-path="url(#1d43b81b78)"><g clip-path="url(#62609082ec)"><path fill="#65b741" d="M 46.203125 46.222656 L 52.339844 46.222656 L 52.339844 50.4375 L 46.203125 50.4375 Z M 46.203125 46.222656 " fill-opacity="1" fill-rule="nonzero"/></g></g><g clip-path="url(#fc6c6e4be1)"><g clip-path="url(#7eacec1e07)"><path fill="#65b741" d="M 46.015625 45.945312 L 52.75 45.945312 L 52.75 50.296875 L 46.015625 50.296875 Z M 46.015625 45.945312 " fill-opacity="1" fill-rule="nonzero"/></g></g><g clip-path="url(#a645b4d1b6)"><g clip-path="url(#109bc9f3d5)"><path fill="#ffffff" d="M 17.648438 56.335938 L 21.863281 56.335938 L 21.863281 60.40625 L 17.648438 60.40625 Z M 17.648438 56.335938 " fill-opacity="1" fill-rule="nonzero"/></g></g><g clip-path="url(#923ba83b34)"><path fill="#ffb631" d="M 28.109375 39.304688 C 26.179688 38.191406 24.546875 36.660156 23.296875 34.929688 C 19.753906 30.019531 19.910156 24.035156 24.078125 19.496094 C 28.296875 14.90625 32.464844 9.417969 31.742188 3.15625 C 37.195312 11.207031 31.921875 17.253906 31.921875 17.253906 C 30.308594 20.039062 27.84375 22.3125 26.289062 25.132812 C 24.769531 27.917969 24.09375 31.023438 24.953125 34.078125 C 25.390625 35.636719 26.46875 38.363281 28.109375 39.304688 Z M 31.660156 35.078125 C 30.960938 32.613281 31.511719 30.101562 32.746094 27.851562 C 34 25.574219 35.992188 23.738281 37.289062 21.488281 C 37.289062 21.488281 41.554688 16.601562 37.148438 10.09375 C 37.730469 15.152344 34.363281 19.585938 30.957031 23.300781 C 27.589844 26.96875 27.464844 31.804688 30.324219 35.769531 C 31.335938 37.167969 32.648438 38.40625 34.214844 39.304688 C 32.886719 38.539062 32.015625 36.34375 31.660156 35.078125 Z M 41.957031 25.484375 C 41.957031 25.484375 45.261719 21.695312 41.84375 16.652344 C 42.296875 20.574219 39.683594 24.011719 37.039062 26.894531 C 34.421875 29.738281 34.328125 33.488281 36.546875 36.566406 C 37.328125 37.648438 38.351562 38.605469 39.5625 39.304688 C 38.53125 38.710938 37.863281 37.003906 37.582031 36.03125 C 37.039062 34.121094 37.460938 32.167969 38.417969 30.429688 C 39.394531 28.65625 40.945312 27.230469 41.957031 25.484375 Z M 41.957031 25.484375 " fill-opacity="1" fill-rule="nonzero"/></g><g clip-path="url(#d7db97f837)"><path fill="#000000" d="M 25.148438 34.015625 C 24.367188 31.269531 24.828125 28.222656 26.46875 25.230469 C 27.265625 23.78125 28.324219 22.453125 29.351562 21.167969 C 30.308594 19.964844 31.304688 18.71875 32.085938 17.371094 C 32.234375 17.195312 33.457031 15.703125 34.074219 13.273438 C 34.667969 10.933594 34.773438 7.265625 31.914062 3.039062 L 31.445312 2.347656 L 31.542969 3.179688 C 32.246094 9.351562 28.089844 14.824219 23.929688 19.355469 C 21.863281 21.597656 20.710938 24.265625 20.585938 27.066406 C 20.46875 29.820312 21.34375 32.582031 23.125 35.050781 C 24.441406 36.871094 26.128906 38.398438 28.007812 39.484375 L 28.214844 39.128906 C 26.789062 38.304688 25.695312 35.949219 25.148438 34.015625 Z M 23.460938 34.8125 C 19.886719 29.859375 20.179688 24.042969 24.226562 19.636719 C 28.273438 15.234375 32.308594 9.953125 32.015625 3.949219 C 34.335938 7.746094 34.222656 11.023438 33.6875 13.144531 C 33.070312 15.589844 31.785156 17.097656 31.773438 17.113281 L 31.75 17.140625 C 30.976562 18.472656 29.988281 19.703125 29.039062 20.90625 C 28 22.207031 26.929688 23.550781 26.121094 25.03125 C 24.417969 28.128906 23.953125 31.269531 24.761719 34.128906 C 24.945312 34.796875 25.503906 36.535156 26.445312 37.925781 C 25.324219 37.039062 24.308594 35.984375 23.460938 34.8125 Z M 31.863281 35.019531 C 31.238281 32.804688 31.601562 30.363281 32.921875 27.949219 C 33.5625 26.78125 34.417969 25.714844 35.25 24.671875 C 36.019531 23.699219 36.832031 22.699219 37.460938 21.605469 C 37.59375 21.449219 38.574219 20.238281 39.074219 18.277344 C 39.554688 16.382812 39.636719 13.398438 37.320312 9.980469 L 36.851562 9.292969 L 36.949219 10.125 C 37.519531 15.101562 34.164062 19.503906 30.808594 23.164062 C 29.136719 24.984375 28.199219 27.148438 28.101562 29.417969 C 28.007812 31.65625 28.71875 33.890625 30.160156 35.894531 C 31.222656 37.367188 32.589844 38.613281 34.113281 39.492188 L 34.320312 39.132812 C 33.175781 38.472656 32.300781 36.578125 31.863281 35.019531 Z M 30.488281 35.652344 C 27.613281 31.664062 27.851562 26.984375 31.105469 23.441406 C 34.34375 19.914062 37.574219 15.695312 37.410156 10.894531 C 39.191406 13.894531 39.09375 16.472656 38.671875 18.160156 C 38.183594 20.128906 37.140625 21.339844 37.136719 21.355469 L 37.113281 21.382812 C 36.488281 22.453125 35.695312 23.457031 34.921875 24.421875 C 34.082031 25.476562 33.214844 26.558594 32.558594 27.757812 C 31.183594 30.265625 30.800781 32.8125 31.460938 35.140625 C 31.601562 35.644531 32.011719 36.921875 32.691406 38.011719 C 31.875 37.324219 31.125 36.527344 30.488281 35.652344 Z M 42.015625 16.53125 L 41.546875 15.84375 L 41.644531 16.675781 C 42.082031 20.515625 39.488281 23.921875 36.890625 26.753906 C 35.589844 28.171875 34.855469 29.859375 34.78125 31.632812 C 34.707031 33.378906 35.253906 35.125 36.382812 36.683594 C 37.214844 37.835938 38.277344 38.800781 39.46875 39.484375 L 39.675781 39.128906 C 38.804688 38.621094 38.128906 37.167969 37.789062 35.96875 C 37.304688 34.261719 37.585938 32.382812 38.613281 30.519531 C 39.109375 29.621094 39.773438 28.789062 40.410156 27.984375 C 41.011719 27.230469 41.636719 26.449219 42.125 25.601562 C 42.238281 25.46875 43.003906 24.523438 43.382812 23.011719 C 43.753906 21.53125 43.820312 19.207031 42.015625 16.53125 Z M 42.988281 22.890625 C 42.609375 24.40625 41.808594 25.34375 41.800781 25.347656 L 41.777344 25.378906 C 41.292969 26.203125 40.675781 26.984375 40.082031 27.726562 C 39.429688 28.542969 38.753906 29.390625 38.25 30.320312 C 37.171875 32.273438 36.875 34.269531 37.394531 36.074219 C 37.5 36.429688 37.765625 37.285156 38.210938 38.074219 C 37.65625 37.589844 37.15625 37.039062 36.71875 36.429688 C 34.5 33.355469 34.683594 29.753906 37.195312 27.019531 C 39.675781 24.324219 42.148438 21.101562 42.105469 17.4375 C 43.136719 19.257812 43.433594 21.085938 42.988281 22.890625 Z M 42.988281 22.890625 " fill-opacity="1" fill-rule="nonzero"/></g><path stroke-linecap="butt" transform="matrix(0.737627, 0, 0, 0.737627, 97.495317, 35.596402)" fill="none" stroke-linejoin="miter" d="M 3.464438 21.311579 L 16.693086 21.311579 C 22.168835 21.311579 26.410688 22.376014 29.413347 24.510179 C 32.416007 26.639049 33.914688 29.625822 33.914688 33.470497 C 33.914688 35.885334 33.178587 37.998316 31.706383 39.809444 C 30.228884 41.625868 28.21652 43.023932 25.674586 44.003635 C 23.132652 44.978043 20.315342 45.459952 17.227951 45.459952 L 14.987872 45.459952 L 14.987872 58.000159 L 3.464438 58.000159 Z M 17.275612 38.051273 C 19.16088 38.051273 20.617196 37.664688 21.649857 36.880925 C 22.687813 36.102457 23.201496 34.963883 23.201496 33.470497 C 23.201496 31.97711 22.693109 30.859719 21.676336 30.113026 C 20.664858 29.366332 19.19795 28.990338 17.275612 28.990338 L 14.987872 28.990338 L 14.987872 37.950655 C 15.697495 38.019499 16.460075 38.051273 17.275612 38.051273 Z M 46.666724 58.42911 C 43.679951 58.42911 41.349845 57.47059 39.676405 55.553548 C 38.008261 53.625914 37.176837 51.009841 37.176837 47.700031 L 37.176837 31.283374 L 48.477852 31.283374 L 48.477852 47.23401 C 48.477852 48.049547 48.694975 48.679735 49.139814 49.119277 C 49.584652 49.564116 50.161883 49.786535 50.871506 49.786535 C 51.581129 49.786535 52.311935 49.569412 53.058628 49.145756 L 53.646451 56.554434 C 52.862688 57.163439 51.840618 57.624165 50.574947 57.947202 C 49.314572 58.27024 48.01183 58.42911 46.666724 58.42911 Z M 42.827344 27.285124 C 41.1592 27.285124 39.745249 26.76085 38.580196 25.712302 C 37.425735 24.658459 36.848504 23.371605 36.848504 21.841149 C 36.848504 20.315988 37.452213 19.03443 38.659632 18.001769 C 39.872346 16.969109 41.265114 16.455426 42.827344 16.455426 C 44.463714 16.455426 45.882961 16.984996 47.069197 18.054726 C 48.260728 19.124457 48.853846 20.384833 48.853846 21.841149 C 48.853846 23.403379 48.250137 24.700825 47.042718 25.738781 C 45.835299 26.771442 44.43194 27.285124 42.827344 27.285124 Z M 69.920123 58.42911 C 67.071039 58.42911 64.555584 57.85188 62.368461 56.697418 C 60.181339 55.542956 58.470829 53.917178 57.236932 51.814787 C 56.013627 49.712395 55.404622 47.334628 55.404622 44.665597 C 55.404622 42.107776 56.040105 39.782966 57.316368 37.691166 C 58.603222 35.588775 60.345506 33.936518 62.548515 32.729099 C 64.75682 31.511089 67.214023 30.90738 69.920123 30.90738 C 73.367621 30.90738 76.084313 31.617003 78.070199 33.041545 L 77.053426 40.137778 C 75.03047 39.528773 73.362326 39.226918 72.043697 39.226918 C 70.338483 39.226918 68.993377 39.714122 67.99249 40.693826 C 66.996899 41.668234 66.493808 42.992158 66.493808 44.665597 C 66.493808 46.344333 66.996899 47.678848 67.99249 48.679735 C 68.993377 49.664734 70.306709 50.162529 71.937784 50.162529 C 73.362326 50.162529 75.03047 49.860675 76.952807 49.25167 L 77.964285 56.723896 C 76.762162 57.32231 75.533561 57.756557 74.283777 58.026638 C 73.039288 58.296718 71.588268 58.42911 69.920123 58.42911 Z M 108.202708 58.42911 C 105.82494 58.42911 103.913194 58.116664 102.472765 57.491772 C 101.032336 56.86688 99.8461 55.828924 98.919353 54.377903 C 97.997902 52.921587 97.182365 50.840379 96.472742 48.128982 L 93.321803 50.644438 L 93.321803 58.000159 L 82.020788 58.000159 L 82.068449 22.857922 L 93.37476 21.205665 L 93.321803 39.444041 L 107.032359 28.238349 L 113.164775 36.621436 L 104.580452 42.584389 C 105.009403 45.290489 105.618408 47.181053 106.418058 48.245488 C 107.217708 49.304627 108.398648 49.834196 109.960879 49.834196 C 110.601658 49.834196 111.364238 49.733578 112.248619 49.52175 L 111.184184 58.259648 C 110.125045 58.370858 109.129454 58.42911 108.202708 58.42911 Z M 116.945901 21.311579 L 142.232848 21.311579 L 142.232848 29.419289 L 128.416378 29.419289 L 128.416378 36.827968 L 141.216075 36.827968 L 141.216075 43.548206 L 128.416378 43.548206 L 128.416378 58.000159 L 116.945901 58.000159 Z M 160.571843 58.42911 C 157.58507 58.42911 154.926631 57.841288 152.591229 56.67094 C 150.261123 55.489999 148.449995 53.864221 147.147254 51.788308 C 145.855104 49.7071 145.209029 47.313445 145.209029 44.617936 C 145.209029 41.917131 145.865696 39.523477 147.184324 37.442268 C 148.502952 35.355764 150.329967 33.745873 152.654777 32.612594 C 154.979588 31.474019 157.638027 30.90738 160.6248 30.90738 C 163.643346 30.90738 166.317672 31.484611 168.642483 32.639072 C 170.977885 33.793534 172.783717 35.403426 174.05998 37.468747 C 175.341538 39.534068 175.987613 41.917131 175.987613 44.617936 C 175.987613 47.350515 175.336242 49.760057 174.033501 51.841265 C 172.741351 53.922473 170.924928 55.542956 168.589526 56.697418 C 166.264715 57.85188 163.590389 58.42911 160.571843 58.42911 Z M 160.672461 50.422019 C 162.134073 50.422019 163.3309 49.881858 164.268238 48.806831 C 165.216168 47.721214 165.687485 46.32315 165.687485 44.617936 C 165.687485 42.907426 165.216168 41.509363 164.268238 40.423745 C 163.3309 39.338127 162.134073 38.797967 160.672461 38.797967 C 159.216144 38.797967 158.014022 39.338127 157.066092 40.423745 C 156.128754 41.509363 155.662733 42.907426 155.662733 44.617936 C 155.662733 46.32315 156.128754 47.721214 157.066092 48.806831 C 158.014022 49.881858 159.216144 50.422019 160.672461 50.422019 Z M 194.008865 58.42911 C 191.022093 58.42911 188.363654 57.841288 186.028252 56.67094 C 183.698146 55.489999 181.887018 53.864221 180.584277 51.788308 C 179.292127 49.7071 178.646052 47.313445 178.646052 44.617936 C 178.646052 41.917131 179.302718 39.523477 180.621347 37.442268 C 181.939975 35.355764 183.76699 33.745873 186.0918 32.612594 C 188.416611 31.474019 191.07505 30.90738 194.061822 30.90738 C 197.080369 30.90738 199.754695 31.484611 202.079506 32.639072 C 204.414907 33.793534 206.22074 35.403426 207.497002 37.468747 C 208.778561 39.534068 209.424635 41.917131 209.424635 44.617936 C 209.424635 47.350515 208.773265 49.760057 207.470524 51.841265 C 206.178374 53.922473 204.36195 55.542956 202.026549 56.697418 C 199.701738 57.85188 197.027412 58.42911 194.008865 58.42911 Z M 194.109483 50.422019 C 195.571095 50.422019 196.767923 49.881858 197.705261 48.806831 C 198.65319 47.721214 199.124507 46.32315 199.124507 44.617936 C 199.124507 42.907426 198.65319 41.509363 197.705261 40.423745 C 196.767923 39.338127 195.571095 38.797967 194.109483 38.797967 C 192.653167 38.797967 191.451044 39.338127 190.503115 40.423745 C 189.565777 41.509363 189.099755 42.907426 189.099755 44.617936 C 189.099755 46.32315 189.565777 47.721214 190.503115 48.806831 C 191.451044 49.881858 192.653167 50.422019 194.109483 50.422019 Z M 225.099895 58.42911 C 222.679762 58.42911 220.482048 57.793627 218.512049 56.517364 C 216.54205 55.23051 214.985116 53.530592 213.83595 51.412314 C 212.702671 49.294035 212.130736 47.043365 212.130736 44.665597 C 212.130736 42.13955 212.72915 39.825331 213.915385 37.712349 C 215.112213 35.599366 216.716808 33.936518 218.718581 32.729099 C 220.736241 31.511089 222.880998 30.90738 225.152852 30.90738 C 227.207582 30.90738 228.960457 31.336331 230.400886 32.194234 C 231.841315 33.046841 233.006368 34.41313 233.901341 36.293102 L 233.901341 22.857922 L 245.149399 21.205665 L 245.149399 58.000159 L 233.901341 58.000159 L 233.901341 53.038092 C 232.227901 56.63387 229.294086 58.42911 225.099895 58.42911 Z M 228.616237 50.003659 C 230.109623 50.003659 231.364703 49.474089 232.376181 48.404359 C 233.392954 47.334628 233.901341 46.090139 233.901341 44.665597 L 233.901341 44.459065 C 233.901341 43.071593 233.366476 41.86947 232.302041 40.852696 C 231.23231 39.835923 230.003709 39.327536 228.616237 39.327536 C 227.122851 39.327536 225.867771 39.85181 224.850997 40.905653 C 223.844815 41.954201 223.341724 43.209281 223.341724 44.665597 C 223.341724 46.158984 223.865998 47.424655 224.903954 48.457315 C 225.957797 49.489976 227.191695 50.003659 228.616237 50.003659 Z M 228.616237 50.003659 " stroke="#7d4c00" stroke-width="3.999998" stroke-opacity="1" stroke-miterlimit="4"/><g fill="#ffbd59" fill-opacity="1"><g transform="translate(97.495317, 78.378789)"><g><path d="M 2.5625 -27.0625 L 12.3125 -27.0625 C 16.351562 -27.0625 19.476562 -26.273438 21.6875 -24.703125 C 23.90625 -23.128906 25.015625 -20.925781 25.015625 -18.09375 C 25.015625 -16.3125 24.46875 -14.75 23.375 -13.40625 C 22.289062 -12.070312 20.8125 -11.046875 18.9375 -10.328125 C 17.0625 -9.609375 14.984375 -9.25 12.703125 -9.25 L 11.0625 -9.25 L 11.0625 0 L 2.5625 0 Z M 12.75 -14.71875 C 14.132812 -14.71875 15.207031 -15.003906 15.96875 -15.578125 C 16.726562 -16.160156 17.109375 -17 17.109375 -18.09375 C 17.109375 -19.195312 16.734375 -20.023438 15.984375 -20.578125 C 15.242188 -21.128906 14.164062 -21.40625 12.75 -21.40625 L 11.0625 -21.40625 L 11.0625 -14.796875 C 11.582031 -14.742188 12.144531 -14.71875 12.75 -14.71875 Z M 12.75 -14.71875 "/></g></g></g><g fill="#ffbd59" fill-opacity="1"><g transform="translate(123.024521, 78.378789)"><g><path d="M 8.890625 0.3125 C 6.691406 0.3125 4.972656 -0.394531 3.734375 -1.8125 C 2.503906 -3.226562 1.890625 -5.15625 1.890625 -7.59375 L 1.890625 -19.71875 L 10.234375 -19.71875 L 10.234375 -7.953125 C 10.234375 -7.347656 10.394531 -6.878906 10.71875 -6.546875 C 11.050781 -6.222656 11.476562 -6.0625 12 -6.0625 C 12.519531 -6.0625 13.054688 -6.21875 13.609375 -6.53125 L 14.046875 -1.0625 C 13.472656 -0.613281 12.71875 -0.269531 11.78125 -0.03125 C 10.851562 0.195312 9.890625 0.3125 8.890625 0.3125 Z M 6.0625 -22.65625 C 4.820312 -22.65625 3.773438 -23.039062 2.921875 -23.8125 C 2.078125 -24.59375 1.65625 -25.546875 1.65625 -26.671875 C 1.65625 -27.796875 2.097656 -28.738281 2.984375 -29.5 C 3.878906 -30.269531 4.90625 -30.65625 6.0625 -30.65625 C 7.257812 -30.65625 8.296875 -30.257812 9.171875 -29.46875 C 10.054688 -28.675781 10.5 -27.742188 10.5 -26.671875 C 10.5 -25.515625 10.050781 -24.554688 9.15625 -23.796875 C 8.269531 -23.035156 7.238281 -22.65625 6.0625 -22.65625 Z M 6.0625 -22.65625 "/></g></g></g><g fill="#ffbd59" fill-opacity="1"><g transform="translate(137.382244, 78.378789)"><g><path d="M 11.6875 0.3125 C 9.582031 0.3125 7.722656 -0.113281 6.109375 -0.96875 C 4.503906 -1.820312 3.25 -3.019531 2.34375 -4.5625 C 1.4375 -6.113281 0.984375 -7.875 0.984375 -9.84375 C 0.984375 -11.726562 1.453125 -13.441406 2.390625 -14.984375 C 3.335938 -16.535156 4.625 -17.753906 6.25 -18.640625 C 7.875 -19.535156 9.6875 -19.984375 11.6875 -19.984375 C 14.226562 -19.984375 16.234375 -19.457031 17.703125 -18.40625 L 16.953125 -13.1875 C 15.460938 -13.625 14.234375 -13.84375 13.265625 -13.84375 C 12.003906 -13.84375 11.003906 -13.484375 10.265625 -12.765625 C 9.535156 -12.046875 9.171875 -11.070312 9.171875 -9.84375 C 9.171875 -8.601562 9.535156 -7.613281 10.265625 -6.875 C 11.003906 -6.144531 11.976562 -5.78125 13.1875 -5.78125 C 14.226562 -5.78125 15.457031 -6.003906 16.875 -6.453125 L 17.625 -0.9375 C 16.726562 -0.5 15.820312 -0.179688 14.90625 0.015625 C 13.988281 0.210938 12.914062 0.3125 11.6875 0.3125 Z M 11.6875 0.3125 "/></g></g></g><g fill="#ffbd59" fill-opacity="1"><g transform="translate(155.948942, 78.378789)"><g><path d="M 21.359375 0.3125 C 19.609375 0.3125 18.203125 0.0820312 17.140625 -0.375 C 16.078125 -0.832031 15.203125 -1.597656 14.515625 -2.671875 C 13.835938 -3.742188 13.234375 -5.28125 12.703125 -7.28125 L 10.390625 -5.421875 L 10.390625 0 L 2.046875 0 L 2.078125 -25.921875 L 10.421875 -27.140625 L 10.390625 -13.6875 L 20.5 -21.953125 L 25.015625 -15.78125 L 18.6875 -11.375 C 19 -9.375 19.453125 -7.976562 20.046875 -7.1875 C 20.640625 -6.40625 21.507812 -6.015625 22.65625 -6.015625 C 23.132812 -6.015625 23.703125 -6.09375 24.359375 -6.25 L 23.5625 0.203125 C 22.78125 0.273438 22.046875 0.3125 21.359375 0.3125 Z M 21.359375 0.3125 "/></g></g></g><g fill="#ffbd59" fill-opacity="1"><g transform="translate(181.202796, 78.378789)"><g><path d="M 2.5625 -27.0625 L 21.203125 -27.0625 L 21.203125 -21.09375 L 11.015625 -21.09375 L 11.015625 -15.625 L 20.453125 -15.625 L 20.453125 -10.65625 L 11.015625 -10.65625 L 11.015625 0 L 2.5625 0 Z M 2.5625 -27.0625 "/></g></g></g><g fill="#ffbd59" fill-opacity="1"><g transform="translate(203.624446, 78.378789)"><g><path d="M 12.3125 0.3125 C 10.113281 0.3125 8.15625 -0.117188 6.4375 -0.984375 C 4.71875 -1.847656 3.378906 -3.046875 2.421875 -4.578125 C 1.460938 -6.117188 0.984375 -7.882812 0.984375 -9.875 C 0.984375 -11.863281 1.46875 -13.625 2.4375 -15.15625 C 3.40625 -16.695312 4.75 -17.882812 6.46875 -18.71875 C 8.1875 -19.5625 10.148438 -19.984375 12.359375 -19.984375 C 14.585938 -19.984375 16.5625 -19.554688 18.28125 -18.703125 C 20 -17.847656 21.328125 -16.660156 22.265625 -15.140625 C 23.210938 -13.617188 23.6875 -11.863281 23.6875 -9.875 C 23.6875 -7.851562 23.207031 -6.078125 22.25 -4.546875 C 21.289062 -3.015625 19.953125 -1.820312 18.234375 -0.96875 C 16.515625 -0.113281 14.539062 0.3125 12.3125 0.3125 Z M 12.390625 -5.59375 C 13.460938 -5.59375 14.347656 -5.988281 15.046875 -6.78125 C 15.742188 -7.582031 16.09375 -8.613281 16.09375 -9.875 C 16.09375 -11.132812 15.742188 -12.160156 15.046875 -12.953125 C 14.347656 -13.753906 13.460938 -14.15625 12.390625 -14.15625 C 11.316406 -14.15625 10.429688 -13.753906 9.734375 -12.953125 C 9.035156 -12.160156 8.6875 -11.132812 8.6875 -9.875 C 8.6875 -8.613281 9.035156 -7.582031 9.734375 -6.78125 C 10.429688 -5.988281 11.316406 -5.59375 12.390625 -5.59375 Z M 12.390625 -5.59375 "/></g></g></g><g fill="#ffbd59" fill-opacity="1"><g transform="translate(228.288253, 78.378789)"><g><path d="M 12.3125 0.3125 C 10.113281 0.3125 8.15625 -0.117188 6.4375 -0.984375 C 4.71875 -1.847656 3.378906 -3.046875 2.421875 -4.578125 C 1.460938 -6.117188 0.984375 -7.882812 0.984375 -9.875 C 0.984375 -11.863281 1.46875 -13.625 2.4375 -15.15625 C 3.40625 -16.695312 4.75 -17.882812 6.46875 -18.71875 C 8.1875 -19.5625 10.148438 -19.984375 12.359375 -19.984375 C 14.585938 -19.984375 16.5625 -19.554688 18.28125 -18.703125 C 20 -17.847656 21.328125 -16.660156 22.265625 -15.140625 C 23.210938 -13.617188 23.6875 -11.863281 23.6875 -9.875 C 23.6875 -7.851562 23.207031 -6.078125 22.25 -4.546875 C 21.289062 -3.015625 19.953125 -1.820312 18.234375 -0.96875 C 16.515625 -0.113281 14.539062 0.3125 12.3125 0.3125 Z M 12.390625 -5.59375 C 13.460938 -5.59375 14.347656 -5.988281 15.046875 -6.78125 C 15.742188 -7.582031 16.09375 -8.613281 16.09375 -9.875 C 16.09375 -11.132812 15.742188 -12.160156 15.046875 -12.953125 C 14.347656 -13.753906 13.460938 -14.15625 12.390625 -14.15625 C 11.316406 -14.15625 10.429688 -13.753906 9.734375 -12.953125 C 9.035156 -12.160156 8.6875 -11.132812 8.6875 -9.875 C 8.6875 -8.613281 9.035156 -7.582031 9.734375 -6.78125 C 10.429688 -5.988281 11.316406 -5.59375 12.390625 -5.59375 Z M 12.390625 -5.59375 "/></g></g></g><g fill="#ffbd59" fill-opacity="1"><g transform="translate(252.95206, 78.378789)"><g><path d="M 10.578125 0.3125 C 8.796875 0.3125 7.175781 -0.15625 5.71875 -1.09375 C 4.269531 -2.039062 3.125 -3.296875 2.28125 -4.859375 C 1.4375 -6.421875 1.015625 -8.082031 1.015625 -9.84375 C 1.015625 -11.695312 1.453125 -13.40625 2.328125 -14.96875 C 3.210938 -16.53125 4.394531 -17.753906 5.875 -18.640625 C 7.363281 -19.535156 8.945312 -19.984375 10.625 -19.984375 C 12.144531 -19.984375 13.4375 -19.664062 14.5 -19.03125 C 15.5625 -18.40625 16.421875 -17.398438 17.078125 -16.015625 L 17.078125 -25.921875 L 25.375 -27.140625 L 25.375 0 L 17.078125 0 L 17.078125 -3.65625 C 15.835938 -1.007812 13.671875 0.3125 10.578125 0.3125 Z M 13.1875 -5.90625 C 14.28125 -5.90625 15.203125 -6.296875 15.953125 -7.078125 C 16.703125 -7.867188 17.078125 -8.789062 17.078125 -9.84375 L 17.078125 -10 C 17.078125 -11.019531 16.679688 -11.898438 15.890625 -12.640625 C 15.109375 -13.390625 14.207031 -13.765625 13.1875 -13.765625 C 12.082031 -13.765625 11.15625 -13.378906 10.40625 -12.609375 C 9.65625 -11.835938 9.28125 -10.914062 9.28125 -9.84375 C 9.28125 -8.738281 9.664062 -7.804688 10.4375 -7.046875 C 11.21875 -6.285156 12.132812 -5.90625 13.1875 -5.90625 Z M 13.1875 -5.90625 "/></g></g></g></svg>