<svg xmlns="http://www.w3.org/2000/svg" xmlns:xlink="http://www.w3.org/1999/xlink" width="500" zoomAndPan="magnify" viewBox="0 0 375 374.999991" height="500" preserveAspectRatio="xMidYMid meet" version="1.0"><defs><g/><clipPath id="a174cc47e7"><path d="M 37.5 140.089844 L 131.25 140.089844 L 131.25 199.339844 L 37.5 199.339844 Z M 37.5 140.089844 " clip-rule="nonzero"/></clipPath><clipPath id="a394e7793f"><path d="M 80 116 L 133 116 L 133 161 L 80 161 Z M 80 116 " clip-rule="nonzero"/></clipPath><clipPath id="1953cc96ac"><path d="M 86.292969 163.238281 L 79.488281 155.238281 L 129.179688 112.953125 L 135.984375 120.949219 Z M 86.292969 163.238281 " clip-rule="nonzero"/></clipPath><clipPath id="136b3fa0cb"><path d="M 86.292969 163.238281 L 79.488281 155.238281 L 129.179688 112.953125 L 135.984375 120.949219 Z M 86.292969 163.238281 " clip-rule="nonzero"/></clipPath><clipPath id="d985839fd6"><path d="M 82 137 L 132 137 L 132 161 L 82 161 Z M 82 137 " clip-rule="nonzero"/></clipPath><clipPath id="edb8657574"><path d="M 85.710938 163.242188 L 82.269531 155.742188 L 129.984375 133.84375 L 133.425781 141.34375 Z M 85.710938 163.242188 " clip-rule="nonzero"/></clipPath><clipPath id="04eacb9881"><path d="M 85.710938 163.242188 L 82.269531 155.742188 L 129.984375 133.84375 L 133.425781 141.34375 Z M 85.710938 163.242188 " clip-rule="nonzero"/></clipPath><clipPath id="25a8fc2e8c"><path d="M 83.902344 160.402344 L 84.125 160.402344 L 84.125 160.609375 L 83.902344 160.609375 Z M 83.902344 160.402344 " clip-rule="nonzero"/></clipPath><clipPath id="5f8042029d"><path d="M 84.113281 160.554688 C 83.691406 160.695312 84.066406 160.410156 84.066406 160.410156 " clip-rule="nonzero"/></clipPath><clipPath id="2876ce389c"><path d="M 80.980469 157.855469 L 88.777344 157.855469 L 88.777344 159.5625 L 80.980469 159.5625 Z M 80.980469 157.855469 " clip-rule="nonzero"/></clipPath><clipPath id="47cef1a22c"><path d="M 81.054688 158.71875 C 88.0625 158.8125 88.015625 159.140625 87.96875 159.140625 C 87.921875 159.1875 87.6875 159 87.6875 158.90625 C 87.6875 158.671875 88.722656 157.824219 88.769531 157.871094 C 88.816406 157.917969 88.488281 158.859375 87.96875 159.140625 C 86.839844 159.753906 81.480469 159.613281 81.054688 159.140625 C 80.914062 159.046875 81.054688 158.71875 81.054688 158.71875 " clip-rule="nonzero"/></clipPath><clipPath id="47c6029bbf"><path d="M 80.722656 157.65625 L 90.730469 157.65625 L 90.730469 159.753906 L 80.722656 159.753906 Z M 80.722656 157.65625 " clip-rule="nonzero"/></clipPath><clipPath id="d6e8676658"><path d="M 80.820312 158.203125 C 90.792969 157.871094 90.746094 158.152344 90.652344 158.203125 C 90.511719 158.34375 89.382812 157.824219 89.335938 157.964844 C 89.289062 158.058594 90.039062 158.484375 90.039062 158.671875 C 90.039062 158.859375 89.851562 159 89.570312 159.09375 C 88.582031 159.519531 82.5625 160.035156 81.996094 159.566406 C 81.902344 159.472656 81.855469 159.28125 81.949219 159.1875 C 82.324219 158.71875 88.441406 158.390625 88.957031 158.8125 C 89.050781 158.90625 89.003906 159.234375 89.003906 159.234375 C 89.003906 159.234375 89.003906 158.8125 89.003906 158.8125 C 89.003906 158.8125 89.144531 159.09375 89.050781 159.1875 C 88.910156 159.425781 87.78125 159.519531 87.078125 159.566406 C 86.417969 159.660156 85.757812 159.613281 85.007812 159.613281 C 84.066406 159.613281 82.230469 159.847656 81.949219 159.566406 C 81.855469 159.472656 81.855469 159.28125 81.949219 159.1875 C 82.421875 158.671875 89.242188 159.332031 89.664062 158.671875 C 89.804688 158.484375 89.289062 158.058594 89.382812 157.917969 C 89.523438 157.730469 90.511719 157.589844 90.652344 157.730469 C 90.746094 157.824219 90.746094 158.105469 90.605469 158.203125 C 89.992188 158.765625 84.207031 158.53125 82.515625 158.578125 C 81.714844 158.625 80.960938 158.8125 80.773438 158.625 C 80.679688 158.53125 80.820312 158.203125 80.820312 158.203125 " clip-rule="nonzero"/></clipPath><clipPath id="e246b05f2b"><path d="M 82.597656 157.570312 L 89.050781 157.570312 L 89.050781 158.535156 L 82.597656 158.535156 Z M 82.597656 157.570312 " clip-rule="nonzero"/></clipPath><clipPath id="924b528411"><path d="M 88.957031 158.53125 C 83.644531 158.484375 82.796875 158.390625 82.65625 158.203125 C 82.5625 158.058594 82.75 157.777344 82.75 157.777344 C 82.75 157.777344 82.609375 158.152344 82.609375 158.152344 C 82.609375 158.152344 82.5625 157.871094 82.703125 157.777344 C 83.265625 157.355469 88.628906 157.683594 89.003906 158.105469 C 89.097656 158.25 88.957031 158.53125 88.957031 158.53125 " clip-rule="nonzero"/></clipPath><clipPath id="f6225ec95c"><path d="M 80.929688 157.109375 L 91.894531 157.109375 L 91.894531 158.433594 L 80.929688 158.433594 Z M 80.929688 157.109375 " clip-rule="nonzero"/></clipPath><clipPath id="ac8c498da5"><path d="M 81.054688 157.824219 C 91.96875 157.214844 91.875 157.589844 91.875 157.589844 C 91.875 157.589844 91.828125 157.121094 91.78125 157.121094 C 91.78125 157.121094 91.96875 157.449219 91.828125 157.589844 C 91.355469 158.152344 86.605469 158.203125 84.582031 158.296875 C 83.171875 158.34375 81.242188 158.578125 80.960938 158.296875 C 80.867188 158.152344 81.054688 157.824219 81.054688 157.824219 " clip-rule="nonzero"/></clipPath><clipPath id="3701e32356"><path d="M 80.144531 158.105469 L 88.71875 158.105469 L 88.71875 159.535156 L 80.144531 159.535156 Z M 80.144531 158.105469 " clip-rule="nonzero"/></clipPath><clipPath id="7fa83384dc"><path d="M 80.398438 158.953125 C 83.832031 159.046875 85.902344 158.34375 87.03125 158.203125 C 87.734375 158.152344 88.488281 158.011719 88.675781 158.203125 C 88.769531 158.296875 88.675781 158.625 88.628906 158.625 C 88.628906 158.625 88.628906 158.203125 88.628906 158.203125 C 88.675781 158.203125 88.769531 158.484375 88.675781 158.625 C 88.347656 159 85.570312 159.234375 84.160156 159.378906 C 82.9375 159.519531 81.386719 159.566406 80.726562 159.472656 C 80.445312 159.425781 80.210938 159.378906 80.164062 159.28125 C 80.164062 159.1875 80.398438 158.953125 80.398438 158.953125 " clip-rule="nonzero"/></clipPath><clipPath id="f59b98449c"><path d="M 81.640625 157.882812 L 85.988281 157.882812 L 85.988281 159.101562 L 81.640625 159.101562 Z M 81.640625 157.882812 " clip-rule="nonzero"/></clipPath><clipPath id="d57e70b47b"><path d="M 81.667969 158.53125 C 84.914062 157.917969 85.710938 157.777344 85.902344 157.964844 C 85.996094 158.058594 85.996094 158.296875 85.902344 158.390625 C 85.523438 158.8125 82.136719 159.28125 81.761719 159 C 81.621094 158.859375 81.667969 158.53125 81.667969 158.53125 " clip-rule="nonzero"/></clipPath><clipPath id="8dfa6cf109"><path d="M 82 159.417969 L 87.605469 159.417969 L 87.605469 160.355469 L 82 160.355469 Z M 82 159.417969 " clip-rule="nonzero"/></clipPath><clipPath id="ab15869f27"><path d="M 82.136719 159.707031 C 87.6875 159.519531 87.59375 159.894531 87.546875 159.894531 C 87.546875 159.894531 87.453125 159.425781 87.453125 159.425781 C 87.453125 159.425781 87.640625 159.753906 87.59375 159.894531 C 87.359375 160.222656 85.054688 160.316406 84.066406 160.316406 C 83.265625 160.363281 82.183594 160.363281 82.042969 160.175781 C 81.949219 160.035156 82.136719 159.707031 82.136719 159.707031 " clip-rule="nonzero"/></clipPath><clipPath id="f55fa3013a"><path d="M 83.175781 159.273438 L 87.523438 159.273438 L 87.523438 160.117188 L 83.175781 160.117188 Z M 83.175781 159.273438 " clip-rule="nonzero"/></clipPath><clipPath id="4d4cfa3050"><path d="M 83.265625 159.566406 C 87.546875 159.09375 87.59375 159.332031 87.5 159.472656 C 87.3125 159.753906 86.042969 159.847656 85.335938 159.941406 C 84.628906 160.035156 83.40625 160.222656 83.21875 160.035156 C 83.125 159.941406 83.265625 159.566406 83.265625 159.566406 " clip-rule="nonzero"/></clipPath><clipPath id="f445953cab"><path d="M 88.050781 158.058594 L 89.570312 158.058594 L 89.570312 158.566406 L 88.050781 158.566406 Z M 88.050781 158.058594 " clip-rule="nonzero"/></clipPath><clipPath id="da1acc4ea9"><path d="M 89.523438 158.53125 C 86.371094 158.71875 89.242188 157.871094 89.523438 158.105469 C 89.617188 158.203125 89.523438 158.53125 89.523438 158.53125 " clip-rule="nonzero"/></clipPath><clipPath id="393c37bc5a"><path d="M 87.28125 158.28125 L 88.585938 158.28125 L 88.585938 158.828125 L 87.28125 158.828125 Z M 87.28125 158.28125 " clip-rule="nonzero"/></clipPath><clipPath id="4c0c5d0fe5"><path d="M 87.359375 158.296875 C 89.992188 158.484375 87.59375 159 87.359375 158.765625 C 87.21875 158.671875 87.359375 158.296875 87.359375 158.296875 " clip-rule="nonzero"/></clipPath><clipPath id="d8f4bc96ad"><path d="M 85.152344 158.269531 L 90.476562 158.269531 L 90.476562 159.4375 L 85.152344 159.4375 Z M 85.152344 158.269531 " clip-rule="nonzero"/></clipPath><clipPath id="f35106cde4"><path d="M 85.242188 158.8125 C 89.523438 158.671875 90.039062 158.203125 90.273438 158.296875 C 90.371094 158.34375 90.417969 158.71875 90.417969 158.71875 C 90.417969 158.71875 90.226562 158.296875 90.226562 158.296875 C 90.226562 158.296875 90.511719 158.578125 90.464844 158.71875 C 90.371094 158.953125 89.617188 159.140625 89.003906 159.28125 C 88.015625 159.425781 85.476562 159.566406 85.195312 159.234375 C 85.101562 159.140625 85.242188 158.8125 85.242188 158.8125 " clip-rule="nonzero"/></clipPath><clipPath id="ada25975dc"><path d="M 80.6875 157.140625 L 92.285156 157.140625 L 92.285156 158.582031 L 80.6875 158.582031 Z M 80.6875 157.140625 " clip-rule="nonzero"/></clipPath><clipPath id="5443660acd"><path d="M 92.15625 157.730469 C 80.679688 158.4375 80.773438 158.058594 80.773438 158.058594 C 80.773438 158.058594 80.867188 158.578125 80.867188 158.578125 C 80.867188 158.578125 80.632812 158.25 80.726562 158.105469 C 81.195312 157.449219 87.96875 157.355469 89.992188 157.261719 C 90.980469 157.214844 92.015625 157.023438 92.25 157.261719 C 92.34375 157.355469 92.15625 157.730469 92.15625 157.730469 " clip-rule="nonzero"/></clipPath><clipPath id="5f8a78f28e"><path d="M 85.257812 161.011719 L 86.449219 161.011719 L 86.449219 161.574219 L 85.257812 161.574219 Z M 85.257812 161.011719 " clip-rule="nonzero"/></clipPath><clipPath id="5a41613279"><path d="M 85.335938 161.023438 C 87.6875 161.351562 85.570312 161.730469 85.335938 161.492188 C 85.195312 161.398438 85.335938 161.023438 85.335938 161.023438 " clip-rule="nonzero"/></clipPath><clipPath id="52825d0d5d"><path d="M 85.113281 160.738281 L 86.566406 160.738281 L 86.566406 161.390625 L 85.113281 161.390625 Z M 85.113281 160.738281 " clip-rule="nonzero"/></clipPath><clipPath id="e0eda18229"><path d="M 85.195312 160.742188 C 88.160156 161.445312 85.382812 161.492188 85.148438 161.210938 C 85.054688 161.117188 85.195312 160.742188 85.195312 160.742188 " clip-rule="nonzero"/></clipPath><clipPath id="6829e1f044"><path d="M 56.855469 171.171875 L 57.082031 171.171875 L 57.082031 171.332031 L 56.855469 171.332031 Z M 56.855469 171.171875 " clip-rule="nonzero"/></clipPath><clipPath id="9cdd56e0be"><path d="M 57.066406 171.277344 C 56.644531 171.417969 57.019531 171.183594 57.019531 171.183594 " clip-rule="nonzero"/></clipPath><clipPath id="952a21bb72"><path d="M 57 115.015625 L 81 115.015625 L 81 152.515625 L 57 152.515625 Z M 57 115.015625 " clip-rule="nonzero"/></clipPath></defs><g clip-path="url(#a174cc47e7)"><path fill="#000000" d="M 130.910156 151.257812 C 130.480469 151.714844 130.4375 152.203125 130.386719 152.78125 C 130.214844 154.742188 130.027344 156.699219 129.722656 158.644531 C 128.875 164.019531 127.34375 169.199219 125.179688 174.191406 C 122.414062 180.570312 118.234375 185.761719 112.363281 189.539062 C 112.101562 189.707031 111.953125 189.898438 111.871094 190.21875 C 111.527344 191.578125 110.726562 192.648438 109.609375 193.472656 C 107.804688 194.800781 105.753906 195.609375 103.640625 196.285156 C 100.265625 197.355469 96.816406 198.070312 93.300781 198.445312 C 91.503906 198.636719 89.703125 198.808594 87.90625 198.917969 C 84.320312 199.132812 80.742188 198.984375 77.164062 198.621094 C 73.59375 198.253906 70.066406 197.652344 66.621094 196.632812 C 65.359375 196.261719 64.136719 195.753906 62.890625 195.3125 C 61.167969 194.707031 60.238281 193.355469 59.621094 191.75 C 59.484375 191.390625 59.316406 191.164062 58.996094 190.984375 C 53.09375 187.601562 48.683594 182.8125 45.601562 176.769531 C 42.589844 170.871094 40.511719 164.664062 39.4375 158.128906 C 39.253906 156.988281 39.136719 155.832031 38.964844 154.691406 C 38.9375 154.5 38.816406 154.285156 38.671875 154.15625 C 37.699219 153.289062 37.515625 152.039062 38.375 150.71875 C 38.683594 150.25 39.070312 149.820312 39.476562 149.433594 C 40.53125 148.449219 41.761719 147.734375 43.074219 147.148438 C 45.125 146.230469 47.269531 145.621094 49.433594 145.058594 C 54.4375 143.761719 59.5 142.699219 64.628906 142.019531 C 68.207031 141.546875 71.800781 141.167969 75.390625 140.824219 C 80.199219 140.363281 85.019531 140.160156 90 140.179688 C 94.359375 140.113281 98.859375 140.347656 103.347656 140.714844 C 110.039062 141.265625 116.671875 142.230469 123.148438 144.085938 C 124.816406 144.566406 126.566406 144.890625 128.058594 145.871094 C 128.820312 146.371094 129.578125 146.902344 130.234375 147.527344 C 130.667969 147.9375 131 148.507812 131.242188 149.0625 C 131.570312 149.824219 131.492188 150.632812 130.910156 151.257812 Z M 130.910156 151.257812 " fill-opacity="1" fill-rule="nonzero"/></g><path fill="#65b741" d="M 129.542969 152.347656 C 129.613281 151.792969 129.746094 151.3125 130.117188 150.882812 C 130.59375 150.332031 130.597656 149.695312 130.257812 149.070312 C 130.09375 148.769531 129.890625 148.472656 129.648438 148.21875 C 128.566406 147.089844 127.25 146.242188 125.777344 145.800781 C 123.355469 145.070312 120.894531 144.460938 118.425781 143.910156 C 113.632812 142.84375 108.78125 142.121094 103.886719 141.769531 C 100.230469 141.507812 96.570312 141.265625 92.902344 141.167969 C 87.777344 141.027344 82.65625 141.222656 77.539062 141.589844 C 73.375 141.890625 69.226562 142.332031 65.078125 142.882812 C 59.464844 143.632812 53.933594 144.777344 48.445312 146.15625 C 45.941406 146.785156 43.550781 147.640625 41.402344 149.09375 C 40.503906 149.699219 39.640625 150.351562 39.085938 151.3125 C 38.582031 152.171875 38.625 152.78125 39.269531 153.527344 C 39.5625 153.867188 39.726562 154.226562 39.804688 154.671875 C 40.304688 157.648438 40.765625 160.632812 41.546875 163.554688 C 43.054688 169.210938 45.152344 174.625 48.296875 179.582031 C 49.554688 181.554688 50.964844 183.34375 52.527344 184.945312 C 63.269531 192.941406 77.871094 194.402344 91.207031 193.273438 C 97.691406 192.730469 104.082031 191.652344 109.847656 188.140625 C 115.761719 184.515625 120.445312 179.699219 124.140625 174.203125 C 126.183594 169.773438 127.585938 165.113281 128.449219 160.277344 C 128.925781 157.652344 129.207031 154.992188 129.542969 152.347656 Z M 41.5625 150.882812 C 42.4375 149.492188 43.742188 148.613281 45.238281 148.121094 C 47.023438 147.535156 48.863281 147.085938 50.703125 146.691406 C 54.332031 145.902344 57.960938 145.117188 61.621094 144.480469 C 64.378906 144 67.171875 143.71875 69.953125 143.417969 C 76.800781 142.683594 83.675781 142.542969 92.222656 142.421875 C 94.886719 142.511719 99.234375 142.546875 103.566406 142.828125 C 109.023438 143.175781 114.472656 143.707031 119.820312 144.90625 C 121.597656 145.300781 123.339844 145.902344 125.058594 146.519531 C 125.746094 146.769531 126.398438 147.230469 126.945312 147.726562 C 128.101562 148.769531 128.027344 149.753906 126.761719 150.648438 C 126.195312 151.050781 125.566406 151.375 124.925781 151.65625 C 122.867188 152.5625 120.691406 153.097656 118.515625 153.589844 C 114.125 154.574219 109.695312 155.359375 105.226562 155.882812 C 101.320312 156.335938 97.410156 156.777344 93.492188 157.117188 C 90.40625 157.386719 87.304688 157.542969 84.207031 157.667969 C 80.597656 157.808594 76.988281 157.921875 73.375 157.933594 C 68.925781 157.953125 64.480469 157.710938 60.042969 157.367188 C 56.871094 157.117188 53.714844 156.789062 50.582031 156.191406 C 48.515625 155.800781 46.472656 155.308594 44.554688 154.417969 C 43.84375 154.089844 43.164062 153.699219 42.503906 153.289062 C 42.167969 153.082031 41.855469 152.796875 41.605469 152.488281 C 41.121094 151.875 41.132812 151.558594 41.5625 150.882812 Z M 127.886719 153.300781 C 127.277344 153.640625 126.675781 154.015625 126.03125 154.261719 C 122.269531 155.683594 118.402344 156.746094 114.449219 157.476562 C 111.007812 158.113281 107.554688 158.707031 104.089844 159.203125 C 101.398438 159.589844 98.6875 159.855469 95.976562 160.085938 C 92.429688 160.382812 88.882812 160.679688 85.328125 160.816406 C 81.609375 160.964844 77.886719 160.96875 74.167969 160.957031 C 71.824219 160.949219 69.476562 160.859375 67.136719 160.707031 C 64.261719 160.515625 61.386719 160.28125 58.519531 159.953125 C 55.765625 159.636719 53.019531 159.234375 50.28125 158.773438 C 47.410156 158.292969 44.601562 157.542969 41.925781 156.355469 C 41.6875 156.25 41.457031 156.144531 41.21875 156.039062 C 41.246094 155.972656 41.265625 155.90625 41.292969 155.84375 C 41.695312 155.703125 42.0625 155.898438 42.421875 156.042969 C 44.964844 157.03125 47.582031 157.753906 50.269531 158.222656 C 52.628906 158.628906 54.996094 159.015625 57.375 159.28125 C 60.667969 159.652344 63.972656 159.941406 67.277344 160.1875 C 69.34375 160.339844 71.425781 160.425781 73.5 160.417969 C 78.003906 160.398438 82.503906 160.382812 87.003906 160.214844 C 90.289062 160.09375 93.566406 159.792969 96.835938 159.476562 C 100.1875 159.152344 103.535156 158.789062 106.867188 158.300781 C 113.210938 157.371094 119.5 156.144531 125.550781 153.941406 C 126.304688 153.664062 127.019531 153.273438 127.753906 152.941406 C 127.863281 152.890625 127.984375 152.855469 128.175781 152.910156 C 128.089844 153.042969 128.019531 153.222656 127.886719 153.300781 Z M 127.886719 153.300781 " fill-opacity="1" fill-rule="nonzero"/><path fill="#ededed" d="M 109.851562 188.136719 C 104.089844 191.648438 97.695312 192.726562 91.210938 193.269531 C 77.875 194.398438 63.273438 192.941406 52.53125 184.941406 C 55.808594 188.300781 59.757812 190.84375 64.351562 192.578125 C 64.804688 192.75 65.261719 192.898438 65.714844 193.074219 C 65.964844 193.171875 66.238281 193.277344 66.121094 193.675781 C 66.03125 193.699219 65.921875 193.757812 65.832031 193.734375 C 64.035156 193.269531 62.277344 192.695312 60.445312 191.804688 C 61.011719 193.011719 61.660156 193.859375 62.796875 194.226562 C 63.230469 194.371094 63.636719 194.589844 64.0625 194.753906 C 69.296875 196.785156 74.78125 197.558594 80.332031 197.957031 C 84.292969 198.238281 88.253906 198.109375 92.203125 197.671875 C 95.742188 197.277344 99.242188 196.6875 102.664062 195.683594 C 104.890625 195.027344 107.058594 194.226562 109.027344 192.957031 C 109.925781 192.375 110.480469 191.519531 110.925781 190.5625 C 110.738281 190.566406 110.601562 190.628906 110.460938 190.691406 C 109.023438 191.296875 107.589844 191.914062 106.152344 192.515625 C 105.886719 192.625 105.601562 192.746094 105.375 192.433594 C 105.496094 192.007812 105.871094 191.941406 106.183594 191.796875 C 107.335938 191.273438 108.53125 190.828125 109.628906 190.210938 C 115.054688 187.152344 119.441406 183.015625 122.464844 177.527344 C 123.066406 176.433594 123.625 175.320312 124.144531 174.199219 C 120.445312 179.695312 115.765625 184.515625 109.851562 188.136719 Z M 103.5625 193.691406 C 99.984375 194.9375 96.316406 195.722656 92.539062 196.039062 C 88.417969 196.386719 84.300781 196.394531 80.179688 196.144531 C 76.496094 195.917969 72.824219 195.597656 69.195312 194.871094 C 68.613281 194.753906 67.996094 194.671875 67.542969 194.09375 C 67.789062 194.109375 68.042969 194.097656 68.285156 194.140625 C 71.542969 194.746094 74.824219 195.152344 78.128906 195.421875 C 81.707031 195.710938 85.285156 195.769531 88.867188 195.703125 C 93.742188 195.613281 98.511719 194.847656 103.15625 193.339844 C 103.480469 193.238281 103.8125 193.167969 104.136719 193.082031 C 104.164062 193.171875 104.199219 193.261719 104.226562 193.355469 C 104.003906 193.46875 103.792969 193.609375 103.5625 193.691406 Z M 103.5625 193.691406 " fill-opacity="1" fill-rule="nonzero"/><path fill="#a8a8a8" d="M 126.628906 149.730469 C 126.117188 150.113281 125.550781 150.445312 124.972656 150.714844 C 123.183594 151.550781 121.269531 152.027344 119.359375 152.476562 C 115.140625 153.472656 110.871094 154.246094 106.566406 154.765625 C 105.261719 154.921875 103.957031 155.082031 102.65625 155.234375 C 107.121094 152.4375 110.847656 148.820312 114.097656 144.820312 C 116.199219 145.125 118.296875 145.507812 120.375 146.003906 C 121.785156 146.339844 123.164062 146.816406 124.539062 147.28125 C 125.359375 147.554688 126.109375 147.996094 126.695312 148.660156 C 127.113281 149.140625 127.132812 149.359375 126.628906 149.730469 Z M 52.933594 147 C 50.925781 147.445312 48.929688 147.925781 46.9375 148.441406 C 45.558594 148.800781 44.316406 149.429688 43.207031 150.300781 C 42.753906 150.660156 42.394531 151.132812 41.933594 151.609375 C 42.269531 151.882812 42.492188 152.117188 42.761719 152.28125 C 43.546875 152.746094 44.328125 153.234375 45.15625 153.609375 C 46.957031 154.429688 48.875 154.871094 50.808594 155.238281 C 53.964844 155.835938 57.148438 156.160156 60.347656 156.410156 C 61.707031 156.519531 63.070312 156.609375 64.433594 156.6875 C 60.164062 154.117188 56.449219 150.597656 52.933594 147 Z M 52.933594 147 " fill-opacity="1" fill-rule="nonzero"/><path fill="#b3b3b3" d="M 102.65625 155.238281 C 99.652344 155.59375 96.644531 155.917969 93.632812 156.164062 C 86.992188 156.707031 80.339844 157.027344 73.679688 156.992188 C 70.589844 156.972656 67.511719 156.867188 64.433594 156.691406 C 60.164062 154.117188 56.449219 150.597656 52.933594 147 C 55.472656 146.4375 58.023438 145.929688 60.589844 145.496094 C 65.058594 144.738281 69.554688 144.195312 74.070312 143.941406 C 78.890625 143.671875 83.714844 143.527344 88.539062 143.421875 C 93.636719 143.304688 98.734375 143.382812 103.820312 143.765625 C 107.253906 144.023438 110.691406 144.324219 114.097656 144.824219 C 110.847656 148.824219 107.117188 152.441406 102.65625 155.238281 Z M 102.65625 155.238281 " fill-opacity="1" fill-rule="nonzero"/><g clip-path="url(#a394e7793f)"><g clip-path="url(#1953cc96ac)"><g clip-path="url(#136b3fa0cb)"><path fill="#ffb631" d="M 127.128906 128.464844 L 132.796875 116.71875 L 120.296875 120.4375 L 120.652344 126.429688 L 80.933594 156.9375 L 84.085938 160.644531 L 121.226562 127.144531 Z M 127.128906 128.464844 " fill-opacity="1" fill-rule="nonzero"/></g></g></g><g clip-path="url(#d985839fd6)"><g clip-path="url(#edb8657574)"><g clip-path="url(#04eacb9881)"><path fill="#ffb631" d="M 124.789062 145.292969 L 131.722656 137.464844 L 121.265625 137.613281 L 120.234375 142.3125 L 82.945312 157.214844 L 84.574219 160.761719 L 120.523438 142.992188 Z M 124.789062 145.292969 " fill-opacity="1" fill-rule="nonzero"/></g></g></g><g clip-path="url(#25a8fc2e8c)"><g clip-path="url(#5f8042029d)"><path fill="#65b741" d="M 81.808594 158.53125 L 86.042969 158.53125 L 86.042969 162.621094 L 81.808594 162.621094 Z M 81.808594 158.53125 " fill-opacity="1" fill-rule="nonzero"/></g></g><path stroke-linecap="butt" transform="matrix(-0.75, 0.000000001309, -0.000000001309, -0.75, 85.691447, 160.9516)" fill="none" stroke-linejoin="miter" d="M 0.000054163 0.497966 L 3.109429 0.497966 " stroke="#000000" stroke-width="1" stroke-opacity="1" stroke-miterlimit="4"/><path stroke-linecap="butt" transform="matrix(0.748845, -0.0416039, 0.0416039, 0.748845, 80.660822, 156.932889)" fill="none" stroke-linejoin="miter" d="M -0.00267226 0.501564 L 18.087778 0.499863 " stroke="#000000" stroke-width="1" stroke-opacity="1" stroke-miterlimit="4"/><g clip-path="url(#2876ce389c)"><g clip-path="url(#47cef1a22c)"><path fill="#65b741" d="M 79.175781 155.992188 L 90.703125 155.992188 L 90.703125 161.070312 L 79.175781 161.070312 Z M 79.175781 155.992188 " fill-opacity="1" fill-rule="nonzero"/></g></g><g clip-path="url(#47c6029bbf)"><g clip-path="url(#d6e8676658)"><path fill="#65b741" d="M 78.890625 155.847656 L 92.585938 155.847656 L 92.585938 161.492188 L 78.890625 161.492188 Z M 78.890625 155.847656 " fill-opacity="1" fill-rule="nonzero"/></g></g><g clip-path="url(#e246b05f2b)"><g clip-path="url(#924b528411)"><path fill="#65b741" d="M 80.726562 155.894531 L 90.886719 155.894531 L 90.886719 160.460938 L 80.726562 160.460938 Z M 80.726562 155.894531 " fill-opacity="1" fill-rule="nonzero"/></g></g><g clip-path="url(#f6225ec95c)"><g clip-path="url(#ac8c498da5)"><path fill="#65b741" d="M 79.082031 155.238281 L 93.765625 155.238281 L 93.765625 160.222656 L 79.082031 160.222656 Z M 79.082031 155.238281 " fill-opacity="1" fill-rule="nonzero"/></g></g><g clip-path="url(#3701e32356)"><g clip-path="url(#7fa83384dc)"><path fill="#65b741" d="M 78.28125 156.320312 L 90.5625 156.320312 L 90.5625 161.398438 L 78.28125 161.398438 Z M 78.28125 156.320312 " fill-opacity="1" fill-rule="nonzero"/></g></g><g clip-path="url(#f59b98449c)"><g clip-path="url(#d57e70b47b)"><path fill="#65b741" d="M 79.785156 156.085938 L 87.789062 156.085938 L 87.789062 160.882812 L 79.785156 160.882812 Z M 79.785156 156.085938 " fill-opacity="1" fill-rule="nonzero"/></g></g><g clip-path="url(#8dfa6cf109)"><g clip-path="url(#ab15869f27)"><path fill="#65b741" d="M 80.164062 157.542969 L 89.476562 157.542969 L 89.476562 162.246094 L 80.164062 162.246094 Z M 80.164062 157.542969 " fill-opacity="1" fill-rule="nonzero"/></g></g><g clip-path="url(#f55fa3013a)"><g clip-path="url(#4d4cfa3050)"><path fill="#65b741" d="M 81.339844 157.121094 L 89.378906 157.121094 L 89.378906 161.917969 L 81.339844 161.917969 Z M 81.339844 157.121094 " fill-opacity="1" fill-rule="nonzero"/></g></g><g clip-path="url(#f445953cab)"><g clip-path="url(#da1acc4ea9)"><path fill="#65b741" d="M 84.488281 156.226562 L 91.453125 156.226562 L 91.453125 160.695312 L 84.488281 160.695312 Z M 84.488281 156.226562 " fill-opacity="1" fill-rule="nonzero"/></g></g><g clip-path="url(#393c37bc5a)"><g clip-path="url(#4c0c5d0fe5)"><path fill="#65b741" d="M 85.476562 156.414062 L 91.925781 156.414062 L 91.925781 160.648438 L 85.476562 160.648438 Z M 85.476562 156.414062 " fill-opacity="1" fill-rule="nonzero"/></g></g><g clip-path="url(#d8f4bc96ad)"><g clip-path="url(#f35106cde4)"><path fill="#65b741" d="M 83.3125 156.414062 L 92.351562 156.414062 L 92.351562 161.164062 L 83.3125 161.164062 Z M 83.3125 156.414062 " fill-opacity="1" fill-rule="nonzero"/></g></g><g clip-path="url(#ada25975dc)"><g clip-path="url(#5443660acd)"><path fill="#65b741" d="M 78.84375 155.378906 L 94.125 155.378906 L 94.125 160.507812 L 78.84375 160.507812 Z M 78.84375 155.378906 " fill-opacity="1" fill-rule="nonzero"/></g></g><g clip-path="url(#5f8a78f28e)"><g clip-path="url(#5a41613279)"><path fill="#65b741" d="M 83.453125 159.140625 L 89.621094 159.140625 L 89.621094 163.375 L 83.453125 163.375 Z M 83.453125 159.140625 " fill-opacity="1" fill-rule="nonzero"/></g></g><g clip-path="url(#52825d0d5d)"><g clip-path="url(#e0eda18229)"><path fill="#65b741" d="M 83.265625 158.859375 L 90.035156 158.859375 L 90.035156 163.234375 L 83.265625 163.234375 Z M 83.265625 158.859375 " fill-opacity="1" fill-rule="nonzero"/></g></g><g clip-path="url(#6829e1f044)"><g clip-path="url(#9cdd56e0be)"><path fill="#ffffff" d="M 54.761719 169.300781 L 59 169.300781 L 59 173.394531 L 54.761719 173.394531 Z M 54.761719 169.300781 " fill-opacity="1" fill-rule="nonzero"/></g></g><g clip-path="url(#952a21bb72)"><path fill="#ffb631" d="M 65.273438 152.191406 C 63.335938 151.070312 61.691406 149.53125 60.4375 147.792969 C 56.878906 142.859375 57.035156 136.84375 61.222656 132.285156 C 65.460938 127.671875 69.648438 122.15625 68.925781 115.867188 C 74.402344 123.957031 69.105469 130.03125 69.105469 130.03125 C 67.484375 132.828125 65.007812 135.113281 63.445312 137.949219 C 61.917969 140.75 61.238281 143.867188 62.101562 146.9375 C 62.542969 148.503906 63.625 151.242188 65.273438 152.191406 Z M 68.84375 147.941406 C 68.140625 145.464844 68.695312 142.941406 69.933594 140.679688 C 71.195312 138.390625 73.195312 136.546875 74.5 134.285156 C 74.5 134.285156 78.785156 129.375 74.359375 122.835938 C 74.941406 127.917969 71.558594 132.375 68.132812 136.105469 C 64.753906 139.792969 64.625 144.652344 67.5 148.636719 C 68.515625 150.039062 69.835938 151.285156 71.410156 152.191406 C 70.074219 151.421875 69.199219 149.210938 68.84375 147.941406 Z M 79.1875 138.300781 C 79.1875 138.300781 82.507812 134.496094 79.074219 129.425781 C 79.53125 133.367188 76.902344 136.824219 74.246094 139.71875 C 71.617188 142.578125 71.523438 146.347656 73.753906 149.4375 C 74.539062 150.527344 75.566406 151.488281 76.785156 152.191406 C 75.746094 151.59375 75.074219 149.875 74.789062 148.898438 C 74.246094 146.980469 74.671875 145.019531 75.632812 143.269531 C 76.613281 141.488281 78.171875 140.054688 79.1875 138.300781 Z M 79.1875 138.300781 " fill-opacity="1" fill-rule="nonzero"/><path fill="#000000" d="M 62.296875 146.875 C 61.515625 144.113281 61.976562 141.054688 63.625 138.046875 C 64.425781 136.589844 65.492188 135.253906 66.523438 133.964844 C 67.484375 132.753906 68.484375 131.5 69.269531 130.152344 C 69.417969 129.972656 70.648438 128.472656 71.269531 126.03125 C 71.867188 123.679688 71.96875 119.992188 69.097656 115.746094 L 68.625 115.050781 L 68.722656 115.886719 C 69.433594 122.089844 65.253906 127.589844 61.074219 132.144531 C 59 134.398438 57.84375 137.078125 57.714844 139.890625 C 57.59375 142.660156 58.476562 145.433594 60.265625 147.914062 C 61.589844 149.742188 63.28125 151.277344 65.171875 152.367188 L 65.378906 152.011719 C 63.945312 151.183594 62.851562 148.816406 62.296875 146.875 Z M 60.601562 147.675781 C 57.011719 142.695312 57.304688 136.851562 61.371094 132.425781 C 65.441406 128 69.492188 122.695312 69.199219 116.664062 C 71.53125 120.476562 71.417969 123.769531 70.878906 125.902344 C 70.261719 128.359375 68.96875 129.875 68.953125 129.890625 L 68.933594 129.917969 C 68.15625 131.253906 67.164062 132.496094 66.207031 133.703125 C 65.164062 135.007812 64.089844 136.359375 63.273438 137.84375 C 61.566406 140.957031 61.097656 144.113281 61.910156 146.988281 C 62.097656 147.660156 62.65625 149.40625 63.605469 150.800781 C 62.476562 149.914062 61.453125 148.855469 60.601562 147.675781 Z M 69.042969 147.882812 C 68.417969 145.660156 68.78125 143.203125 70.113281 140.777344 C 70.753906 139.605469 71.613281 138.53125 72.449219 137.488281 C 73.222656 136.507812 74.039062 135.5 74.671875 134.40625 C 74.804688 134.25 75.792969 133.03125 76.292969 131.0625 C 76.777344 129.15625 76.859375 126.15625 74.53125 122.726562 L 74.058594 122.03125 L 74.15625 122.867188 C 74.730469 127.867188 71.359375 132.292969 67.984375 135.972656 C 66.304688 137.800781 65.363281 139.972656 65.269531 142.257812 C 65.171875 144.503906 65.886719 146.75 67.335938 148.765625 C 68.402344 150.242188 69.777344 151.496094 71.304688 152.375 L 71.515625 152.019531 C 70.367188 151.355469 69.484375 149.449219 69.042969 147.882812 Z M 67.664062 148.519531 C 64.773438 144.511719 65.015625 139.808594 68.28125 136.25 C 71.535156 132.703125 74.785156 128.464844 74.621094 123.644531 C 76.410156 126.65625 76.3125 129.246094 75.886719 130.941406 C 75.394531 132.917969 74.351562 134.136719 74.34375 134.152344 L 74.320312 134.179688 C 73.695312 135.253906 72.894531 136.261719 72.117188 137.234375 C 71.277344 138.292969 70.402344 139.382812 69.746094 140.585938 C 68.363281 143.105469 67.976562 145.667969 68.640625 148.003906 C 68.78125 148.511719 69.195312 149.792969 69.878906 150.890625 C 69.058594 150.195312 68.304688 149.398438 67.664062 148.519531 Z M 79.246094 129.308594 L 78.777344 128.613281 L 78.875 129.449219 C 79.3125 133.308594 76.710938 136.734375 74.097656 139.578125 C 72.789062 141.003906 72.050781 142.695312 71.976562 144.480469 C 71.902344 146.234375 72.453125 147.988281 73.589844 149.554688 C 74.425781 150.710938 75.492188 151.683594 76.6875 152.367188 L 76.894531 152.011719 C 76.023438 151.503906 75.34375 150.039062 75 148.839844 C 74.515625 147.121094 74.796875 145.234375 75.828125 143.359375 C 76.328125 142.457031 76.992188 141.621094 77.632812 140.816406 C 78.238281 140.054688 78.867188 139.269531 79.359375 138.421875 C 79.46875 138.285156 80.238281 137.335938 80.621094 135.816406 C 80.992188 134.332031 81.058594 131.996094 79.246094 129.308594 Z M 80.222656 135.695312 C 79.84375 137.21875 79.039062 138.160156 79.03125 138.167969 L 79.007812 138.195312 C 78.523438 139.023438 77.902344 139.808594 77.304688 140.554688 C 76.648438 141.375 75.96875 142.226562 75.460938 143.160156 C 74.378906 145.121094 74.082031 147.128906 74.605469 148.941406 C 74.707031 149.300781 74.976562 150.160156 75.425781 150.949219 C 74.867188 150.464844 74.367188 149.914062 73.925781 149.300781 C 71.695312 146.210938 71.878906 142.59375 74.402344 139.84375 C 76.894531 137.136719 79.382812 133.898438 79.335938 130.21875 C 80.375 132.046875 80.671875 133.882812 80.222656 135.695312 Z M 80.222656 135.695312 " fill-opacity="1" fill-rule="nonzero"/></g><path stroke-linecap="butt" transform="matrix(0.741191, 0, 0, 0.741191, 134.995294, 148.462711)" fill="none" stroke-linejoin="miter" d="M 3.463624 21.310441 L 16.691916 21.310441 C 22.167691 21.310441 26.41023 22.375028 29.414265 24.514744 C 32.413029 26.638649 33.915046 29.626873 33.915046 33.468874 C 33.915046 35.882642 33.177213 37.996007 31.701547 39.808968 C 30.225881 41.627199 28.217921 43.023812 25.677668 44.004076 C 23.132144 44.973799 20.317838 45.463931 17.224209 45.463931 L 14.984359 45.463931 L 14.984359 58.001822 L 3.463624 58.001822 Z M 17.276912 38.05398 C 19.163656 38.05398 20.618241 37.663982 21.651207 36.883987 C 22.684174 36.098722 23.200657 34.965621 23.200657 33.468874 C 23.200657 31.977398 22.694714 30.860108 21.677559 30.111734 C 20.660403 29.363361 19.195278 28.989174 17.276912 28.989174 L 14.984359 28.989174 L 14.984359 37.948575 C 15.695841 38.017088 16.460025 38.05398 17.276912 38.05398 Z M 46.669017 58.428711 C 43.680793 58.428711 41.351349 57.469528 39.675414 55.551162 C 38.010019 53.627526 37.177322 51.008219 37.177322 47.703781 L 37.177322 31.281727 L 48.476707 31.281727 L 48.476707 47.23473 C 48.476707 48.046347 48.698057 48.678775 49.140757 49.121475 C 49.583457 49.564174 50.157913 49.785524 50.869394 49.785524 C 51.586147 49.785524 52.313439 49.569445 53.061813 49.147826 L 53.646809 56.552507 C 52.861544 57.163854 51.839118 57.627635 50.574261 57.94912 C 49.314675 58.270604 48.012927 58.428711 46.669017 58.428711 Z M 42.827015 27.286888 C 41.15635 27.286888 39.743927 26.759864 38.579205 25.711087 C 37.425023 24.662311 36.850567 23.371103 36.850567 21.842734 C 36.850567 20.314366 37.451374 19.033699 38.658258 18.000733 C 39.875683 16.967766 41.261755 16.451283 42.827015 16.451283 C 44.466058 16.451283 45.878481 16.988847 47.069555 18.053435 C 48.260628 19.123293 48.856164 20.382879 48.856164 21.842734 C 48.856164 23.407994 48.250087 24.704472 47.043203 25.737439 C 45.836319 26.770405 44.429166 27.286888 42.827015 27.286888 Z M 69.921297 58.428711 C 67.075369 58.428711 64.556197 57.854255 62.369049 56.700074 C 60.181901 55.545892 58.469074 53.917389 57.24111 51.814565 C 56.013145 49.717011 55.401797 47.334865 55.401797 44.668125 C 55.401797 42.106791 56.039496 39.782617 57.314893 37.690333 C 58.60083 35.587509 60.345278 33.932655 62.548237 32.725771 C 64.756466 31.513617 67.212396 30.90754 69.921297 30.90754 C 73.368031 30.90754 76.082202 31.619022 78.069081 33.041985 L 77.057196 40.135723 C 75.033425 39.529646 73.362761 39.223972 72.039932 39.223972 C 70.342916 39.223972 68.993735 39.714104 67.99239 40.694368 C 66.996316 41.669361 66.495643 42.99219 66.495643 44.668125 C 66.495643 46.34406 66.996316 47.67743 67.99239 48.678775 C 68.993735 49.669579 70.306024 50.159711 71.939797 50.159711 C 73.362761 50.159711 75.033425 49.859308 76.951791 49.24796 L 77.968947 56.726425 C 76.762063 57.321961 75.534098 57.759391 74.279782 58.028173 C 73.041276 58.296955 71.586691 58.428711 69.921297 58.428711 Z M 108.204289 58.428711 C 105.822143 58.428711 103.914317 58.117767 102.475543 57.490609 C 101.031498 56.868721 99.845695 55.830485 98.918134 54.38117 C 98.001113 52.921315 97.184226 50.839572 96.472744 48.13067 L 93.321143 50.644573 L 93.321143 58.001822 L 82.016488 58.001822 L 82.06919 22.85989 L 93.373846 21.205036 L 93.321143 39.445322 L 107.029027 28.23553 L 113.163581 36.620475 L 104.583637 42.586382 C 105.005256 45.290013 105.621874 47.182028 106.417679 48.246616 C 107.218755 49.305933 108.399288 49.838227 109.959278 49.838227 C 110.602247 49.838227 111.366431 49.732822 112.25183 49.522013 L 111.181972 58.260063 C 110.122655 58.370738 109.131851 58.428711 108.204289 58.428711 Z M 116.94761 21.310441 L 142.228931 21.310441 L 142.228931 29.421333 L 128.415643 29.421333 L 128.415643 36.831285 L 141.217046 36.831285 L 141.217046 43.545565 L 128.415643 43.545565 L 128.415643 58.001822 L 116.94761 58.001822 Z M 160.569352 58.428711 C 157.586398 58.428711 154.924929 57.843715 152.590215 56.673722 C 150.260771 55.49319 148.44781 53.864687 147.146061 51.788214 C 145.854854 49.706471 145.206615 47.313784 145.206615 44.615423 C 145.206615 41.917062 145.865394 39.524375 147.188223 37.442632 C 148.505782 35.355619 150.329284 33.748197 152.653458 32.609826 C 154.982902 31.471455 157.639101 30.90754 160.622054 30.90754 C 163.641899 30.90754 166.319179 31.481996 168.643353 32.636177 C 170.978067 33.790359 172.785758 35.403051 174.061155 37.468983 C 175.341823 39.534916 175.984791 41.917062 175.984791 44.615423 C 175.984791 47.350675 175.336552 49.759173 174.034804 51.840916 C 172.738326 53.922659 170.925365 55.545892 168.590651 56.700074 C 166.266477 57.854255 163.589197 58.428711 160.569352 58.428711 Z M 160.674756 50.423223 C 162.134612 50.423223 163.330955 49.885659 164.269057 48.805261 C 165.212429 47.724862 165.686751 46.322979 165.686751 44.615423 C 165.686751 42.907867 165.212429 41.505984 164.269057 40.425586 C 163.330955 39.339917 162.134612 38.797083 160.674756 38.797083 C 159.214901 38.797083 158.013287 39.339917 157.069915 40.425586 C 156.131813 41.505984 155.662762 42.907867 155.662762 44.615423 C 155.662762 46.322979 156.131813 47.724862 157.069915 48.805261 C 158.013287 49.885659 159.214901 50.423223 160.674756 50.423223 Z M 194.008998 58.428711 C 191.020774 58.428711 188.359305 57.843715 186.02459 56.673722 C 183.700416 55.49319 181.887455 53.864687 180.585707 51.788214 C 179.289229 49.706471 178.64626 47.313784 178.64626 44.615423 C 178.64626 41.917062 179.30504 39.524375 180.622599 37.442632 C 181.940158 35.355619 183.763659 33.748197 186.093104 32.609826 C 188.417277 31.471455 191.073476 30.90754 194.0617 30.90754 C 197.081545 30.90754 199.753555 31.481996 202.077729 32.636177 C 204.412443 33.790359 206.220134 35.403051 207.495531 37.468983 C 208.781468 39.534916 209.424437 41.917062 209.424437 44.615423 C 209.424437 47.350675 208.770928 49.759173 207.46918 51.840916 C 206.177972 53.922659 204.365011 55.545892 202.030296 56.700074 C 199.700852 57.854255 197.028843 58.428711 194.008998 58.428711 Z M 194.109132 50.423223 C 195.568987 50.423223 196.765331 49.885659 197.703433 48.805261 C 198.652075 47.724862 199.126397 46.322979 199.126397 44.615423 C 199.126397 42.907867 198.652075 41.505984 197.703433 40.425586 C 196.765331 39.339917 195.568987 38.797083 194.109132 38.797083 C 192.654547 38.797083 191.452933 39.339917 190.504291 40.425586 C 189.566189 41.505984 189.097138 42.907867 189.097138 44.615423 C 189.097138 46.322979 189.566189 47.724862 190.504291 48.805261 C 191.452933 49.885659 192.654547 50.423223 194.109132 50.423223 Z M 225.098118 58.428711 C 222.67908 58.428711 220.481392 57.791012 218.510324 56.515615 C 216.544526 55.229678 214.984536 53.527392 213.835625 51.414027 C 212.702524 49.295392 212.133338 47.045002 212.133338 44.668125 C 212.133338 42.143683 212.728875 39.824779 213.914678 37.716684 C 215.116292 35.59805 216.713173 33.932655 218.721133 32.725771 C 220.734363 31.513617 222.879349 30.90754 225.150821 30.90754 C 227.211483 30.90754 228.961201 31.334429 230.399976 32.193477 C 231.83875 33.047256 233.008742 34.412247 233.899412 36.293721 L 233.899412 22.85989 L 245.151365 21.205036 L 245.151365 58.001822 L 233.899412 58.001822 L 233.899412 53.03726 C 232.228747 56.631561 229.293226 58.428711 225.098118 58.428711 Z M 228.613366 50.006874 C 230.110113 50.006874 231.364429 49.46931 232.376314 48.404723 C 233.393469 47.334865 233.899412 46.091089 233.899412 44.668125 L 233.899412 44.457316 C 233.899412 43.071244 233.367118 41.86963 232.302531 40.852475 C 231.232673 39.835319 230.004708 39.329377 228.613366 39.329377 C 227.121889 39.329377 225.867573 39.8564 224.855688 40.905177 C 223.843802 41.953954 223.34313 43.20827 223.34313 44.668125 C 223.34313 46.159602 223.864883 47.424459 224.90312 48.457425 C 225.957167 49.490391 227.190402 50.006874 228.613366 50.006874 Z M 228.613366 50.006874 " stroke="#7d4c00" stroke-width="3.999998" stroke-opacity="1" stroke-miterlimit="4"/><g fill="#ffbd59" fill-opacity="1"><g transform="translate(134.995294, 191.451775)"><g><path d="M 2.5625 -27.203125 L 12.375 -27.203125 C 16.4375 -27.203125 19.578125 -26.410156 21.796875 -24.828125 C 24.023438 -23.242188 25.140625 -21.03125 25.140625 -18.1875 C 25.140625 -16.394531 24.59375 -14.828125 23.5 -13.484375 C 22.40625 -12.140625 20.914062 -11.101562 19.03125 -10.375 C 17.144531 -9.65625 15.054688 -9.296875 12.765625 -9.296875 L 11.109375 -9.296875 L 11.109375 0 L 2.5625 0 Z M 12.8125 -14.78125 C 14.207031 -14.78125 15.285156 -15.070312 16.046875 -15.65625 C 16.816406 -16.238281 17.203125 -17.082031 17.203125 -18.1875 C 17.203125 -19.289062 16.820312 -20.117188 16.0625 -20.671875 C 15.3125 -21.222656 14.226562 -21.5 12.8125 -21.5 L 11.109375 -21.5 L 11.109375 -14.859375 C 11.640625 -14.804688 12.207031 -14.78125 12.8125 -14.78125 Z M 12.8125 -14.78125 "/></g></g></g><g fill="#ffbd59" fill-opacity="1"><g transform="translate(160.647827, 191.451775)"><g><path d="M 8.9375 0.3125 C 6.71875 0.3125 4.988281 -0.394531 3.75 -1.8125 C 2.507812 -3.238281 1.890625 -5.175781 1.890625 -7.625 L 1.890625 -19.8125 L 10.28125 -19.8125 L 10.28125 -7.984375 C 10.28125 -7.378906 10.441406 -6.910156 10.765625 -6.578125 C 11.097656 -6.253906 11.53125 -6.09375 12.0625 -6.09375 C 12.582031 -6.09375 13.117188 -6.25 13.671875 -6.5625 L 14.109375 -1.0625 C 13.535156 -0.613281 12.78125 -0.269531 11.84375 -0.03125 C 10.90625 0.195312 9.9375 0.3125 8.9375 0.3125 Z M 6.09375 -22.765625 C 4.851562 -22.765625 3.804688 -23.15625 2.953125 -23.9375 C 2.097656 -24.71875 1.671875 -25.671875 1.671875 -26.796875 C 1.671875 -27.929688 2.117188 -28.878906 3.015625 -29.640625 C 3.910156 -30.410156 4.9375 -30.796875 6.09375 -30.796875 C 7.300781 -30.796875 8.347656 -30.398438 9.234375 -29.609375 C 10.117188 -28.816406 10.5625 -27.878906 10.5625 -26.796875 C 10.5625 -25.640625 10.113281 -24.675781 9.21875 -23.90625 C 8.320312 -23.144531 7.28125 -22.765625 6.09375 -22.765625 Z M 6.09375 -22.765625 "/></g></g></g><g fill="#ffbd59" fill-opacity="1"><g transform="translate(175.07491, 191.451775)"><g><path d="M 11.734375 0.3125 C 9.628906 0.3125 7.765625 -0.113281 6.140625 -0.96875 C 4.523438 -1.820312 3.257812 -3.023438 2.34375 -4.578125 C 1.4375 -6.140625 0.984375 -7.90625 0.984375 -9.875 C 0.984375 -11.78125 1.457031 -13.507812 2.40625 -15.0625 C 3.351562 -16.613281 4.644531 -17.835938 6.28125 -18.734375 C 7.914062 -19.628906 9.734375 -20.078125 11.734375 -20.078125 C 14.296875 -20.078125 16.3125 -19.550781 17.78125 -18.5 L 17.03125 -13.25 C 15.53125 -13.695312 14.296875 -13.921875 13.328125 -13.921875 C 12.054688 -13.921875 11.050781 -13.554688 10.3125 -12.828125 C 9.570312 -12.097656 9.203125 -11.113281 9.203125 -9.875 C 9.203125 -8.644531 9.570312 -7.660156 10.3125 -6.921875 C 11.050781 -6.179688 12.03125 -5.8125 13.25 -5.8125 C 14.300781 -5.8125 15.535156 -6.035156 16.953125 -6.484375 L 17.703125 -0.953125 C 16.804688 -0.503906 15.894531 -0.179688 14.96875 0.015625 C 14.050781 0.210938 12.972656 0.3125 11.734375 0.3125 Z M 11.734375 0.3125 "/></g></g></g><g fill="#ffbd59" fill-opacity="1"><g transform="translate(193.731302, 191.451775)"><g><path d="M 21.46875 0.3125 C 19.695312 0.3125 18.273438 0.0820312 17.203125 -0.375 C 16.140625 -0.832031 15.265625 -1.601562 14.578125 -2.6875 C 13.898438 -3.769531 13.296875 -5.3125 12.765625 -7.3125 L 10.4375 -5.453125 L 10.4375 0 L 2.0625 0 L 2.09375 -26.046875 L 10.46875 -27.28125 L 10.4375 -13.75 L 20.59375 -22.0625 L 25.140625 -15.859375 L 18.78125 -11.421875 C 19.09375 -9.421875 19.546875 -8.023438 20.140625 -7.234375 C 20.734375 -6.441406 21.609375 -6.046875 22.765625 -6.046875 C 23.242188 -6.046875 23.8125 -6.125 24.46875 -6.28125 L 23.671875 0.203125 C 22.890625 0.273438 22.15625 0.3125 21.46875 0.3125 Z M 21.46875 0.3125 "/></g></g></g><g fill="#ffbd59" fill-opacity="1"><g transform="translate(219.107156, 191.451775)"><g><path d="M 2.5625 -27.203125 L 21.3125 -27.203125 L 21.3125 -21.1875 L 11.0625 -21.1875 L 11.0625 -15.6875 L 20.5625 -15.6875 L 20.5625 -10.71875 L 11.0625 -10.71875 L 11.0625 0 L 2.5625 0 Z M 2.5625 -27.203125 "/></g></g></g><g fill="#ffbd59" fill-opacity="1"><g transform="translate(241.637122, 191.451775)"><g><path d="M 12.375 0.3125 C 10.15625 0.3125 8.179688 -0.117188 6.453125 -0.984375 C 4.734375 -1.859375 3.390625 -3.066406 2.421875 -4.609375 C 1.460938 -6.148438 0.984375 -7.921875 0.984375 -9.921875 C 0.984375 -11.921875 1.46875 -13.691406 2.4375 -15.234375 C 3.414062 -16.773438 4.769531 -17.96875 6.5 -18.8125 C 8.226562 -19.65625 10.195312 -20.078125 12.40625 -20.078125 C 14.644531 -20.078125 16.628906 -19.648438 18.359375 -18.796875 C 20.085938 -17.941406 21.425781 -16.75 22.375 -15.21875 C 23.320312 -13.6875 23.796875 -11.921875 23.796875 -9.921875 C 23.796875 -7.890625 23.3125 -6.101562 22.34375 -4.5625 C 21.382812 -3.019531 20.039062 -1.820312 18.3125 -0.96875 C 16.59375 -0.113281 14.613281 0.3125 12.375 0.3125 Z M 12.453125 -5.609375 C 13.535156 -5.609375 14.425781 -6.007812 15.125 -6.8125 C 15.820312 -7.625 16.171875 -8.660156 16.171875 -9.921875 C 16.171875 -11.179688 15.820312 -12.210938 15.125 -13.015625 C 14.425781 -13.828125 13.535156 -14.234375 12.453125 -14.234375 C 11.367188 -14.234375 10.476562 -13.828125 9.78125 -13.015625 C 9.082031 -12.210938 8.734375 -11.179688 8.734375 -9.921875 C 8.734375 -8.660156 9.082031 -7.625 9.78125 -6.8125 C 10.476562 -6.007812 11.367188 -5.609375 12.453125 -5.609375 Z M 12.453125 -5.609375 "/></g></g></g><g fill="#ffbd59" fill-opacity="1"><g transform="translate(266.420077, 191.451775)"><g><path d="M 12.375 0.3125 C 10.15625 0.3125 8.179688 -0.117188 6.453125 -0.984375 C 4.734375 -1.859375 3.390625 -3.066406 2.421875 -4.609375 C 1.460938 -6.148438 0.984375 -7.921875 0.984375 -9.921875 C 0.984375 -11.921875 1.46875 -13.691406 2.4375 -15.234375 C 3.414062 -16.773438 4.769531 -17.96875 6.5 -18.8125 C 8.226562 -19.65625 10.195312 -20.078125 12.40625 -20.078125 C 14.644531 -20.078125 16.628906 -19.648438 18.359375 -18.796875 C 20.085938 -17.941406 21.425781 -16.75 22.375 -15.21875 C 23.320312 -13.6875 23.796875 -11.921875 23.796875 -9.921875 C 23.796875 -7.890625 23.3125 -6.101562 22.34375 -4.5625 C 21.382812 -3.019531 20.039062 -1.820312 18.3125 -0.96875 C 16.59375 -0.113281 14.613281 0.3125 12.375 0.3125 Z M 12.453125 -5.609375 C 13.535156 -5.609375 14.425781 -6.007812 15.125 -6.8125 C 15.820312 -7.625 16.171875 -8.660156 16.171875 -9.921875 C 16.171875 -11.179688 15.820312 -12.210938 15.125 -13.015625 C 14.425781 -13.828125 13.535156 -14.234375 12.453125 -14.234375 C 11.367188 -14.234375 10.476562 -13.828125 9.78125 -13.015625 C 9.082031 -12.210938 8.734375 -11.179688 8.734375 -9.921875 C 8.734375 -8.660156 9.082031 -7.625 9.78125 -6.8125 C 10.476562 -6.007812 11.367188 -5.609375 12.453125 -5.609375 Z M 12.453125 -5.609375 "/></g></g></g><g fill="#ffbd59" fill-opacity="1"><g transform="translate(291.203032, 191.451775)"><g><path d="M 10.640625 0.3125 C 8.847656 0.3125 7.21875 -0.160156 5.75 -1.109375 C 4.289062 -2.054688 3.140625 -3.3125 2.296875 -4.875 C 1.453125 -6.445312 1.03125 -8.113281 1.03125 -9.875 C 1.03125 -11.75 1.46875 -13.46875 2.34375 -15.03125 C 3.226562 -16.601562 4.414062 -17.835938 5.90625 -18.734375 C 7.394531 -19.628906 8.984375 -20.078125 10.671875 -20.078125 C 12.203125 -20.078125 13.5 -19.757812 14.5625 -19.125 C 15.632812 -18.5 16.5 -17.488281 17.15625 -16.09375 L 17.15625 -26.046875 L 25.5 -27.28125 L 25.5 0 L 17.15625 0 L 17.15625 -3.671875 C 15.914062 -1.015625 13.742188 0.3125 10.640625 0.3125 Z M 13.25 -5.921875 C 14.351562 -5.921875 15.28125 -6.316406 16.03125 -7.109375 C 16.78125 -7.898438 17.15625 -8.820312 17.15625 -9.875 L 17.15625 -10.046875 C 17.15625 -11.066406 16.757812 -11.953125 15.96875 -12.703125 C 15.175781 -13.453125 14.269531 -13.828125 13.25 -13.828125 C 12.132812 -13.828125 11.203125 -13.4375 10.453125 -12.65625 C 9.703125 -11.882812 9.328125 -10.957031 9.328125 -9.875 C 9.328125 -8.769531 9.710938 -7.832031 10.484375 -7.0625 C 11.265625 -6.300781 12.1875 -5.921875 13.25 -5.921875 Z M 13.25 -5.921875 "/></g></g></g></svg>